<svg id="Layer_1" enable-background="new 0 0 512.67 512.67" viewBox="0 0 512.67 512.67" xmlns="http://www.w3.org/2000/svg"><g transform="translate(1 1)"><g><g><path d="m459.616 189.628 11.947 11.947c3.413 3.413 8.533 3.413 11.947 0s3.413-8.533 0-11.947l-17.067-17.067c-3.413-2.56-7.68-3.413-11.093-.853l-25.6 17.067-130.56 81.067-37.547-45.227c-1.707-2.56-4.267-3.413-6.827-3.413h-85.333v-25.6h17.067c5.12 0 8.533-3.413 8.533-8.533s-3.413-8.533-8.533-8.533h-51.2c-5.12 0-8.533 3.413-8.533 8.533s3.413 8.533 8.533 8.533h17.067v25.6h-68.267v-25.6c0-2.56-1.707-5.12-3.413-6.827l-51.2-34.133c-2.56-1.707-5.12-1.707-7.68-1.707-2.56.853-4.267 2.56-5.12 5.12l-17.067 42.666c-1.707 3.413 0 7.68 3.413 10.24l64 40v98.24c0 5.12 3.413 8.533 8.533 8.533h256c2.56 0 5.12-1.707 6.827-2.56l102.05-153.074zm-442.026 11.093 11.093-26.453 38.4 25.6v29.867 1.707zm309.76 139.947h-243.2v-93.867-8.533h166.4l40.107 47.787c2.56 3.413 7.68 4.267 11.093 1.707l103.253-64z"/><path d="m507.403 299.708-2.56-4.267c-4.267-5.973-7.68-11.093-10.24-17.067l-9.387-17.92c-3.413-5.973-12.8-5.973-15.36 0l-7.68 14.507c-3.413 7.68-7.68 15.36-12.8 22.187-3.413 4.267-5.973 9.387-5.973 15.36-1.707 17.067 10.24 32.427 26.453 35.84 1.707.853 4.267.853 6.827.853 7.68 0 15.36-2.56 22.187-7.68 8.533-6.827 12.8-16.213 12.8-26.453 0-5.973-1.707-11.093-4.267-15.36zm-19.627 28.16c-4.267 3.413-9.387 4.267-14.507 3.413-8.533-1.707-14.507-9.387-13.653-17.92 0-2.56.853-4.267 2.56-5.973 5.973-7.68 10.24-16.213 14.507-24.747l1.707 2.56c3.413 6.827 7.68 12.8 11.093 18.773l2.56 4.267c.853 1.707 1.707 3.413 1.707 5.973 0 5.974-1.707 10.241-5.974 13.654z"/></g></g></g><g/><g/><g/><g/><g/><g/><g/><g/><g/><g/><g/><g/><g/><g/><g/></svg>