<svg id="Layer_1" enable-background="new 0 0 512 512" viewBox="0 0 512 512" xmlns="http://www.w3.org/2000/svg"><g transform="translate(1 1)"><g><g><path d="m84.333 383.105c10.24 0 19.627-3.413 25.6-8.533 5.973 5.12 15.36 8.533 25.6 8.533s19.627-3.413 25.6-8.533c5.973 5.12 15.36 8.533 25.6 8.533 5.12 0 8.533-3.413 8.533-8.533s-3.413-8.533-8.533-8.533c-10.24 0-17.067-5.12-17.067-8.533 0-5.12-3.413-8.533-8.533-8.533s-8.533 3.413-8.533 8.533c0 3.413-6.827 8.533-17.067 8.533s-17.067-5.12-17.067-8.533c0-5.12-3.413-8.533-8.533-8.533s-8.533 3.413-8.533 8.533c0 3.413-6.827 8.533-17.067 8.533s-17.067-5.12-17.067-8.533c0-5.12-3.413-8.533-8.533-8.533s-8.533 3.413-8.533 8.533c0 3.413-6.827 8.533-17.067 8.533s-17.067-5.12-17.067-8.533c0-5.12-3.413-8.533-8.533-8.533s-8.533 3.412-8.533 8.532c0 14.507 15.36 25.6 34.133 25.6 10.24 0 19.627-3.413 25.6-8.533 5.974 5.119 15.36 8.533 25.6 8.533z"/><path d="m459.8 442.838c-10.24 0-17.067-5.12-17.067-8.533 0-5.12-3.413-8.533-8.533-8.533s-8.533 3.413-8.533 8.533c0 3.413-6.827 8.533-17.067 8.533s-17.067-5.12-17.067-8.533c0-5.12-3.413-8.533-8.533-8.533s-8.533 3.413-8.533 8.533c0 3.413-6.827 8.533-17.067 8.533s-17.067-5.12-17.067-8.533c0-5.12-3.413-8.533-8.533-8.533s-8.533 3.413-8.533 8.533c0 3.413-6.827 8.533-17.067 8.533s-17.067-5.12-17.067-8.533c0-5.12-3.413-8.533-8.533-8.533s-8.533 3.413-8.533 8.533c0 3.413-6.827 8.533-17.067 8.533s-17.067-5.12-17.067-8.533c0-5.12-3.413-8.533-8.533-8.533s-8.533 3.413-8.533 8.533c0 3.413-6.827 8.533-17.067 8.533s-17.067-5.12-17.067-8.533c0-5.12-3.413-8.533-8.533-8.533s-8.533 3.413-8.533 8.533c0 3.413-6.827 8.533-17.067 8.533s-17.067-5.12-17.067-8.533c0-5.12-3.413-8.533-8.533-8.533s-8.533 3.413-8.533 8.533c0 3.413-6.827 8.533-17.067 8.533s-17.067-5.12-17.067-8.533c0-5.12-3.413-8.533-8.533-8.533s-8.533 3.413-8.533 8.533c0 3.413-6.827 8.533-17.067 8.533-5.12 0-8.533 3.413-8.533 8.533s3.413 8.533 8.533 8.533c10.24 0 19.627-3.413 25.6-8.533 5.973 5.12 15.36 8.533 25.6 8.533s19.627-3.413 25.6-8.533c5.973 5.12 15.36 8.533 25.6 8.533s19.627-3.413 25.6-8.533c5.973 5.12 15.36 8.533 25.6 8.533s19.627-3.413 25.6-8.533c5.973 5.12 15.36 8.533 25.6 8.533s19.627-3.413 25.6-8.533c5.973 5.12 15.36 8.533 25.6 8.533s19.627-3.413 25.6-8.533c5.973 5.12 15.36 8.533 25.6 8.533s19.627-3.413 25.6-8.533c5.973 5.12 15.36 8.533 25.6 8.533s19.627-3.413 25.6-8.533c5.973 5.12 15.36 8.533 25.6 8.533 5.12 0 8.533-3.413 8.533-8.533s-3.413-8.533-8.533-8.533z"/><path d="m502.467 366.038c-10.24 0-17.067-5.12-17.067-8.533 0-5.12-3.413-8.533-8.533-8.533s-8.533 3.413-8.533 8.533c0 3.413-6.827 8.533-17.067 8.533s-17.067-5.12-17.067-8.533c0-5.12-3.413-8.533-8.533-8.533s-8.533 3.413-8.533 8.533c0 3.413-6.827 8.533-17.067 8.533s-17.067-5.12-17.067-8.533c0-5.12-3.413-8.533-8.533-8.533s-8.533 3.413-8.533 8.533c0 3.413-6.827 8.533-17.067 8.533s-17.067-5.12-17.067-8.533c0-5.12-3.413-8.533-8.533-8.533s-8.533 3.413-8.533 8.533c0 14.507 15.36 25.6 34.133 25.6 10.24 0 19.627-3.413 25.6-8.533 5.973 5.12 15.36 8.533 25.6 8.533s19.627-3.413 25.6-8.533c5.973 5.12 15.36 8.533 25.6 8.533s19.627-3.413 25.6-8.533c5.973 5.12 15.36 8.533 25.6 8.533 5.12 0 8.533-3.413 8.533-8.533s-3.413-8.534-8.533-8.534z"/><path d="m244.76 399.318c3.413.853 6.827.853 10.24.853 9.387 0 18.773-3.413 26.453-9.387 10.24-7.68 16.213-20.48 16.213-33.28 0-13.653-6.827-26.453-17.067-34.133v-34.133h25.6c14.507 0 25.6-11.093 25.6-25.6s-11.093-25.6-25.6-25.6h-25.6v-25.6h25.6c14.507 0 25.6-11.093 25.6-25.6s-11.093-25.6-25.6-25.6h-25.6v-25.6h25.6c14.507 0 25.6-11.093 25.6-25.6s-11.093-25.6-25.6-25.6h-25.6v-7.68c0-12.8-9.387-23.893-22.187-26.453-6.827-.853-14.507.853-20.48 5.973s-9.387 11.947-9.387 19.627v248.32c-13.653 10.24-19.627 27.307-15.36 44.373 4.268 15.36 16.215 27.307 31.575 30.72zm-2.56-63.147c2.56-1.707 4.267-4.267 4.267-7.68v-252.586c0-2.56.853-5.12 3.413-6.827.853-.853 3.413-1.707 5.12-1.707h1.707c3.413.853 6.827 5.12 6.827 9.387v16.213c0 5.12 3.413 8.533 8.533 8.533h34.133c5.12 0 8.533 3.413 8.533 8.533s-3.413 8.533-8.533 8.533h-34.133c-5.12 0-8.533 3.413-8.533 8.533v42.667c0 5.12 3.413 8.533 8.533 8.533h34.133c5.12 0 8.533 3.413 8.533 8.533s-3.413 8.533-8.533 8.533h-34.133c-5.12 0-8.533 3.413-8.533 8.533v42.667c0 5.12 3.413 8.533 8.533 8.533h34.133c5.12 0 8.533 3.413 8.533 8.533s-3.413 8.533-8.533 8.533h-34.133c-5.12 0-8.533 3.413-8.533 8.533v46.08c0 3.413 1.707 5.973 4.267 7.68 7.68 5.12 12.8 12.8 12.8 22.187 0 8.533-3.413 15.36-9.387 20.48-5.973 5.12-14.507 6.827-22.187 5.12-9.387-1.707-16.213-9.387-18.773-17.92-2.561-11.09 1.706-22.183 11.946-28.157z"/></g></g></g><g/><g/><g/><g/><g/><g/><g/><g/><g/><g/><g/><g/><g/><g/><g/></svg>