<svg id="Layer_1" enable-background="new 0 0 512 512" viewBox="0 0 512 512" xmlns="http://www.w3.org/2000/svg"><g transform="translate(1 1)"><g><g><path d="m242.2 41.667h-170.667c-5.12 0-8.533 3.413-8.533 8.533v119.467c0 5.12 3.413 8.533 8.533 8.533h170.667c5.12 0 8.533-3.413 8.533-8.533v-119.467c0-5.12-3.413-8.533-8.533-8.533zm-8.533 119.466h-153.6v-102.4h153.6z"/><path d="m242.2 229.4h-170.667c-5.12 0-8.533 3.413-8.533 8.533v170.667c0 5.12 3.413 8.533 8.533 8.533h170.667c5.12 0 8.533-3.413 8.533-8.533v-170.667c0-5.12-3.413-8.533-8.533-8.533zm-8.533 170.667h-153.6v-153.6h153.6z"/><path d="m389.827 84.333c-5.12-.853-10.24.853-13.653 4.267-3.413 3.413-5.973 8.533-5.973 13.653 0 8.533 5.12 14.507 12.8 17.067 23.893 6.827 55.467 53.76 55.467 75.947v203.093c0 18.773-13.653 34.133-30.72 35.84-10.24.853-19.627-1.707-26.453-8.533s-11.093-16.213-11.093-25.6v-162.134c0-44.054-33.834-80.586-76.8-84.903v-145.497c0-5.12-3.413-8.533-8.533-8.533h-256c-5.12 0-8.533 3.413-8.533 8.533v452.267h-8.536c-5.12 0-8.533 3.413-8.533 8.533v34.133c0 5.12 3.413 8.533 8.533 8.533h290.133c5.12 0 8.533-3.413 8.533-8.533v-34.133c0-5.12-3.413-8.533-8.533-8.533h-8.533v-254.912c14.679 3.814 25.6 17.216 25.6 33.046v159.573c0 46.08 34.987 84.48 79.36 87.893h5.973c22.187 0 42.667-7.68 58.027-23.04 17.067-16.213 27.307-38.4 27.307-62.293v-196.267h8.533c5.12 0 8.533-3.413 8.533-8.533 0-47.787-65.706-102.4-116.906-110.934zm-96.427 409.6h-273.067v-17.067h8.533 256 8.533v17.067zm-256-34.133v-443.733h238.933v145.067 34.133 264.533zm443.733-273.067c-5.12 0-8.533 3.413-8.533 8.533v205.654c0 18.773-7.68 36.693-21.333 49.493s-31.573 19.627-51.2 17.92c-35.84-2.56-64-33.28-64-70.827v-159.573c0-25.6-18.773-46.08-42.667-50.347v-17.066c33.28 4.267 59.733 32.427 59.733 67.413v162.987c0 13.653 5.973 28.16 17.067 37.547 10.24 9.387 24.747 14.507 39.253 12.8 25.6-2.56 46.08-25.6 46.08-52.907v-203.093c0-29.013-36.693-83.627-68.267-93.013 40.107 5.973 93.867 47.787 101.547 84.48h-7.68z"/><path d="m114.2 289.133h85.333c5.12 0 8.533-3.413 8.533-8.533s-3.413-8.533-8.533-8.533h-85.333c-5.12 0-8.533 3.413-8.533 8.533s3.413 8.533 8.533 8.533z"/><path d="m114.2 331.8h85.333c5.12 0 8.533-3.413 8.533-8.533s-3.413-8.533-8.533-8.533h-85.333c-5.12 0-8.533 3.413-8.533 8.533s3.413 8.533 8.533 8.533z"/><path d="m114.2 374.467h85.333c5.12 0 8.533-3.413 8.533-8.533s-3.413-8.533-8.533-8.533h-85.333c-5.12 0-8.533 3.413-8.533 8.533s3.413 8.533 8.533 8.533z"/></g></g></g><g/><g/><g/><g/><g/><g/><g/><g/><g/><g/><g/><g/><g/><g/><g/></svg>