<svg id="Layer_1" enable-background="new 0 0 512 512" viewBox="0 0 512 512" xmlns="http://www.w3.org/2000/svg"><g transform="translate(1 1)"><g><g><path d="m331.8 361.667h-153.6c-5.12 0-8.533 3.413-8.533 8.533v51.2c0 5.12 3.413 8.533 8.533 8.533h153.6c5.12 0 8.533-3.413 8.533-8.533v-51.2c0-5.12-3.413-8.533-8.533-8.533zm-8.533 51.2h-136.534v-34.133h136.533v34.133z"/><path d="m336.067 208.92-40.96 24.747c-14.507 8.533-29.867 16.213-44.373 23.04-4.267 1.707-9.387 4.267-14.507 6.827-17.92 9.387-27.307 29.013-23.04 48.64 3.413 15.36 16.213 28.16 31.573 31.573 3.413.853 6.827.853 10.24.853 16.213 0 30.72-9.387 38.4-23.893 1.707-4.267 4.267-9.387 6.827-14.507 7.68-14.507 14.507-29.867 23.04-44.373l24.747-40.96c1.707-3.413.853-6.827-1.707-10.24-2.56-3.414-6.827-3.414-10.24-1.707zm-27.307 43.52c-9.387 15.36-17.067 30.72-23.893 46.08-1.707 5.12-4.267 9.387-6.827 14.507-5.12 11.093-17.067 16.213-29.013 13.653-9.387-1.707-17.067-9.387-18.773-18.773-2.56-11.947 2.56-23.893 13.653-29.013 4.267-2.56 9.387-4.267 14.507-6.827 15.36-7.68 31.573-15.36 46.08-23.893l11.093-6.827z"/><path d="m492.719 207.208c-.108-.575-.27-1.146-.492-1.702-.223-.558-.507-1.069-.837-1.537-12.787-30.616-31.365-58.265-54.348-81.565-.324-.482-.701-.944-1.135-1.378s-.896-.811-1.378-1.135c-46.296-45.665-109.765-73.958-179.529-73.958-33.418 0-65.389 6.5-94.725 18.281-.575.108-1.146.27-1.701.492-.557.223-1.069.507-1.537.837-30.616 12.787-58.265 31.365-81.565 54.348-.482.324-.944.701-1.378 1.135s-.812.896-1.135 1.378c-45.666 46.296-73.959 109.765-73.959 179.529 0 58.027 18.773 113.493 55.467 158.72 1.707 2.56 4.267 3.413 6.827 3.413h387.413c2.56 0 5.12-.853 6.827-3.413 36.693-45.226 55.466-100.693 55.466-158.72 0-33.418-6.5-65.389-18.281-94.725zm-47.426 239.792h-379.733c-11.539-14.88-21.122-30.844-28.695-47.616l23.575-9.557c4.267-1.707 5.973-6.827 4.267-11.093-1.707-4.267-6.827-5.973-11.093-4.267l-23.11 9.369c-8.574-23.342-13.394-48.021-14.278-73.369h59.574c5.12 0 8.533-3.413 8.533-8.533s-3.413-8.534-8.533-8.534h-59.563c.957-26.907 6.416-52.715 15.648-76.694l23.435 10.134c.853.853 2.56.853 3.413.853 3.413 0 5.973-1.707 7.68-5.12 1.707-4.267 0-9.387-4.267-11.093l-23.672-10.237c10.699-22.831 24.906-43.721 41.922-61.967l17.59 17.59c1.707 1.707 3.413 2.56 5.973 2.56s4.267-.853 5.973-2.56c3.413-3.413 3.413-8.533 0-11.947l-17.59-17.59c19.117-17.828 41.131-32.581 65.244-43.438l9.52 23.482c.853 3.413 4.267 5.12 7.68 5.12.853 0 1.707 0 3.413-.853 4.267-1.707 5.973-6.827 4.267-11.093l-9.329-23.012c23.021-8.463 47.679-13.452 73.329-14.364v59.563c0 5.12 3.413 8.533 8.533 8.533s8.533-3.413 8.533-8.533v-59.564c26.907.957 52.715 6.416 76.694 15.648l-10.134 23.436c-1.707 4.267 0 9.387 4.267 11.093.853.853 2.56.853 3.413.853 3.413 0 6.827-2.56 7.68-5.12l10.237-23.672c22.831 10.699 43.721 24.906 61.967 41.922l-17.59 17.59c-3.413 3.413-3.413 8.533 0 11.947 1.707 1.707 3.413 2.56 5.973 2.56 1.707 0 4.267-.853 5.973-2.56l17.59-17.59c17.828 19.117 32.581 41.131 43.438 65.244l-23.482 9.52c-4.267 1.707-5.973 6.827-4.267 11.093.853 3.413 4.267 5.12 7.68 5.12.853 0 1.707-.853 3.413-.853l23.013-9.329c8.463 23.021 13.452 47.679 14.364 73.329h-59.561c-5.12 0-8.533 3.413-8.533 8.533s3.413 8.533 8.533 8.533h59.575c-.927 26.593-6.172 52.45-15.418 76.799l-23.677-10.239c-4.267-1.707-9.387 0-11.093 4.267-1.707 4.267 0 9.387 4.267 11.093l23.981 10.37c-7.191 15.541-16.062 30.364-26.542 44.243z"/></g></g></g><g/><g/><g/><g/><g/><g/><g/><g/><g/><g/><g/><g/><g/><g/><g/></svg>