<svg id="Layer_1" enable-background="new 0 0 513.28 513.28" viewBox="0 0 513.28 513.28" xmlns="http://www.w3.org/2000/svg"><g transform="translate(1 1)"><g><g><path d="m255.64 67.907c-103.253 0-187.733 84.48-187.733 187.733s84.48 187.733 187.733 187.733 187.733-84.48 187.733-187.733-84.48-187.733-187.733-187.733zm0 358.4c-93.867 0-170.667-76.8-170.667-170.667s76.8-170.667 170.667-170.667 170.667 76.8 170.667 170.667-76.8 170.667-170.667 170.667z"/><path d="m491.16 333.293c-4.267-1.707-9.387.853-11.093 5.12-11.947 32.427-30.72 61.44-55.467 86.187-3.413 3.413-3.413 8.533 0 11.947 1.707 1.707 3.413 2.56 5.973 2.56s4.267-.853 5.973-1.707c27.307-26.453 46.933-58.027 59.733-93.013 1.708-4.267-.852-9.387-5.119-11.094z"/><path d="m506.52 202.733c-.853-5.12-5.973-7.68-10.24-6.827-5.12.853-7.68 5.973-6.827 10.24 6.827 33.28 6.827 66.56 0 98.987-.853 5.12 2.56 9.387 6.827 10.24h1.707c3.413 0 7.68-2.56 8.533-6.827 7.68-34.986 7.68-70.826 0-105.813z"/><path d="m480.067 172.867c.853 3.413 4.267 5.973 7.68 5.973h3.413c4.267-1.707 6.827-6.827 5.12-11.093-13.653-34.987-33.28-66.56-59.733-93.013-3.413-3.413-8.533-3.413-11.947 0s-3.413 8.533 0 11.947c24.747 24.746 43.52 53.759 55.467 86.186z"/><path d="m31.213 337.56c-1.707-4.267-6.827-6.827-11.093-5.12-4.267 1.707-6.827 6.827-5.12 11.093 12.8 34.987 33.28 66.56 59.733 93.013 1.707 1.707 3.413 2.56 5.973 2.56s4.267-.853 5.973-3.413c3.413-3.413 3.413-8.533 0-11.947-24.746-24.746-43.519-53.759-55.466-86.186z"/><path d="m21.827 305.133c-6.827-32.427-6.827-66.56 0-98.987.853-5.12-1.707-9.387-6.827-10.24s-9.387 2.56-10.24 6.827c-7.68 34.987-7.68 70.827 0 105.813.853 4.267 4.267 6.827 8.533 6.827h1.707c5.12-.853 7.68-5.973 6.827-10.24z"/><path d="m20.973 177.987c.853.853 1.707.853 2.56.853 3.413 0 6.827-2.56 7.68-5.973 11.947-32.427 30.72-61.44 56.32-87.04 3.413-3.413 3.413-8.533 0-11.947-3.413-3.413-8.533-3.413-11.947 0-27.307 26.453-46.933 58.027-59.733 93.013-1.706 4.267.854 9.387 5.12 11.094z"/><path d="m264.173 153.24h-25.6c-5.12 0-8.533 3.413-8.533 8.533v102.4 102.4c0 5.12 3.413 8.533 8.533 8.533s8.533-3.413 8.533-8.533v-93.867h17.067c33.28 0 59.733-26.453 59.733-59.733.001-33.28-26.453-59.733-59.733-59.733zm0 102.4h-17.067v-85.333h17.067c23.893 0 42.667 18.773 42.667 42.667 0 23.893-18.773 42.666-42.667 42.666z"/></g></g></g><g/><g/><g/><g/><g/><g/><g/><g/><g/><g/><g/><g/><g/><g/><g/></svg>