<svg id="Layer_1" enable-background="new 0 0 512 512" viewBox="0 0 512 512" xmlns="http://www.w3.org/2000/svg"><g transform="translate(1 1)"><g><g><path d="m485.4 410.307c-1.707-.853-4.267-2.56-5.973-3.413-14.868-7.569-30.254-14.362-46.095-20.417-.886-1.191-2.012-2.161-3.398-2.623-19.627-6.827-40.96-13.653-62.293-18.773-1.311-.328-2.747-.275-4.116.104-10.421-2.451-20.986-4.635-31.681-6.564.455-3.194.744-6.445.81-9.754v-22.556c35.991-31.753 58.24-83.064 57.173-131.044v-42.227c.579-.417 1.149-.847 1.707-1.293 11.093-9.387 17.067-23.04 17.067-36.693-.001-64.001-52.054-116.054-115.201-116.054h-75.947c-64 0-116.053 52.053-116.907 115.2 0 14.507 5.973 27.307 17.067 36.693.279.215.57.415.853.624v43.749c0 48.394 23.046 100.169 59.733 131.854v21.746c0 2.981.184 5.914.508 8.802-53.1 9.531-102.99 25.388-148.135 48.371l-5.973 3.413c-16.212 7.681-25.599 23.895-25.599 41.815v51.2c0 5.12 3.413 8.533 8.533 8.533h85.333 324.267 85.333c5.12 0 8.533-3.413 8.533-7.68v-51.2c.001-17.067-10.239-33.28-25.599-41.813zm-114.347 32.426h-33.28l33.002-59.235c14.3 3.624 28.288 7.803 41.91 12.505zm9.387-304.64c-.224.196-.458.378-.687.567-.959.223-1.89.582-2.726 1.14-3.692 2.769-7.634 4.53-11.689 5.303-3.216.493-6.488.449-9.644-.183-61.203-11.621-123.109-12.69-182.526-3.21-6.594.953-13.167 2.019-19.714 3.21-1.051.117-2.102.181-3.151.202-6.86-.123-13.508-2.029-19.036-6.175-5.12-3.413-8.533-8.533-10.24-13.653l36.693-6.827c64-11.947 129.707-11.947 195.413 0l36.407 6.773c-1.889 4.831-5.036 9.297-9.1 12.853zm-163.84-122.026h75.947c52.343 0 95.272 40.762 98.752 92.233l-35.605-6.046c-67.413-11.947-135.68-11.947-201.387 0l-35.605 6.046c3.477-51.471 46.373-92.233 97.898-92.233zm-81.067 179.2v-34.987c6.827 1.707 14.507 2.56 22.187.853 31.861-5.947 64.144-8.932 96.64-8.958 32.5.026 65.21 3.01 97.92 8.958 2.331.583 4.261.764 6.068.823 5.372.407 10.986-.393 16.118-1.676v34.987c0 79.578-58.365 140.216-112.917 144.78-.616.049-1.233.101-1.849.136-.429.026-.858.047-1.287.066-1.14.048-2.278.085-3.414.085-1.137 0-2.278-.037-3.42-.085-.42-.019-.84-.039-1.261-.065-.66-.038-1.322-.093-1.983-.147-10.992-.935-22.135-4.138-32.924-9.32-.091-.045-.184-.084-.275-.13-.065-.032-.13-.066-.195-.097-7.739-3.868-15.225-8.849-22.235-14.903-.751-.501-1.651-.925-2.61-1.236-31.088-25.764-54.563-68.617-54.563-119.084zm115.361 162.048c.099.004.198.012.297.015 1.264.045 2.533.069 3.808.069s2.544-.025 3.808-.069c.099-.004.199-.011.298-.015 20.2-.769 38.97-7.186 55.627-17.601v9.152c0 33.28-26.453 59.733-59.733 59.733s-59.733-26.453-59.733-59.733v-9.13c16.683 10.403 35.442 16.811 55.628 17.579zm-66.375 22.262c.162.369.327.735.495 1.1 3.505 7.766 8.255 14.826 14.01 20.935.302.323.607.642.914.959.369.379.739.756 1.116 1.127.659.652 1.33 1.291 2.012 1.917.082.075.161.153.244.228 11.776 10.734 26.803 17.657 43.454 19.385.266.028.534.052.801.078.941.088 1.887.159 2.838.213.317.018.633.04.951.055 1.209.055 2.423.091 3.647.091s2.441-.036 3.653-.091c.31-.014.617-.036.926-.053.978-.056 1.951-.129 2.919-.219.228-.022.457-.042.684-.066 24.366-2.497 45.645-16.041 57.722-36.318.075-.122.148-.246.222-.368.152-.259.305-.517.454-.778 2.487-4.177 4.599-8.606 6.29-13.248 8.402 1.383 16.706 2.984 24.923 4.756l-34.864 63.452h-126.33l-34.812-63.358c8.463-1.837 17.019-3.489 25.679-4.908.479 1.326 1.001 2.626 1.543 3.914.165.402.337.799.509 1.197zm-86.453 16.314c13.623-4.757 27.614-8.945 41.912-12.564l32.249 59.406h-33.28zm-81.999 55.376c0-11.093 5.973-21.333 16.213-26.453l5.973-3.413c13.55-6.908 27.598-13.236 42.089-18.934l37.12 41.311c-19.165 4.235-33.13 21.019-33.13 41.623v8.533h-68.265zm85.333 42.666v-8.533c0-14.507 11.093-25.6 25.6-25.6h8.533 51.2 136.533 51.2 8.534c14.507 0 25.6 11.093 25.6 25.6v8.533zm392.533 0h-68.267v-8.533c0-20.833-14.273-37.768-33.767-41.767l37.373-41.593c14.627 5.611 28.804 11.805 42.474 18.506 1.707 1.707 4.267 2.56 5.973 3.413 10.24 5.973 16.213 16.213 16.213 27.307v42.667z"/><path d="m212.333 75.8h85.333c5.12 0 8.533-3.413 8.533-8.533v-34.134c0-5.12-3.413-8.533-8.533-8.533h-85.333c-5.12 0-8.533 3.413-8.533 8.533v34.133c0 5.121 3.413 8.534 8.533 8.534zm8.534-34.133h68.267v17.067h-68.267z"/><path d="m161.133 468.333c-5.12 0-8.533 3.413-8.533 8.533s3.413 8.533 8.533 8.533 8.533-3.413 8.533-8.533-3.413-8.533-8.533-8.533z"/><path d="m348.867 468.333c-5.12 0-8.533 3.413-8.533 8.533s3.413 8.533 8.533 8.533 8.533-3.413 8.533-8.533-3.413-8.533-8.533-8.533z"/></g></g></g><g/><g/><g/><g/><g/><g/><g/><g/><g/><g/><g/><g/><g/><g/><g/></svg>