<svg id="Layer_1" enable-background="new 0 0 512 512" viewBox="0 0 512 512" xmlns="http://www.w3.org/2000/svg"><g transform="translate(1 1)"><g><path d="m487.607 354.752c-28.968-11.945-59.352-21.66-90.465-29.092-4.578-56.696-27.984-107.728-64.206-138.444l72.574-72.574c1.766-1.766 2.648-3.531 2.648-6.179s-.883-4.414-2.648-6.179l-24.717-24.717c-3.531-3.531-8.828-3.531-12.359 0l-76.77 77.048c-.623-2.362-.913-4.835-.913-7.31v-15.007c21.186-12.359 35.31-35.31 35.31-60.91 0-.296-.019-.588-.023-.883.004-.295.023-.587.023-.883.001-38.843-31.778-70.622-70.62-70.622s-70.621 31.779-70.621 70.621c0 .296.019.588.023.883-.004.295-.023.587-.023.883 0 24.717 14.124 48.552 35.31 60.91v15.007c0 9.71-6.179 19.421-15.89 23.835-49.648 24.824-84.352 84.51-89.63 153.302-32.473 7.792-63.434 18.402-92.218 31.195-2.648.883-5.297 3.531-5.297 7.062s.883 6.179 3.531 7.945l35.31 23.834c2.648 1.766 5.297 1.766 7.945.883 17.334-5.778 34.1-10.839 50.441-15.19 1.171 49.677 10.732 94.224 27.241 126.418 1.766 2.648 4.414 4.414 7.945 4.414h44.138c2.648 0 7.062-1.766 7.945-4.414s1.766-6.179 0-8.828c-10.593-20.303-15.89-49.435-16.772-85.628 45.903-8.828 96.221-8.828 141.241 0-.883 36.193-6.179 65.324-16.772 85.628-1.766 2.648-1.766 6.179 0 8.828 1.766 2.648 5.297 4.414 7.945 4.414h44.138c3.531 0 6.179-1.766 7.062-4.414 16.544-32.261 26.112-76.925 27.25-126.727 16.626 4.42 33.68 9.584 51.315 15.5.883.883 1.766.883 2.648.883 1.766 0 3.531-.883 4.414-2.648l35.31-23.834c2.648-1.766 3.531-4.414 3.531-7.945.002-2.651-2.646-6.183-5.294-7.065zm-109.462-33.545c-36.2-7.542-73.043-11.85-109.43-12.949-18.63-.653-37.192-.495-55.553.498l107.604-107.604c31.779 26.482 52.965 70.62 57.379 120.055zm-145.51-203.818c-.048-.033-.097-.068-.145-.1-.976-.465-1.928-.962-2.864-1.48-14.668-8.254-25.073-23.28-26.872-40.768-.004-.038-.006-.076-.01-.114-.076-.754-.131-1.513-.174-2.275-.011-.197-.022-.393-.031-.59-.037-.81-.062-1.623-.062-2.442 0-29.131 23.834-52.966 52.966-52.966s52.966 23.835 52.083 52.966c0 20.303-11.476 38.841-30.014 47.669-.821.411-1.537.874-2.168 1.38-6.153 2.516-12.87 3.916-19.901 3.916-8.155.001-15.892-1.868-22.808-5.196zm-20.449 67.873c15.89-7.945 25.6-22.952 25.6-39.724v-7.547c5.648 1.468 11.564 2.25 17.655 2.25 5.776 0 11.39-.718 16.772-2.042v7.339c0 7.062 2.648 15.007 6.179 21.186l-144.771 144.773c7.945-57.38 37.958-105.932 78.565-126.235zm143.89 308.083h-25.6c8.828-22.952 13.241-52.966 13.241-88.276 0-4.414-2.648-7.945-7.062-8.828-51.2-11.476-110.345-11.476-162.428 0-4.414.883-7.062 4.414-7.062 8.828 0 35.31 4.414 65.324 13.241 88.276h-25.6c-14.124-30.014-22.069-70.621-22.952-116.524 3.531-.883 6.179-1.766 9.71-2.648 76.8-16.772 145.655-16.772 221.572-.883 5.297.883 10.593 2.648 15.89 3.531-.881 45.903-8.826 86.51-22.95 116.524zm92.69-115.642c-62.583-20.467-118.146-31.8-172.949-34.016-45.599-2.074-90.511 2.129-138.665 12.83-5.297 1.766-11.476 2.648-16.772 4.414-.143.072-.282.147-.422.222-18.426 4.621-37.347 10.137-56.958 16.55l-18.538-12.359c24.733-10.718 52.545-19.124 80.561-25.221.218.124.435.287.653.504.883-.883 1.766-.883 2.648-.883.185-.185.371-.325.557-.44.697-.146 1.394-.299 2.092-.442 1.766-.883 3.531-1.766 4.414-2.648l160.662-159.779c.86-.86 1.506-1.825 1.96-2.843l76.606-76.606 12.359 12.359-204.8 204.8c-2.648 2.648-3.531 6.179-1.766 9.71 1.766 3.531 5.297 5.297 8.828 5.297.116-.012.232-.022.347-.034.179.009.357.034.536.034 38.26-3.669 77.764-3.915 116.851-.368 22.898 2.169 45.705 5.608 68.22 10.279 3.647.781 7.282 1.593 10.902 2.448h.351c27.267 6.179 54.053 14.145 79.98 23.835z"/></g></g><g/><g/><g/><g/><g/><g/><g/><g/><g/><g/><g/><g/><g/><g/><g/></svg>