<svg id="Layer_1" enable-background="new 0 0 510.72 510.72" viewBox="0 0 510.72 510.72" xmlns="http://www.w3.org/2000/svg"><g transform="translate(1 1)"><g><g><path d="m343.107 83.907c-40.107-11.947-139.947-11.947-175.787 0-4.267.853-5.973 4.267-5.973 8.533l8.533 93.867c0 2.56 1.707 4.267 3.413 5.973s4.267 2.56 6.827 1.707c43.52-11.093 104.96-11.093 149.333 0h1.707c1.707 0 3.413-.853 5.973-1.707 1.707-.853 3.413-3.413 3.413-5.973l8.533-93.867c.854-3.413-1.706-7.68-5.972-8.533zm-19.627 91.306c-21.333-4.267-45.227-6.827-69.12-6.827s-48.64 2.56-69.973 6.827l-6.827-76.8c35.84-8.533 114.347-8.533 152.747 0z"/><path d="m322.627 364.653h-136.534c-14.507 0-25.6 11.093-25.6 25.6v59.733c0 4.267 2.56 7.68 6.827 8.533 29.013 5.973 58.027 8.533 87.04 8.533s58.027-2.56 87.04-8.533c4.267-.853 6.827-4.267 6.827-8.533v-59.733c0-14.506-11.094-25.6-25.6-25.6zm8.533 78.507c-51.2 9.387-102.4 9.387-153.6 0v-52.907c0-5.12 3.413-8.533 8.533-8.533h136.533c5.12 0 8.533 3.413 8.533 8.533v52.907z"/><path d="m463.427 294.68c.853.853 2.56 1.707 4.267 1.707s2.56 0 4.267-1.707c2.56-1.707 4.267-4.267 4.267-7.68v-42.667c0-2.56-1.707-5.12-4.267-6.827l-89.6-57.018v-89.755c0-23.04-2.56-42.667-8.533-67.413-.853-3.413-3.413-5.973-6.827-5.973l-53.761-11.947c-39.253-8.533-80.213-8.533-118.613 0l-53.76 11.947c-2.56.853-5.12 2.56-5.973 5.973-5.973 24.747-8.533 44.373-8.533 67.413v82.075l-89.6 57.018c-2.56.853-4.267 4.267-4.267 6.827v42.667c0 3.413 1.707 5.973 4.267 7.68 1.707.853 2.56.853 4.267.853s3.412-.853 4.265-.853l81.067-51.588v73.93l-89.6 57.018c-2.56.853-4.267 4.267-4.267 6.827v42.667c0 3.413 1.707 5.973 4.267 7.68 1.707.853 2.56.853 4.267.853s3.413-.853 4.267-.853l81.067-51.588v112.174c0 14.507 11.093 25.6 25.6 25.6h204.8c14.507 0 25.6-11.093 25.6-25.6v-113.028l81.067 51.588c.853.853 2.56 1.707 4.267 1.707s2.56 0 4.267-1.707c2.56-1.707 4.267-4.267 4.267-7.68v-42.667c0-2.56-1.707-5.12-4.267-6.827l-89.6-57.018v-65.396zm-4.267-44.373v22.187l-76.8-48.64v-22.187zm-409.6 12.8v-22.187l76.8-48.64v22.187zm0 136.533v-22.187l76.8-48.64v22.187zm315.733 84.48c0 5.12-3.413 8.533-8.533 8.533h-204.8c-5.12 0-8.533-3.413-8.533-8.533v-127.147-42.667-93.866-42.667-87.04c0-20.48 1.707-37.547 6.827-58.027l48.64-11.093c36.693-8.533 75.093-8.533 110.933 0l48.64 11.093c5.12 20.48 6.827 38.4 6.827 58.027v94.72 42.667 85.333 42.667 128zm93.867-105.813v22.187l-76.8-48.64v-22.187z"/><path d="m343.107 220.44c-2.56-1.707-5.973-.853-8.533.853l-34.133 25.6c-2.56 1.707-3.413 4.267-3.413 6.827v76.8c0 5.12 3.413 8.533 8.533 8.533h34.133c5.12 0 8.533-3.413 8.533-8.533v-102.4c0-3.413-2.56-5.973-5.12-7.68zm-11.947 101.547h-17.067v-64l17.067-12.8z"/><path d="m169.027 339.053h34.133c5.12 0 8.533-3.413 8.533-8.533v-76.8c0-2.56-.853-5.12-3.413-6.827l-34.133-25.6c-2.56-1.707-5.973-2.56-8.533-.853-3.413 1.707-5.12 4.267-5.12 7.68v102.4c-.001 5.12 3.413 8.533 8.533 8.533zm8.533-93.866 17.067 12.8v64h-17.067z"/></g></g></g><g/><g/><g/><g/><g/><g/><g/><g/><g/><g/><g/><g/><g/><g/><g/></svg>