<svg id="Layer_1" enable-background="new 0 0 512 512" viewBox="0 0 512 512" xmlns="http://www.w3.org/2000/svg"><g transform="translate(1 1)"><g><path d="m470.893 208.067c-22.187-1.707-40.107-11.947-50.347-28.16l-2.56-4.267c-12.8-21.333-34.987-34.133-60.587-35.84h-136.532c-.853 0-1.707 0-2.56.853-12.8 4.267-23.893 14.507-32.427 24.747l-11.947 11.947c-10.041 11.2-21.66 20.645-34.452 28.032l-91.841-88.619c-3.413-3.413-8.533-3.413-11.947 0s-3.413 8.533 0 11.947l87.69 84.613c-11.006 4.556-22.667 7.7-34.783 9.253l-52.053 6.827c-21.334 3.413-37.547 21.333-37.547 42.667v38.4c0 23.893 18.773 42.667 42.667 42.667h34.863c4.095 24.133 25.217 42.666 50.47 42.666s46.375-18.533 50.47-42.667h172.127c4.095 24.134 25.217 42.667 50.47 42.667s46.375-18.533 50.47-42.667h17.797c23.893 0 42.667-18.773 42.667-42.667v-59.733c-.001-22.186-17.921-40.96-40.108-42.666zm-343.893 170.666c-18.773 0-34.133-15.36-34.133-34.133s15.36-34.133 34.133-34.133 34.133 15.36 34.133 34.133-15.36 34.133-34.133 34.133zm273.067 0c-18.773 0-34.133-15.36-34.133-34.133s15.36-34.133 34.133-34.133 34.133 15.36 34.133 34.133-15.36 34.133-34.133 34.133zm93.866-68.266c0 14.507-11.093 25.6-25.6 25.6h-17.797c-2.881-16.98-14.192-31.177-29.444-38.106-.338-.155-.674-.314-1.017-.462-.214-.092-.432-.175-.648-.264-.553-.229-1.109-.453-1.672-.662-.152-.056-.306-.108-.459-.163-.625-.226-1.256-.442-1.893-.644-.138-.044-.276-.085-.415-.127-.648-.199-1.302-.387-1.962-.56-.146-.038-.292-.076-.439-.113-.648-.164-1.301-.316-1.96-.455-.166-.035-.331-.071-.497-.104-.636-.128-1.277-.242-1.922-.346-.191-.031-.381-.064-.573-.093-.621-.093-1.248-.17-1.877-.24-.213-.024-.425-.052-.639-.074-.629-.062-1.263-.107-1.899-.146-.21-.013-.417-.033-.628-.043-.837-.041-1.68-.065-2.529-.065s-1.692.024-2.529.065c-.21.01-.418.03-.628.043-.636.039-1.27.084-1.899.146-.214.021-.426.05-.639.074-.629.07-1.256.148-1.877.24-.192.029-.382.062-.574.093-.645.104-1.285.218-1.921.345-.167.034-.332.069-.498.104-.658.139-1.311.291-1.959.455-.146.037-.293.074-.439.113-.66.174-1.314.361-1.962.561-.138.042-.276.083-.414.127-.638.202-1.268.418-1.894.644-.152.055-.305.107-.457.163-.564.21-1.121.434-1.675.664-.215.089-.432.172-.645.263-.343.148-.68.308-1.019.463-15.25 6.93-26.561 21.126-29.441 38.105h-172.123c-2.881-16.979-14.19-31.174-29.439-38.104-.34-.156-.677-.316-1.021-.464-.213-.091-.43-.174-.645-.263-.554-.229-1.111-.453-1.675-.664-.151-.056-.305-.108-.457-.163-.626-.226-1.257-.442-1.894-.644-.137-.043-.276-.084-.414-.127-.648-.199-1.302-.387-1.962-.561-.146-.038-.292-.076-.439-.113-.648-.164-1.301-.316-1.96-.455-.166-.035-.331-.071-.497-.104-.636-.128-1.277-.242-1.922-.346-.191-.031-.381-.064-.573-.093-.621-.093-1.248-.17-1.877-.24-.213-.024-.425-.052-.639-.074-.629-.062-1.263-.107-1.899-.146-.21-.013-.417-.033-.628-.043-.837-.041-1.68-.065-2.529-.065s-1.692.024-2.529.065c-.21.01-.418.03-.628.043-.636.039-1.27.084-1.899.146-.214.021-.426.05-.639.074-.629.07-1.256.148-1.877.24-.192.029-.382.062-.573.093-.645.104-1.286.218-1.922.346-.166.033-.332.069-.497.104-.659.139-1.312.291-1.96.455-.146.037-.293.074-.439.113-.66.174-1.313.361-1.962.56-.138.042-.277.083-.415.127-.637.202-1.267.418-1.893.644-.153.055-.307.107-.459.163-.563.21-1.119.433-1.672.662-.216.089-.434.172-.648.264-.342.148-.678.307-1.017.462-15.252 6.929-26.563 21.126-29.444 38.106h-34.86c-14.507 0-25.6-11.093-25.6-25.6v-38.4c0-12.8 9.387-23.893 22.187-24.747l52.053-6.827c37.547-4.267 71.68-22.187 96.427-50.347l11.947-13.653c6.827-7.68 15.36-16.213 23.893-19.627l133.973-.853c19.627.853 36.693 11.947 46.933 28.16l2.56 4.267c12.8 21.333 36.693 34.987 64 36.693 13.653.853 23.893 11.947 23.893 25.6z"/></g></g><g/><g/><g/><g/><g/><g/><g/><g/><g/><g/><g/><g/><g/><g/><g/></svg>