<svg id="Layer_1" enable-background="new 0 0 512.559 512.559" viewBox="0 0 512.559 512.559" xmlns="http://www.w3.org/2000/svg"><g transform="translate(1 1)"><g><g><path d="m510.573 498.586-247.466-494.933c-3.413-5.973-12.8-5.973-15.36 0l-247.467 494.933c-1.707 2.56-1.707 5.973 0 8.533s5.12 4.267 7.68 4.267h494.933c2.56 0 6.827-1.707 7.68-4.267.854-2.56 1.707-5.973 0-8.533zm-488.96-4.267 233.814-467.626 233.813 467.626z"/><path d="m247.747 157.253-145.067 273.066c-1.707 2.56-1.707 5.973 0 8.533s4.267 4.267 7.68 4.267h290.133c3.413 0 5.973-1.707 7.68-4.267s1.707-5.973 0-8.533l-145.066-273.066c-3.414-5.974-12.8-5.974-15.36 0zm139.093 268.8h-261.973l130.56-246.613z"/></g></g></g><g/><g/><g/><g/><g/><g/><g/><g/><g/><g/><g/><g/><g/><g/><g/></svg>