<svg id="Layer_1" enable-background="new 0 0 512 512" viewBox="0 0 512 512" xmlns="http://www.w3.org/2000/svg"><g transform="translate(1 1)"><g><g><path d="m399.213 370.2c.853-2.56 1.707-5.973 0-8.533l-136.533-273.067c-3.413-5.973-12.8-5.973-15.36 0l-136.533 273.067c-1.707 2.56-1.707 5.973 0 8.533s5.12 4.267 7.68 4.267h273.067c2.559 0 6.826-1.707 7.679-4.267zm-267.093-12.8 122.88-245.76 122.88 245.76z"/><path d="m246.467 195.267v93.867c0 5.12 3.413 8.533 8.533 8.533s8.533-3.413 8.533-8.533v-93.867c0-5.12-3.413-8.533-8.533-8.533s-8.533 3.413-8.533 8.533z"/><path d="m255 314.733c-5.12 0-8.533 3.413-8.533 8.533s3.413 8.534 8.533 8.534 8.533-3.413 8.533-8.533-3.413-8.534-8.533-8.534z"/><path d="m255 7.533c-140.8 0-256 115.2-256 256 0 78.424 35.94 150.455 99.316 198.333l-12.276 18.414c-1.707 2.56-1.707 5.973-.853 8.533 1.707 2.56 4.267 5.12 6.827 5.12l68.267 8.533h.853c2.56 0 5.12-1.707 7.68-3.413 1.707-3.413 1.707-6.827 0-9.387l-34.133-59.733c-.853-2.56-4.267-4.267-6.827-4.267-3.413-.853-5.973.853-7.68 3.413l-12.339 18.508c-58.643-45.167-91.768-111.057-91.768-184.054 0-131.413 107.52-238.933 238.933-238.933s238.933 107.52 238.933 238.933c0 93.867-54.613 179.2-139.947 217.6-4.267 1.707-5.973 6.827-4.267 11.093 1.707 3.413 4.267 5.12 7.68 5.12.853 0 2.56 0 3.413-.853 91.308-40.96 150.188-133.12 150.188-232.96 0-140.8-115.2-256-256-256zm-128.853 442.88 18.773 33.28-37.547-5.12 8.298-12.447c.399-.37.765-.775 1.089-1.207.669-.836 1.135-1.706 1.437-2.582z"/></g></g></g><g/><g/><g/><g/><g/><g/><g/><g/><g/><g/><g/><g/><g/><g/><g/></svg>