<svg id="Layer_1" enable-background="new 0 0 511.573 511.573" viewBox="0 0 511.573 511.573" xmlns="http://www.w3.org/2000/svg"><g transform="translate(1 1)"><g><g><path d="m254.787 67.053c-103.253 0-187.733 84.48-187.733 187.733s84.48 187.733 187.733 187.733 187.733-84.479 187.733-187.732-84.48-187.734-187.733-187.734zm0 358.4c-93.867 0-170.667-76.8-170.667-170.667s76.8-170.666 170.667-170.666 170.667 76.8 170.667 170.667-76.801 170.666-170.667 170.666z"/><path d="m85.827 85.827c3.413-3.413 3.413-8.533 0-11.947s-8.533-3.413-11.947 0c-99.84 99.84-99.84 261.973 0 361.813 1.707 1.707 3.413 2.56 5.973 2.56s4.267-.853 5.973-2.56c3.413-3.413 3.413-8.533 0-11.947-93.013-93.013-93.013-244.906.001-337.919z"/><path d="m435.693 73.88c-3.413-3.413-8.533-3.413-11.947 0s-3.413 8.533 0 11.947c93.013 93.013 93.013 244.907 0 337.92-3.413 3.413-3.413 8.533 0 11.947 1.707 1.707 3.413 2.56 5.973 2.56s4.267-.853 5.973-2.56c99.841-99.841 99.841-261.974.001-361.814z"/><path d="m323.053 323.053h-25.6v-119.466c0-5.12-3.413-8.533-8.533-8.533h-76.8c-5.12 0-8.533 3.413-8.533 8.533v34.133c0 5.12 3.413 8.533 8.533 8.533h17.067v76.8h-25.6c-5.12 0-8.533 3.413-8.533 8.533v34.133c0 5.12 3.413 8.533 8.533 8.533h119.467c5.12 0 8.533-3.413 8.533-8.533v-34.133c0-5.119-3.414-8.533-8.534-8.533zm-8.533 34.134h-102.4v-17.067h25.6c5.12 0 8.533-3.413 8.533-8.533v-93.867c0-5.12-3.413-8.533-8.533-8.533h-17.067v-17.067h59.733v119.467c0 5.12 3.413 8.533 8.533 8.533h25.6v17.067z"/><path d="m254.787 177.987c18.773 0 34.133-15.36 34.133-34.133s-15.36-34.133-34.133-34.133-34.133 15.36-34.133 34.133c-.001 18.773 15.359 34.133 34.133 34.133zm0-51.2c9.387 0 17.067 7.68 17.067 17.067s-7.68 17.067-17.067 17.067-17.067-7.68-17.067-17.067 7.68-17.067 17.067-17.067z"/></g></g></g><g/><g/><g/><g/><g/><g/><g/><g/><g/><g/><g/><g/><g/><g/><g/></svg>