<svg id="Layer_1" enable-background="new 0 0 512 512" viewBox="0 0 512 512" xmlns="http://www.w3.org/2000/svg"><g transform="translate(1)"><g><g><path d="m255 119.467c-75.093 0-136.533 61.44-136.533 136.533s61.44 136.533 136.533 136.533 136.533-61.44 136.533-136.533-61.44-136.533-136.533-136.533zm0 256c-65.707 0-119.467-53.76-119.467-119.467s53.76-119.467 119.467-119.467c62.838 0 114.743 49.17 119.156 110.933h-50.89c-5.12 0-8.533 3.413-8.533 8.533s3.413 8.533 8.533 8.533h50.89c-4.413 61.765-56.318 110.935-119.156 110.935z"/><path d="m243.907 93.013c.853.853 1.707.853 2.56.853 3.413 0 6.827-2.56 6.827-5.12l5.973-17.92 17.92 5.973c4.267 1.707 8.533-.853 10.24-4.267l17.066-34.132c2.56-4.267.853-9.387-3.413-11.093-4.267-2.56-9.387-.853-11.093 3.413l-13.653 27.307-18.773-5.973c-1.707-.853-4.267-.853-5.973-.853-1.707.853-3.413 2.56-4.267 5.12l-8.533 25.6c-1.708 5.119.852 9.386 5.119 11.092z"/><path d="m308.76 22.187c5.12 0 8.533-3.413 8.533-8.533s-3.413-8.534-8.533-8.534-8.533 3.413-8.533 8.533 3.413 8.534 8.533 8.534z"/><path d="m204.9 64.246c1.395 2.509 4.034 4.02 7.434 4.02s6.038-1.511 7.434-4.02l15.606-15.606c3.413-3.413 3.413-8.533 0-11.947-3.413-3.413-8.533-3.413-11.947 0l-2.56 2.56v-30.72c0-5.12-3.413-8.533-8.533-8.533s-8.533 3.413-8.533 8.533v30.72l-2.56-2.56c-3.413-3.413-8.533-3.413-11.947 0-3.413 3.413-3.413 8.533 0 11.947z"/><path d="m495.64 231.253c-4.267-2.56-9.387-.853-11.093 3.413l-13.653 27.307-18.774-5.973c-5.12-1.707-9.387.853-11.093 5.12l-8.533 25.6c-1.707 5.12.853 9.387 5.12 11.093.853.853 1.707.853 2.56.853 3.413 0 6.827-2.56 7.68-5.973l5.973-17.92 17.92 5.973c4.267 1.707 8.533-.853 10.24-4.267l17.067-34.133c2.559-4.266.853-9.386-3.414-11.093z"/><path d="m502.467 209.92c-5.12 0-8.533 3.413-8.533 8.533s3.413 8.533 8.533 8.533 8.533-3.413 8.533-8.533-3.413-8.533-8.533-8.533z"/><path d="m94.573 231.253c-4.267-2.56-9.387-.853-11.093 3.413l-13.653 27.307-18.774-5.973c-5.12-1.707-9.387.853-11.093 5.12l-8.533 25.6c-1.707 5.12.853 9.387 5.12 11.093.853.853 1.707.853 2.56.853 3.413 0 6.827-2.56 7.68-5.973l5.973-17.92 17.92 5.973c4.267 1.707 8.533-.853 10.24-4.267l17.067-34.133c2.56-4.266.853-9.386-3.414-11.093z"/><path d="m101.4 209.92c-5.12 0-8.533 3.413-8.533 8.533s3.413 8.533 8.533 8.533 8.533-3.413 8.533-8.533-3.413-8.533-8.533-8.533z"/><path d="m39.107 244.907 15.606-15.607c2.509-1.395 4.02-4.034 4.02-7.434s-1.511-6.038-4.02-7.434l-15.606-15.607c-3.413-3.413-8.533-3.413-11.947 0-3.413 3.413-3.413 8.533 0 11.947l2.56 2.56h-22.187c-5.12 0-8.533 3.413-8.533 8.533s3.413 8.533 8.533 8.533h22.187l-2.56 2.56c-3.413 3.413-3.413 8.533 0 11.947 1.707 1.707 3.413 2.56 5.973 2.56s4.267-.852 5.974-2.558z"/><path d="m310.467 444.587c-4.267-2.56-9.387-.853-11.093 3.413l-13.653 27.307-18.773-5.973c-5.12-1.707-9.387.853-11.093 5.12l-8.533 25.6c-1.707 5.12.853 9.387 5.12 11.093.851.853 1.705.853 2.558.853 3.413 0 6.827-2.56 7.68-5.973l5.973-17.92 17.92 5.973c4.267 1.707 8.533-.853 10.24-4.267l17.067-34.133c2.56-4.267.853-9.387-3.413-11.093z"/><path d="m317.293 423.253c-5.12 0-8.533 3.413-8.533 8.533s3.413 8.533 8.533 8.533 8.533-3.413 8.533-8.533-3.413-8.533-8.533-8.533z"/><path d="m268.046 442.634c2.509-1.395 4.02-4.034 4.02-7.434s-1.511-6.038-4.02-7.434l-15.606-15.606c-3.413-3.413-8.533-3.413-11.947 0-3.413 3.413-3.413 8.533 0 11.947l2.56 2.56h-22.187c-5.12 0-8.533 3.413-8.533 8.533s3.413 8.533 8.533 8.533h22.187l-2.56 2.56c-3.413 3.413-3.413 8.533 0 11.947 1.707 1.707 3.413 2.56 5.973 2.56s4.267-.853 5.973-2.56z"/><path d="m214.893 480.427-2.56 2.56v-22.187c0-5.12-3.413-8.533-8.533-8.533s-8.533 3.413-8.533 8.533v22.187l-2.56-2.56c-3.413-3.413-8.533-3.413-11.947 0s-3.413 8.533 0 11.947l15.607 15.607c1.395 2.509 4.034 4.02 7.433 4.02s6.038-1.511 7.434-4.02l15.606-15.606c3.413-3.413 3.413-8.533 0-11.947s-8.533-3.415-11.947-.001z"/><path d="m470.04 220.16 4.267-23.893c.853-5.973-.853-12.8-5.12-17.92s-10.24-7.68-17.067-7.68h-35.84c-6.827 0-12.8 2.56-17.067 7.68s-5.973 11.093-5.12 17.92l3.413 23.893c1.707 11.093 11.093 18.773 22.187 18.773h28.16c11.094 0 20.48-7.68 22.187-18.773zm-54.613-2.56-4.267-23.893c-.853-1.707 0-3.413.853-4.267s2.56-1.707 4.267-1.707h36.693c2.56 0 3.413.853 4.267 1.707 0 .853.853 2.56.853 4.267l-4.267 23.893c-.853 2.56-2.56 4.267-5.12 4.267h-28.16c-2.559 0-5.119-1.707-5.119-4.267z"/></g></g></g><g/><g/><g/><g/><g/><g/><g/><g/><g/><g/><g/><g/><g/><g/><g/></svg>