<svg id="Layer_1" enable-background="new 0 0 512 512" viewBox="0 0 512 512" xmlns="http://www.w3.org/2000/svg"><g transform="translate(1 1)"><g><g><path d="m255 127c0-70.827-57.173-128-128-128s-128 57.173-128 128 57.173 128 128 128 128-57.173 128-128zm-238.933 0c0-61.44 49.493-110.933 110.933-110.933s110.933 49.493 110.933 110.933-49.493 110.933-110.933 110.933-110.933-49.493-110.933-110.933z"/><path d="m383 118.467c28.16 0 51.2-23.04 51.2-51.2s-23.04-51.2-51.2-51.2-51.2 23.04-51.2 51.2 23.04 51.2 51.2 51.2zm0-85.334c18.773 0 34.133 15.36 34.133 34.133s-15.36 34.134-34.133 34.134-34.133-15.36-34.133-34.133 15.36-34.134 34.133-34.134z"/><path d="m505.88 42.52c-3.413-1.707-6.827-.853-9.387 1.707l-108.229 107.433c-7.936-10.402-19.265-17.788-31.717-21.247-31.573-8.533-64 8.533-73.387 39.253l-32.639 104.748-6.615-6.615c-3.413-3.413-8.533-3.413-11.947 0l-23.893 23.893c-3.413 3.413-3.413 8.533 0 11.947l9.011 9.011-81.544-9.864c-12.8-1.707-24.747 6.827-28.16 18.773l-39.253 145.068c-2.56 9.387-.853 19.627 4.267 28.16 5.973 7.68 14.507 13.653 23.893 15.36 2.56.853 4.267.853 5.973.853 14.507 0 28.16-9.387 33.28-24.747l31.573-100.693c.853-4.267 5.12-6.827 9.387-5.973l127.524 20.004 108.85 108.85c1.707 1.707 3.413 2.56 5.973 2.56 1.707 0 4.267-.853 5.973-2.56l23.893-23.893c3.413-3.413 3.413-8.533 0-11.947l-101.198-101.2 48.914-159.572 112.018-107.869c1.707-1.707 2.56-3.413 2.56-5.973v-47.787c0-3.413-1.707-6.827-5.12-7.68zm-327.68 320c-11.947-1.707-23.893 5.973-28.16 17.92l-31.573 100.693c-2.56 8.533-11.093 13.653-19.627 11.947-5.12-.853-9.387-3.413-11.947-7.68s-3.413-8.533-1.707-14.507l39.253-145.067c.853-3.413 5.12-5.973 8.533-5.973 0 0 .853 0 0-.853l103.253 12.8 46.933 46.933zm240.64 128-192.853-192.853 11.947-11.947 10.24 10.24 82.773 82.773 99.84 99.84zm-155.307-203.093 34.987-112.64c6.827-22.187 29.867-34.133 52.053-28.16 11.947 2.56 20.48 10.24 26.453 20.48s6.827 22.187 3.413 33.28l-47.787 156.16zm230.4-192.854-93.442 90.044c-.191-2.772-.561-5.534-1.129-8.273-.47-2.731-1.217-5.462-2.298-8.193-.126-.356-.259-.71-.392-1.065l97.26-96.407v23.894z"/></g></g></g><g/><g/><g/><g/><g/><g/><g/><g/><g/><g/><g/><g/><g/><g/><g/></svg>