<svg id="Layer_1" enable-background="new 0 0 512 512" viewBox="0 0 512 512" xmlns="http://www.w3.org/2000/svg"><g transform="translate(1 1)"><g><g><path d="m438.467-1c-28.16 0-51.2 23.04-51.2 51.2s23.04 51.2 51.2 51.2 51.2-23.04 51.2-51.2-23.04-51.2-51.2-51.2zm0 85.333c-18.773 0-34.133-15.36-34.133-34.133s15.36-34.133 34.133-34.133 34.133 15.36 34.133 34.133-15.36 34.133-34.133 34.133z"/><path d="m410.307 114.2c-30.72-7.68-62.293 8.533-72.533 38.4l-46.934 136.533c-1.707 5.12-7.68 8.533-12.8 7.68l-86.187-10.24c-12.8-1.707-24.747 5.973-28.16 17.92l-57.173 164.694c-2.56 11.093 0 22.187 7.68 29.867s17.067 11.946 26.453 11.946c3.413 0 5.973 0 8.533-.853 11.947-3.413 21.333-11.947 24.747-23.04l47.787-116.907c.853-4.267 5.12-6.827 9.387-5.973l128.853 17.92c13.653 1.707 27.307-6.827 31.573-19.627l58.88-171.52c5.973-15.36 4.267-32.427-3.413-46.933-7.68-14.507-20.48-25.6-36.693-29.867zm24.746 69.973-58.88 171.52c-1.707 5.12-6.827 8.533-12.8 7.68l-128.853-17.92c-12.8-1.707-24.747 5.973-28.16 17.067l-48.64 118.613c-1.707 5.973-6.827 10.24-12.8 11.947-6.827 1.707-12.8 0-18.773-5.973-3.413-2.56-4.267-8.533-3.413-12.8l57.173-165.547c.853-3.413 4.267-5.973 8.533-5.973 0 0 .853 0 1.707-.853l86.187 10.24c13.653 1.707 26.453-6.827 30.72-19.627l46.933-136.533c7.68-21.333 30.72-33.28 52.053-27.307 11.947 3.413 20.48 11.093 26.453 21.333 5.12 11.093 6.827 23.04 2.56 34.133z"/><path d="m173.933 195.267c0 3.413 1.707 6.827 5.12 7.68.853.853 2.56.853 3.413.853 2.56 0 4.267-.853 5.973-2.56l76.8-76.8c3.413-3.413 3.413-8.533 0-11.947l-76.8-76.8c-2.56-2.56-5.973-3.413-9.387-1.707-3.413.853-5.12 4.267-5.12 7.68v34.134h-145.065c-5.12 0-8.533 3.413-8.533 8.533v68.267c0 5.12 3.413 8.533 8.533 8.533h145.067v34.134zm-136.533-51.2v-51.2h145.067c5.12 0 8.533-3.413 8.533-8.533v-22.187l56.32 56.32-56.32 56.32v-22.187c0-5.12-3.413-8.533-8.533-8.533z"/></g></g></g><g/><g/><g/><g/><g/><g/><g/><g/><g/><g/><g/><g/><g/><g/><g/></svg>