<svg id="Layer_1" enable-background="new 0 0 512.035 512.035" viewBox="0 0 512.035 512.035" xmlns="http://www.w3.org/2000/svg"><g transform="translate(1 1)"><g><g><path d="m459.835-.983c-28.16 0-51.2 23.04-51.2 51.2s23.04 51.2 51.2 51.2 51.2-23.04 51.2-51.2-23.04-51.2-51.2-51.2zm0 85.334c-18.773 0-34.133-15.36-34.133-34.133s15.36-34.133 34.133-34.133 34.133 15.36 34.133 34.133-15.36 34.133-34.133 34.133z"/><path d="m431.675 114.217c-30.72-7.68-62.293 8.533-72.533 38.4l-46.933 136.533c-1.707 5.12-7.68 8.533-12.8 7.68l-86.187-10.24c-12.8-1.707-24.747 5.973-28.16 17.92l-57.173 164.693c-2.56 11.093 0 22.187 7.68 29.867s17.067 11.947 26.453 11.947c3.413 0 5.973 0 8.533-.853 11.947-3.413 21.333-11.947 24.747-23.04l47.787-116.907c.853-4.267 5.12-6.827 9.387-5.973l128.853 17.92c13.653 1.707 27.307-6.827 31.573-19.627l58.88-171.52c5.973-15.36 4.267-32.427-3.413-46.933-7.681-14.507-20.481-25.6-36.694-29.867zm24.746 69.974-58.88 171.52c-1.707 5.12-6.827 8.533-12.8 7.68l-128.853-17.92c-12.8-1.707-24.747 5.973-28.16 17.067l-48.64 118.613c-1.707 5.973-6.827 10.24-12.8 11.947-6.827 1.707-12.8 0-18.773-5.973-3.413-2.56-4.267-8.533-3.413-12.8l57.173-165.547c.853-3.413 4.267-5.973 8.533-5.973 0 0 .853 0 1.707-.853l86.187 10.24c13.653 1.707 26.453-6.827 30.72-19.627l46.933-136.533c7.68-21.333 30.72-33.28 52.053-27.307 11.947 3.413 20.48 11.093 26.453 21.333 5.12 11.093 6.827 23.039 2.56 34.133z"/><path d="m168.848 260.137c-.853-3.413-4.267-5.12-7.68-5.12h-34.133v-128c0-5.12-3.413-8.533-8.533-8.533h-68.267c-5.12 0-8.533 3.413-8.533 8.533v128h-34.134c-3.413 0-5.973 1.707-7.68 5.12s-.853 6.827 1.707 9.387l76.8 76.8c1.707 1.707 3.413 2.56 5.973 2.56s4.267-.853 5.973-2.56l76.8-76.8c2.56-2.56 2.56-5.973 1.707-9.387zm-84.48 68.267-56.32-56.32h22.187c5.12 0 8.533-3.413 8.533-8.533v-128h51.2v128c0 5.12 3.413 8.533 8.533 8.533h22.187z"/></g></g></g><g/><g/><g/><g/><g/><g/><g/><g/><g/><g/><g/><g/><g/><g/><g/></svg>