<svg id="Layer_1" enable-background="new 0 0 512.035 512.035" viewBox="0 0 512.035 512.035" xmlns="http://www.w3.org/2000/svg"><g transform="translate(1 1)"><g><g><path d="m455.616-.965c-28.16 0-51.2 23.04-51.2 51.2s23.04 51.2 51.2 51.2 51.2-23.04 51.2-51.2-23.04-51.2-51.2-51.2zm0 85.333c-18.773 0-34.133-15.36-34.133-34.133s15.36-34.133 34.133-34.133 34.133 15.36 34.133 34.133-15.359 34.133-34.133 34.133z"/><path d="m427.456 114.235c-30.72-7.68-62.293 8.533-72.533 38.4l-46.933 136.533c-1.707 5.12-7.68 8.533-12.8 7.68l-86.187-10.24c-12.8-1.707-24.747 5.973-28.16 17.92l-57.173 164.693c-2.56 11.093 0 22.187 7.68 29.867s17.067 11.947 26.453 11.947c3.413 0 5.973 0 8.533-.853 11.947-3.413 21.333-11.947 24.747-23.04l47.787-116.907c.853-4.267 5.12-6.827 9.387-5.973l128.853 17.92c13.653 1.707 27.307-6.827 31.573-19.627l58.88-171.52c5.973-15.36 4.267-32.427-3.413-46.933-7.68-14.507-20.48-25.601-36.694-29.867zm24.747 69.973-58.88 171.52c-1.707 5.12-6.827 8.533-12.8 7.68l-128.853-17.92c-12.8-1.707-24.747 5.973-28.16 17.067l-48.64 118.613c-1.707 5.973-6.827 10.24-12.8 11.947-6.827 1.707-12.8 0-18.773-5.973-3.413-2.56-4.267-8.533-3.413-12.8l57.173-165.547c.853-3.413 4.267-5.973 8.533-5.973 0 0 .853 0 1.707-.853l86.187 10.24c13.653 1.707 26.453-6.827 30.72-19.627l46.933-136.533c7.68-21.333 30.72-33.28 52.053-27.307 11.947 3.413 20.48 11.093 26.453 21.333 5.12 11.093 6.827 23.04 2.56 34.133z"/><path d="m97.216 127.035h128v34.133c0 3.413 1.707 6.827 5.12 7.68.853.853 2.56.853 3.413.853 2.56 0 4.267-.853 5.973-2.56l76.8-76.8c3.413-3.413 3.413-8.533 0-11.947l-76.8-76.8c-2.56-2.56-5.973-3.413-9.387-1.707-3.413.853-5.12 4.267-5.12 7.68v34.133h-128c-5.12 0-8.533 3.413-8.533 8.533v68.267c.001 5.121 3.414 8.535 8.534 8.535zm8.534-68.267h128c5.12 0 8.533-3.413 8.533-8.533v-22.187l56.32 56.32-56.32 56.32v-22.187c0-5.12-3.413-8.533-8.533-8.533h-128z"/><path d="m115.99 264.421c-.146-.146-.261-.322-.365-.509 8.145.202 16.306.646 24.478 1.318.159.32.347.61.634.898v.853c.853 1.707 1.707 3.413 2.56 5.12 2.56 5.12 5.12 11.093 5.12 17.067 0 11.947-11.093 24.747-14.507 28.16s-3.413 8.533 0 11.947c1.707 1.707 3.413 2.56 5.973 2.56 1.707 0 4.267-.853 6.827-2.56.853-.853 19.627-18.773 19.627-40.107 0-8.665-3.055-16.101-6.063-21.805 9.695 1.253 19.399 2.827 29.103 4.738 2.56 0 5.12 0 6.827-1.707s3.413-3.413 3.413-5.973l8.533-85.333c0-4.267-2.56-8.533-6.827-9.387-52.053-11.947-137.387-11.947-191.147 0-4.267.853-7.68 5.12-6.827 9.387l8.533 85.333c0 2.56 1.707 4.267 3.413 5.973 1.707.853 3.413 1.707 5.12 1.707h1.707c11.028-2.24 22.127-4.02 33.28-5.355v.235c.853 1.707 1.707 3.413 2.56 5.12 2.56 5.12 5.12 11.093 5.12 17.067 0 11.947-10.24 24.747-14.507 28.16-3.413 3.413-3.413 8.533 0 11.947 1.707 1.707 3.413 2.56 5.973 2.56 1.707 0 4.267-.853 5.973-2.56.853-.853 19.627-18.773 19.627-40.107 0-9.902-3.987-18.2-7.337-24.139 7.924-.612 15.872-.995 23.839-1.155.322.802.868 1.704 1.418 2.254v.853c.853 1.707 1.707 3.413 2.56 5.12 2.56 5.12 5.12 11.093 5.12 17.067 0 11.947-10.24 24.747-14.507 28.16-3.413 3.413-3.413 8.533 0 11.947 1.707 1.707 3.413 2.56 5.973 2.56 1.707 0 4.267-.853 6.827-2.56.853-.853 19.627-18.773 19.627-40.107.002-10.24-4.265-18.773-7.678-24.747zm-94.72-79.36c48.64-9.387 121.173-9.387 168.96 0l-6.827 68.267c-10.902-1.758-21.659-3.221-32.39-4.34-1.591-3.533-2.597-7.277-2.597-11.02 0-5.973 2.56-11.947 5.12-17.067.853-1.707 1.707-3.413 2.56-5.12 1.707-4.267 0-9.387-4.267-11.093-4.267-1.707-9.387 0-11.093 4.267 0 1.707-.853 2.56-1.707 4.267-3.413 5.973-7.68 14.507-7.68 24.747 0 3.344.46 6.501 1.192 9.451-8.352-.543-16.732-.852-25.192-.903-1-2.786-1.6-5.667-1.6-8.548 0-5.973 2.56-11.947 5.12-17.067.853-1.707 1.707-3.413 2.56-5.12 1.707-4.267 0-9.387-4.267-11.093-4.267-1.707-9.387 0-11.093 4.267 0 1.707-.853 2.56-1.707 4.267-3.413 5.973-7.68 14.507-7.68 24.747 0 3.11.397 6.059 1.041 8.83-8.097.309-16.194.858-24.291 1.619-1.445-3.365-2.35-6.906-2.35-10.45 0-5.973 2.56-11.947 5.12-17.067.853-1.707 1.707-3.413 2.56-5.12 1.707-4.267 0-9.387-4.267-11.093-4.267-1.707-9.387 0-11.093 4.267 0 1.707-.853 2.56-1.707 4.267-3.413 5.973-7.68 14.507-7.68 24.747 0 4.484.818 8.641 2.025 12.399-6.648.863-13.297 1.853-19.945 2.961z"/></g></g></g><g/><g/><g/><g/><g/><g/><g/><g/><g/><g/><g/><g/><g/><g/><g/></svg>