<svg id="Layer_1" enable-background="new 0 0 511.573 511.573" viewBox="0 0 511.573 511.573" xmlns="http://www.w3.org/2000/svg"><g transform="translate(1 1)"><g><g><path d="m228.76 156.653c-5.12 0-8.533 3.413-8.533 8.533v179.2c0 5.12 3.413 8.533 8.533 8.533s8.533-3.413 8.533-8.533v-179.2c0-5.119-3.413-8.533-8.533-8.533z"/><path d="m279.96 156.653c-5.12 0-8.533 3.413-8.533 8.533v179.2c0 5.12 3.413 8.533 8.533 8.533s8.533-3.413 8.533-8.533v-179.2c0-5.119-3.413-8.533-8.533-8.533z"/><path d="m508.653 253.933-85.333-102.4c-2.56-2.56-5.973-3.413-9.387-2.56s-5.973 4.267-5.973 7.68v51.2h-85.333c-5.12 0-8.533 3.413-8.533 8.533v76.8c0 5.12 3.413 8.533 8.533 8.533h85.333v51.2c0 3.413 2.56 6.827 5.12 7.68 1.707.853 2.56.853 3.413.853 2.56 0 4.267-.853 6.827-2.56l85.333-93.867c2.56-3.412 2.56-7.678 0-11.092zm-83.626 76.8v-37.547c0-5.12-3.413-8.533-8.533-8.533h-85.334v-59.733h85.333c5.12 0 8.533-3.413 8.533-8.533v-35.84l65.707 78.507z"/><path d="m186.093 207.853h-85.333v-51.2c0-3.413-2.56-6.827-5.973-7.68-3.413-1.707-6.827-.853-8.533 2.56l-85.334 102.4c-2.56 3.413-2.56 7.68 0 11.093l85.333 93.867c1.707 1.707 3.413 2.56 5.973 2.56.853 0 1.707 0 3.413-.853 2.56-.853 5.12-4.267 5.12-7.68v-51.2h85.333c5.12 0 8.533-3.413 8.533-8.533v-76.8c.002-5.12-3.412-8.534-8.532-8.534zm-8.533 76.8h-85.333c-5.12 0-8.533 3.413-8.533 8.533v37.547l-65.707-71.68 65.707-78.507v35.84c0 5.12 3.413 8.533 8.533 8.533h85.333z"/></g></g></g><g/><g/><g/><g/><g/><g/><g/><g/><g/><g/><g/><g/><g/><g/><g/></svg>