<svg id="Layer_1" enable-background="new 0 0 512 512" viewBox="0 0 512 512" xmlns="http://www.w3.org/2000/svg"><g transform="translate(1 1)"><g><g><path d="m502.467 63h-366.934c-7.68 0-15.36 3.413-20.48 9.387l-108.373 115.2c-5.12 5.12-7.68 12.8-7.68 19.627v69.12 162.133c0 5.12 3.413 8.533 8.533 8.533h494.933c5.12 0 8.533-3.413 8.533-8.533v-162.134-153.6-51.2c.001-5.12-3.412-8.533-8.532-8.533zm-8.534 204.8h-426.666v-29.867c0-2.56.853-5.973 3.413-7.68l88.747-95.573c2.56-1.707 5.12-3.413 8.533-3.413h325.973zm-477.866-60.587c0-2.56.853-5.12 3.413-7.68l107.52-116.053c2.56-1.707 5.12-3.413 8.533-3.413h358.4v34.133h-325.973c-8.533 0-16.213 3.413-21.333 9.387l-88.747 94.72c-5.12 5.12-7.68 12.8-7.68 19.627v29.866h-34.133zm477.866 222.72h-477.866v-145.066h42.667 435.2v145.066z"/><path d="m229.4 353.133c2.56 0 4.267-.853 5.973-2.56l11.093-11.093v56.32c0 5.12 3.413 8.533 8.533 8.533s8.533-3.413 8.533-8.533v-56.32l11.093 11.093c1.707 1.707 3.413 2.56 5.973 2.56s4.267-.853 5.973-2.56c3.413-3.413 3.413-8.533 0-11.947l-24.14-24.14c-1.395-2.509-4.034-4.02-7.434-4.02s-6.038 1.511-7.434 4.02l-24.14 24.14c-3.413 3.413-3.413 8.533 0 11.947 1.71 1.707 3.417 2.56 5.977 2.56z"/></g></g></g><g/><g/><g/><g/><g/><g/><g/><g/><g/><g/><g/><g/><g/><g/><g/></svg>