<svg id="Layer_1" enable-background="new 0 0 512 512" viewBox="0 0 512 512" xmlns="http://www.w3.org/2000/svg"><g transform="translate(1 1)"><g><g><path d="m502.467 63h-366.934c-7.68 0-15.36 3.413-20.48 9.387l-108.373 115.2c-5.12 5.12-7.68 12.8-7.68 19.627v69.12 162.133c0 5.12 3.413 8.533 8.533 8.533h494.933c5.12 0 8.533-3.413 8.533-8.533v-162.134-.853-93.867-110.08c.001-5.12-3.412-8.533-8.532-8.533zm-8.534 204.8h-402.773l68.267-73.387c2.56-1.707 5.12-3.413 8.533-3.413h325.973zm-477.866-60.587c0-2.56.853-5.12 3.413-7.68l107.52-116.053c2.56-1.707 5.12-3.413 8.533-3.413h358.4v93.013h-325.973c-7.68 0-15.36 3.413-20.48 9.387l-79.534 85.333h-51.879zm477.866 222.72h-477.866v-145.066h55.467 422.4v145.066z"/><path d="m247.566 400.313c1.395 2.509 4.034 4.02 7.434 4.02s6.038-1.511 7.434-4.02l24.14-24.14c3.413-3.413 3.413-8.533 0-11.947-3.413-3.413-8.533-3.413-11.947 0l-11.093 11.093v-56.319c0-5.12-3.413-8.533-8.533-8.533s-8.533 3.413-8.533 8.533v56.32l-11.093-11.093c-3.413-3.413-8.533-3.413-11.947 0-3.413 3.413-3.413 8.533 0 11.947z"/></g></g></g><g/><g/><g/><g/><g/><g/><g/><g/><g/><g/><g/><g/><g/><g/><g/></svg>