<svg id="Layer_1" enable-background="new 0 0 512 512" viewBox="0 0 512 512" xmlns="http://www.w3.org/2000/svg"><g transform="translate(1 1)"><g><path d="m502.467 186.733h-34.133c-3.413 0-6.827 2.56-7.68 5.973l-23.893 70.827h-23.04l-23.04-38.4c-1.707-2.56-4.267-4.267-7.68-4.267h-34.133v-25.6c0-5.12-3.413-8.533-8.533-8.533h-59.735v-34.133h25.6c5.12 0 8.533-3.413 8.533-8.533v-51.2c0-5.12-3.413-8.533-8.533-8.533h-153.6c-5.12 0-8.533 3.413-8.533 8.533v51.2c0 5.12 3.413 8.533 8.533 8.533h25.6v34.133h-68.267c-2.56 0-4.267.853-5.973 2.56s-2.56 3.413-2.56 5.973v25.6h-59.733c-5.12 0-8.533 3.413-8.533 8.533v51.2h-17.067v-25.599c0-5.12-3.413-8.533-8.533-8.533s-8.534 3.413-8.534 8.533v68.267c0 5.12 3.413 8.533 8.533 8.533s8.533-3.413 8.533-8.533v-25.6h17.067v68.267c0 5.12 3.413 8.533 8.533 8.533h64l31.573 47.787c1.707 1.707 4.267 3.413 6.827 3.413h238.934c3.413 0 5.973-1.707 7.68-5.12l23.04-46.08h23.893l23.04 46.08c1.707 3.413 4.267 5.12 7.68 5.12h34.133c5.12 0 8.533-3.413 8.533-8.533v-221.867c.001-5.12-3.412-8.534-8.532-8.534zm-341.334-85.333h136.533v34.133h-25.6-85.333-25.6zm34.134 51.2h68.267v34.133h-68.267zm-145.067 204.8v-119.467h51.2v119.467zm326.827 51.2h-228.694l-29.867-45.204v-133.996-25.6h68.267 85.333 59.734v25.6c0 5.12 3.413 8.533 8.533 8.533h37.547l22.187 36.978v87.609zm40.106-51.2v-76.8h17.067v76.8zm76.8 51.2h-20.48l-22.187-42.789v-93.714l23.04-68.297h19.627z"/></g></g><g/><g/><g/><g/><g/><g/><g/><g/><g/><g/><g/><g/><g/><g/><g/></svg>