<svg id="Layer_1" enable-background="new 0 0 501.692 501.692" viewBox="0 0 501.692 501.692" xmlns="http://www.w3.org/2000/svg"><g transform="translate(1 1)"><g><g><path d="m470.859 191.924-60.587-17.067c-49.115-11.675-99.94-17.836-151.04-18.495v-.279c0-5.12-3.413-8.533-8.533-8.533s-8.533 3.413-8.533 8.533v.27c-51.572.572-103.262 6.731-153.6 18.504l-59.733 16.213c-20.48 5.973-33.28 26.453-29.013 46.933l46.08 244.053c.853 2.56 1.707 5.12 4.267 5.973s5.12.853 7.68 0c124.587-44.373 261.973-44.373 386.56 0 .853.853 1.707.853 2.56.853 1.707 0 2.56 0 4.267-.853 2.56-1.707 3.413-3.413 4.267-5.973l44.373-243.2c4.265-20.478-8.535-40.959-29.015-46.932zm12.8 41.813-43.52 234.667c-61.44-20.48-125.44-30.72-189.44-30.72s-128 10.24-190.293 30.72l-43.52-234.667c-1.707-11.947 5.12-23.893 17.067-27.307l59.733-16.213c48.771-11.286 98.684-17.234 148.48-17.858v34.925c0 5.12 3.413 8.533 8.533 8.533s8.533-3.413 8.533-8.533v-34.928c49.894.596 99.526 6.543 147.627 17.861l59.733 16.213c11.947 3.414 19.627 15.361 17.067 27.307z"/><path d="m250.699 284.084c-5.12 0-8.533 3.413-8.533 8.533v17.067c0 5.12 3.413 8.533 8.533 8.533s8.533-3.413 8.533-8.533v-17.067c.001-5.12-3.413-8.533-8.533-8.533z"/><path d="m250.699 335.284c-5.12 0-8.533 3.413-8.533 8.533v17.067c0 5.12 3.413 8.533 8.533 8.533s8.533-3.413 8.533-8.533v-17.067c.001-5.119-3.413-8.533-8.533-8.533z"/><path d="m250.699 232.884c-5.12 0-8.533 3.413-8.533 8.533v17.067c0 5.12 3.413 8.533 8.533 8.533s8.533-3.413 8.533-8.533v-17.067c.001-5.12-3.413-8.533-8.533-8.533z"/><path d="m441.846 90.377c.853 3.413 4.267 5.973 7.68 5.973.853 0 2.56 0 2.56-.853 4.267-1.707 6.827-6.827 5.12-11.093-5.973-17.92-17.067-33.28-30.72-46.08-3.413-3.413-8.533-2.56-11.947.853-3.413 3.413-2.56 8.533.853 11.947 11.947 11.093 21.334 23.893 26.454 39.253z"/><path d="m345.419 28.084c13.653-.853 26.453.853 39.253 5.12.853.853 1.707.853 2.56.853 3.413 0 6.827-2.56 7.68-5.973 1.707-4.267-.853-9.387-5.12-11.093-14.507-5.12-30.72-6.827-46.08-5.973-4.267.853-7.68 4.267-7.68 9.387.854 4.266 5.121 7.679 9.387 7.679z"/><path d="m277.153 62.217c1.707 0 4.267-.853 5.973-2.56 9.387-10.24 20.48-18.773 32.427-23.893 4.267-1.707 5.973-6.827 4.267-11.093-1.707-4.267-6.827-5.973-11.093-4.267-14.507 5.973-28.16 15.36-38.4 27.307-2.56 3.413-2.56 8.533.853 11.947 1.706 1.706 4.266 2.559 5.973 2.559z"/><path d="m233.633 82.697c5.973 12.8 8.533 25.6 8.533 39.253 0 5.12 3.413 8.533 8.533 8.533s8.533-3.413 8.533-8.533c0-13.653 2.56-27.307 8.533-39.253 1.707-4.267 0-9.387-4.267-11.093-4.267-1.707-9.387 0-11.093 4.267-.598 1.271-1.161 2.552-1.707 3.836-.546-1.285-1.108-2.565-1.707-3.836-1.707-4.267-6.827-5.973-11.093-4.267s-5.972 6.827-4.265 11.093z"/><path d="m48.459 95.497c.853.853 2.56.853 3.413.853 3.413 0 6.827-2.56 7.68-5.973 5.12-14.507 14.507-28.16 25.6-38.4 3.413-3.413 4.267-8.533.853-11.947s-8.533-4.267-11.947-.853c-13.653 11.947-24.747 28.16-30.72 46.08-1.705 4.267.855 9.387 5.121 10.24z"/><path d="m114.166 34.057c.853 0 1.707 0 2.56-.853 12.8-4.267 26.453-5.973 39.253-5.12 5.12.853 9.387-3.413 9.387-7.68.853-5.12-2.56-9.387-7.68-9.387-15.36-.853-31.573.853-46.08 5.973-4.267 1.707-6.827 6.827-5.12 11.093.853 3.414 4.267 5.974 7.68 5.974z"/><path d="m185.846 35.764c11.947 5.973 23.893 13.653 32.427 23.893 1.707 1.707 3.413 2.56 5.973 2.56s4.267-.853 5.973-2.56c3.413-3.413 4.267-8.533.853-11.947-11.093-11.093-23.893-21.333-38.4-27.307-4.267-1.707-9.387 0-11.093 4.267s0 9.387 4.267 11.094z"/></g></g></g><g/><g/><g/><g/><g/><g/><g/><g/><g/><g/><g/><g/><g/><g/><g/></svg>