<svg id="Layer_1" enable-background="new 0 0 512 512" viewBox="0 0 512 512" xmlns="http://www.w3.org/2000/svg"><g transform="translate(1 1)"><g><g><path d="m425.667 230.253v-43.52c0-5.12-3.413-8.533-8.533-8.533h-332.8c-5.12 0-8.533 3.413-8.533 8.533v34.133h-68.268c-5.12.001-8.533 3.414-8.533 8.534v51.2c0 5.12 3.413 8.533 8.533 8.533h68.267v34.133c0 5.12 3.413 8.533 8.533 8.533h332.8c5.12 0 8.533-3.413 8.533-8.533v-41.813c14.507 3.413 33.28 15.36 34.133 41.813 0 5.12 4.267 8.533 8.533 8.533h34.133c2.56 0 4.267-.853 5.973-2.56 1.707-1.707 2.56-3.413 2.56-5.973-.851-53.759-43.518-88.746-85.331-93.013zm50.346 84.48c-5.12-34.987-37.547-51.2-58.88-51.2-5.12 0-8.533 3.413-8.533 8.533v42.667h-315.733v-34.133c0-5.12-3.413-8.533-8.533-8.533h-68.267v-34.133h68.267c5.12 0 8.533-3.413 8.533-8.533v-34.133h315.733v42.667c0 5.12 3.413 8.533 8.533 8.533 28.16 0 69.973 21.333 75.947 68.267h-17.067z"/><path d="m127 212.333c-5.12 0-8.533 3.413-8.533 8.533s3.413 8.533 8.533 8.533 8.533-3.413 8.533-8.533c0-5.119-3.413-8.533-8.533-8.533z"/><path d="m152.6 246.467c-5.12 0-8.533 3.413-8.533 8.533s3.413 8.533 8.533 8.533 8.533-3.413 8.533-8.533-3.413-8.533-8.533-8.533z"/><path d="m178.2 212.333c-5.12 0-8.533 3.413-8.533 8.533s3.413 8.533 8.533 8.533 8.533-3.413 8.533-8.533c0-5.119-3.413-8.533-8.533-8.533z"/><path d="m203.8 246.467c-5.12 0-8.533 3.413-8.533 8.533s3.413 8.533 8.533 8.533 8.533-3.413 8.533-8.533-3.413-8.533-8.533-8.533z"/><path d="m229.4 212.333c-5.12 0-8.533 3.413-8.533 8.533s3.413 8.533 8.533 8.533 8.533-3.413 8.533-8.533c0-5.119-3.413-8.533-8.533-8.533z"/><path d="m255 246.467c-5.12 0-8.533 3.413-8.533 8.533s3.413 8.533 8.533 8.533 8.533-3.413 8.533-8.533-3.413-8.533-8.533-8.533z"/><path d="m280.6 212.333c-5.12 0-8.533 3.413-8.533 8.533s3.413 8.533 8.533 8.533 8.533-3.413 8.533-8.533c0-5.119-3.413-8.533-8.533-8.533z"/><path d="m306.2 246.467c-5.12 0-8.533 3.413-8.533 8.533s3.413 8.533 8.533 8.533 8.533-3.413 8.533-8.533-3.413-8.533-8.533-8.533z"/><path d="m331.8 212.333c-5.12 0-8.533 3.413-8.533 8.533s3.413 8.533 8.533 8.533 8.533-3.413 8.533-8.533c0-5.119-3.413-8.533-8.533-8.533z"/><path d="m357.4 246.467c-5.12 0-8.533 3.413-8.533 8.533s3.413 8.533 8.533 8.533 8.533-3.413 8.533-8.533-3.413-8.533-8.533-8.533z"/><path d="m374.467 212.333c-5.12 0-8.533 3.413-8.533 8.533s3.413 8.533 8.533 8.533 8.533-3.413 8.533-8.533c0-5.119-3.413-8.533-8.533-8.533z"/><path d="m374.467 280.6c-5.12 0-8.533 3.413-8.533 8.533s3.413 8.533 8.533 8.533 8.533-3.413 8.533-8.533-3.413-8.533-8.533-8.533z"/><path d="m331.8 280.6c-5.12 0-8.533 3.413-8.533 8.533s3.413 8.533 8.533 8.533 8.533-3.413 8.533-8.533-3.413-8.533-8.533-8.533z"/><path d="m280.6 280.6c-5.12 0-8.533 3.413-8.533 8.533s3.413 8.533 8.533 8.533 8.533-3.413 8.533-8.533-3.413-8.533-8.533-8.533z"/><path d="m229.4 280.6c-5.12 0-8.533 3.413-8.533 8.533s3.413 8.533 8.533 8.533 8.533-3.413 8.533-8.533-3.413-8.533-8.533-8.533z"/><path d="m178.2 280.6c-5.12 0-8.533 3.413-8.533 8.533s3.413 8.533 8.533 8.533 8.533-3.413 8.533-8.533-3.413-8.533-8.533-8.533z"/><path d="m127 280.6c-5.12 0-8.533 3.413-8.533 8.533s3.413 8.533 8.533 8.533 8.533-3.413 8.533-8.533-3.413-8.533-8.533-8.533z"/></g></g></g><g/><g/><g/><g/><g/><g/><g/><g/><g/><g/><g/><g/><g/><g/><g/></svg>