<svg id="Layer_1" enable-background="new 0 0 511.573 511.573" viewBox="0 0 511.573 511.573" xmlns="http://www.w3.org/2000/svg"><g transform="translate(1 1)"><g><g><path d="m254.787 67.053c-103.253 0-187.733 84.48-187.733 187.733s84.48 187.733 187.733 187.733 187.733-84.479 187.733-187.732-84.48-187.734-187.733-187.734zm0 358.4c-93.867 0-170.667-76.8-170.667-170.667s76.8-170.666 170.667-170.666 170.667 76.8 170.667 170.667-76.801 170.666-170.667 170.666z"/><path d="m85.827 85.827c3.413-3.413 3.413-8.533 0-11.947s-8.533-3.413-11.947 0c-99.84 99.84-99.84 261.973 0 361.813 1.707 1.707 3.413 2.56 5.973 2.56s4.267-.853 5.973-2.56c3.413-3.413 3.413-8.533 0-11.947-93.013-93.013-93.013-244.906.001-337.919z"/><path d="m435.693 73.88c-3.413-3.413-8.533-3.413-11.947 0s-3.413 8.533 0 11.947c93.013 93.013 93.013 244.907 0 337.92-3.413 3.413-3.413 8.533 0 11.947 1.707 1.707 3.413 2.56 5.973 2.56s4.267-.853 5.973-2.56c99.841-99.841 99.841-261.974.001-361.814z"/><path d="m254.787 305.987c14.507 0 25.6-11.093 25.6-25.6v-145.067c0-14.507-11.093-25.6-25.6-25.6s-25.6 11.093-25.6 25.6v145.067c0 14.506 11.093 25.6 25.6 25.6zm-8.534-170.667c0-5.12 3.413-8.533 8.533-8.533s8.533 3.413 8.533 8.533v145.067c0 5.12-3.413 8.533-8.533 8.533s-8.533-3.413-8.533-8.533z"/><path d="m254.787 331.587c-18.773 0-34.133 15.36-34.133 34.133s15.36 34.133 34.133 34.133 34.133-15.36 34.133-34.133-15.36-34.133-34.133-34.133zm0 51.2c-9.387 0-17.067-7.68-17.067-17.067s7.68-17.067 17.067-17.067 17.067 7.68 17.067 17.067-7.681 17.067-17.067 17.067z"/></g></g></g><g/><g/><g/><g/><g/><g/><g/><g/><g/><g/><g/><g/><g/><g/><g/></svg>