<svg id="Layer_1" enable-background="new 0 0 503.621 503.621" viewBox="0 0 503.621 503.621" xmlns="http://www.w3.org/2000/svg"><g transform="translate(1 1)"><g><path d="m477.484 121.104-65.707-17.92c-5.581-1.395-11.162-2.774-16.743-3.237l-1.177-1.883c-5.973-9.387-11.947-18.773-17.067-29.013l-15.36-30.72c-1.707-3.413-4.267-5.12-7.68-5.12s-5.973 1.707-8.533 4.267l-11.947 24.746c-3.963 8.493-8.308 17.36-13.522 25.856-77.371-7.671-153.931-2.377-229.678 15.104l-65.707 17.92c-17.067 5.12-28.16 22.187-24.747 39.253l46.934 250.027c.853 2.56 1.707 5.12 4.267 5.973 1.707.853 2.56.853 4.267.853h3.413c53.871-19.187 110.136-30.07 166.724-32.664l6.889 21.584c-8.975 6.166-14.892 16.497-14.892 28.147 0 18.773 15.36 34.133 34.133 34.133s34.133-15.36 34.133-34.133-15.36-34.133-34.133-34.133c-1.007 0-2.002.053-2.988.14l-5.196-16.281c68.357-1.015 136.867 10.049 201.89 33.208 1.707.853 4.267 0 6.827-.853 2.56-1.707 3.413-3.413 4.267-5.973l46.08-250.027c2.559-17.068-7.681-34.988-24.747-39.254zm-209.067 313.173c0 9.387-7.68 17.067-17.067 17.067s-17.067-7.68-17.067-17.067 7.68-17.067 17.067-17.067 17.067 7.68 17.067 17.067zm81.067-364.373 4.267-9.387 7.68 15.36c5.12 11.093 11.947 20.48 17.92 30.72l1.794 2.69c.271 1.516.859 2.996 1.62 4.136 3.413 5.12 5.12 10.24 5.12 15.36 0 9.269-4.203 17.831-10.694 24.436-.41.395-.826.785-1.252 1.164-8.533 6.827-18.773 9.387-29.013 6.827-16.213-3.413-27.307-18.773-26.453-35.84 0-5.12 1.707-9.387 5.12-13.653 9.384-13.653 17.064-28.16 23.891-41.813zm136.533 87.04-45.227 239.786c-61.44-20.48-125.44-30.72-189.44-30.72-4.623 0-9.246.065-13.868.18l-63.785-199.86c-1.707-4.267-6.827-6.827-11.093-5.12s-6.827 6.827-5.12 11.093l62.112 194.617c-53.353 3.025-106.41 13.572-157.685 30.664l-45.227-239.787c-1.707-8.533 3.413-17.067 11.947-19.627l65.707-17.92c70.484-16.135 141.814-21.279 213.988-15.442-2.156 3.738-3.661 7.71-4.637 11.913-.519 1.938-.87 3.941-1.032 6.009-.036.311-.074.62-.106.933-.108 1.624-.139 3.237-.099 4.836-.036 13.179 5.433 25.434 14.293 34.519.189.198.379.395.571.589.073.072.146.144.22.216 6.707 6.711 15.307 11.569 25.122 13.599 16.213 3.413 31.573-.853 43.52-10.24 11.947-10.24 18.773-24.747 18.773-40.107 0-2.387-.009-5.506-.701-7.993-.033-.179-.062-.358-.097-.536 1.668.019 2.524.85 4.211.85l65.707 17.92c8.533 2.561 13.653 11.094 11.946 19.628z"/></g></g><g/><g/><g/><g/><g/><g/><g/><g/><g/><g/><g/><g/><g/><g/><g/></svg>