<svg id="Layer_1" enable-background="new 0 0 512 512" viewBox="0 0 512 512" xmlns="http://www.w3.org/2000/svg"><g transform="translate(1 1)"><g><g><path d="m340.333 117.098v-109.565c0-5.12-3.413-8.533-8.533-8.533h-153.6c-5.12 0-8.533 3.413-8.533 8.533v109.564c-46.108 28.576-76.8 79.624-76.8 137.902 0 89.6 72.533 162.133 162.133 162.133s162.133-72.532 162.133-162.132c0-58.278-30.691-109.327-76.8-137.902zm-153.6-101.031h136.533v91.822c-20.745-9.635-43.87-15.022-68.266-15.022s-47.521 5.387-68.267 15.022zm68.267 384c-80.213 0-145.067-64.853-145.067-145.067 0-52.913 28.225-99.137 70.46-124.476.727-.213 1.428-.534 2.074-.964 44.373-25.6 100.693-25.6 145.067 0 .539.269.989.447 1.411.573 42.601 25.251 71.122 71.678 71.122 124.867 0 80.213-64.854 145.067-145.067 145.067z"/><path d="m75.8 255c0-5.12-3.413-8.533-8.533-8.533h-59.734c-5.12 0-8.533 3.413-8.533 8.533s3.413 8.533 8.533 8.533h59.733c5.121 0 8.534-3.413 8.534-8.533z"/><path d="m502.467 246.467h-59.733c-5.12 0-8.533 3.413-8.533 8.533s3.413 8.533 8.533 8.533h59.733c5.12 0 8.533-3.413 8.533-8.533s-3.413-8.533-8.533-8.533z"/><path d="m255 434.2c-5.12 0-8.533 3.413-8.533 8.533v59.733c0 5.12 3.413 8.533 8.533 8.533s8.533-3.413 8.533-8.533v-59.733c0-5.12-3.413-8.533-8.533-8.533z"/><path d="m112.493 385.56-42.667 42.667c-3.413 3.413-3.413 8.533 0 11.947 1.707 1.707 3.413 2.56 5.973 2.56s4.267-.853 5.973-2.56l42.667-42.667c3.413-3.413 3.413-8.533 0-11.947-3.412-3.413-8.532-3.413-11.946 0z"/><path d="m391.533 127c2.56 0 4.267-.853 5.973-2.56l42.667-42.667c3.413-3.413 3.413-8.533 0-11.947-3.413-3.413-8.533-3.413-11.947 0l-42.667 42.667c-3.413 3.413-3.413 8.533 0 11.947 1.708 1.707 3.414 2.56 5.974 2.56z"/><path d="m397.507 385.56c-3.413-3.413-8.533-3.413-11.947 0-3.413 3.413-3.413 8.533 0 11.947l42.667 42.667c1.707 1.707 3.413 2.56 5.973 2.56s4.267-.853 5.973-2.56c3.413-3.413 3.413-8.533 0-11.947z"/><path d="m112.493 124.44c1.707 1.707 3.413 2.56 5.973 2.56s4.267-.853 5.973-2.56c3.413-3.413 3.413-8.533 0-11.947l-42.666-42.666c-3.413-3.413-8.533-3.413-11.947 0s-3.413 8.533 0 11.947z"/><path d="m255 152.6c-5.12 0-8.533 3.413-8.533 8.533v128c0 5.12 3.413 8.533 8.533 8.533s8.533-3.413 8.533-8.533v-128c0-5.12-3.413-8.533-8.533-8.533z"/><path d="m255 323.267c-5.12 0-8.533 3.413-8.533 8.533s3.413 8.533 8.533 8.533 8.533-3.413 8.533-8.533-3.413-8.533-8.533-8.533z"/></g></g></g><g/><g/><g/><g/><g/><g/><g/><g/><g/><g/><g/><g/><g/><g/><g/></svg>