<svg id="Layer_1" enable-background="new 0 0 511.573 511.573" viewBox="0 0 511.573 511.573" xmlns="http://www.w3.org/2000/svg"><g transform="translate(1 1)"><g><g><path d="m254.787 67.053c-103.253 0-187.733 84.48-187.733 187.733s84.48 187.733 187.733 187.733 187.733-84.479 187.733-187.732-84.48-187.734-187.733-187.734zm0 358.4c-93.867 0-170.667-76.8-170.667-170.667s76.8-170.666 170.667-170.666 170.667 76.8 170.667 170.667-76.801 170.666-170.667 170.666z"/><path d="m85.827 85.827c3.413-3.413 3.413-8.533 0-11.947s-8.533-3.413-11.947 0c-99.84 99.84-99.84 261.973 0 361.813 1.707 1.707 3.413 2.56 5.973 2.56s4.267-.853 5.973-2.56c3.413-3.413 3.413-8.533 0-11.947-93.013-93.013-93.013-244.906.001-337.919z"/><path d="m435.693 73.88c-3.413-3.413-8.533-3.413-11.947 0s-3.413 8.533 0 11.947c93.013 93.013 93.013 244.907 0 337.92-3.413 3.413-3.413 8.533 0 11.947 1.707 1.707 3.413 2.56 5.973 2.56s4.267-.853 5.973-2.56c99.841-99.841 99.841-261.974.001-361.814z"/><path d="m271.853 160.92h-51.2c-5.12 0-8.533 3.413-8.533 8.533v102.4 85.333c0 5.12 3.413 8.533 8.533 8.533s8.533-3.413 8.533-8.533v-76.8h42.667c33.28 0 59.733-26.453 59.733-59.733.001-33.28-26.453-59.733-59.733-59.733zm0 102.4h-42.667v-85.333h42.667c23.893 0 42.667 18.773 42.667 42.667 0 23.893-18.773 42.666-42.667 42.666z"/></g></g></g><g/><g/><g/><g/><g/><g/><g/><g/><g/><g/><g/><g/><g/><g/><g/></svg>