<svg id="Layer_1" enable-background="new 0 0 512 512" viewBox="0 0 512 512" xmlns="http://www.w3.org/2000/svg"><g transform="translate(1 1)"><g><g><path d="m63 295.107 20.48 20.48c7.195 7.849 16.4 13.179 26.453 15.246v51.924l-30.72-6.583c-9.387-2.56-18.773 3.413-20.48 12.8l-3.413 17.066c-.853 4.267 0 8.533 2.56 12.8s6.827 6.827 11.093 7.68l83.627 17.92h3.413c3.413 0 6.827-.853 9.387-1.707 4.267-2.56 6.827-6.827 7.68-11.093l3.413-17.067c.853-4.267 0-9.387-2.56-12.8-2.56-4.267-6.827-6.827-11.093-7.68l-35.84-7.68v-55.34c10.12-1.889 19.804-7.474 27.307-16.34l20.48-20.48c10.375-8.3 16.823-18.844 18.895-30.72h121.646c2.014 11.923 9.251 22.958 20.739 31.573l20.48 20.48c7.195 7.849 16.4 13.179 26.453 15.246v52.168h-34.133c-9.387 0-17.067 7.68-17.067 17.067v17.067c0 9.387 7.68 17.067 17.067 17.067h85.333c9.387 0 17.067-7.68 17.067-17.067v-17.067c0-9.387-7.68-17.067-17.067-17.067h-34.133v-51.927c10.12-1.889 19.804-7.474 27.307-16.34l20.48-20.48c12.8-10.24 19.627-23.893 19.627-39.253s-6.827-29.867-19.627-40.107l-20.48-20.48c-7.398-8.071-16.921-13.476-27.307-15.41v-52.003h34.133c9.387 0 17.067-7.68 17.067-17.067v-17.066c0-9.387-7.68-17.067-17.067-17.067h-85.333c-9.387 0-17.067 7.68-17.067 17.067v17.067c0 9.387 7.68 17.067 17.067 17.067h34.133v52.023c-10.12 1.951-19.079 7.346-26.453 15.39l-20.48 20.48c-11.267 8.616-17.881 19.809-20.282 31.573h-122.087c-2.057-12.12-8.513-23.255-18.911-31.573l-20.48-20.48c-7.398-8.071-16.921-13.476-27.307-15.41v-61.024l34.133 7.314h3.413c3.413 0 6.827-.853 10.24-2.56 4.267-2.56 6.827-6.827 7.68-11.093l3.413-17.067c.853-4.267 0-9.387-2.56-12.8-2.56-4.267-6.827-6.827-11.093-7.68l-83.626-17.921c-4.267-.853-9.387 0-12.8 2.56-4.267 2.56-6.827 6.827-7.68 11.093l-3.413 17.067c-2.56 9.387 3.413 18.773 12.8 20.48l32.427 6.949v64.701c-10.12 1.951-19.079 7.346-26.453 15.39l-20.481 20.48c-14.507 11.093-21.333 26.453-21.333 41.813 0 14.507 7.68 29.014 21.333 38.401zm93.013 132.266-83.627-17.067 3.414-17.066 39.771 8.117c.524.159 1.077.271 1.658.338l42.198 8.612zm278.187-10.24h-85.333v-17.067h85.333zm-85.333-324.266h85.333v17.067h-85.333zm-264.534-18.774 83.627 17.92-3.413 17.067-40.979-8.781c-1.376-.935-3.106-1.459-5.101-1.459-.449 0-.88.035-1.302.087l-36.245-7.767zm262.827 153.6.853-.853 21.333-21.333c5.973-6.827 14.507-10.24 23.04-10.24s17.067 3.413 23.893 10.24l21.333 21.333c8.533 7.68 13.653 17.92 13.653 28.16 0 9.387-5.12 19.627-13.653 26.453-.853.853-.853.853-.853.853l-21.333 21.333c-6.827 7.68-15.36 11.093-23.893 11.093s-16.213-4.267-23.04-11.093l-21.333-21.333-.853-.853c-9.387-6.827-14.507-16.213-14.507-25.6 0-10.24 5.12-20.48 15.36-28.16zm-273.067 0 .853-.853 21.333-21.333c5.973-6.827 14.507-10.24 23.04-10.24s17.067 3.413 23.893 10.24l21.333 21.333c8.533 7.68 13.653 17.92 13.653 28.16 0 9.387-5.12 19.627-13.653 26.453-.853.853-.853.853-.853.853l-21.332 21.334c-6.827 7.68-15.36 11.093-23.893 11.093s-16.213-4.267-23.04-11.093l-21.333-21.333-.853-.853c-9.387-6.827-14.507-16.213-14.507-25.6-.001-10.241 5.119-19.627 15.359-28.161z"/><path d="m502.467 24.6h-494.934c-5.12 0-8.533 3.413-8.533 8.533v443.733c0 5.12 3.413 8.533 8.533 8.533h494.933c5.12 0 8.533-3.413 8.533-8.533v-443.733c.001-5.12-3.412-8.533-8.532-8.533zm-8.534 443.733h-477.866v-426.666h477.867v426.666z"/></g></g></g><g/><g/><g/><g/><g/><g/><g/><g/><g/><g/><g/><g/><g/><g/><g/></svg>