<svg id="Layer_1" enable-background="new 0 0 512 512" viewBox="0 0 512 512" xmlns="http://www.w3.org/2000/svg"><g transform="translate(1 1)"><g><g><path d="m111.64 115.053c1.707 1.707 4.267 3.413 6.827 3.413h273.067c2.56 0 5.12-1.707 6.827-4.267 1.707-1.707 1.707-5.12.853-7.68l-25.6-68.267c-.853-2.56-4.267-5.12-7.68-5.12h-221.867c-3.413 0-6.827 2.56-7.68 5.973l-25.6 68.267c-.854 2.561-.854 5.121.853 7.681zm38.4-64.853h209.92l18.773 51.2h-248.32z"/><path d="m162.84 406.04c11.093-10.24 27.307-16.213 27.307-16.213 3.413-1.707 5.973-5.12 5.12-9.387s-4.267-6.827-8.533-6.827h-47.787c-20.48 0-40.107 5.973-55.467 17.92-16.213 12.8-18.773 25.6-18.773 33.28.853 12.8 8.533 23.893 23.893 33.28 7.68 5.12 11.947 11.093 12.8 17.067 1.707 11.093-6.827 21.333-6.827 21.333-1.707 2.56-2.56 6.827-.853 9.387 1.707 3.413 4.267 5.12 7.68 5.12h76.8c1.707 0 3.413-.853 5.12-2.56 7.68-6.827 11.947-14.507 11.947-23.893.853-19.627-17.067-40.96-32.427-54.613-3.413-3.413-5.12-7.68-5.12-12.8 0-4.267 1.707-8.534 5.12-11.094zm15.36 79.36c0 3.413-.853 5.973-3.413 8.533h-58.88c1.707-5.973 3.413-12.8.853-19.627-1.707-11.947-8.533-21.333-20.48-29.013-6.827-5.12-15.36-11.947-15.36-19.627-.853-7.68 5.973-14.507 11.947-18.773 11.947-9.387 28.16-14.507 45.227-14.507h15.36c-.853.853-2.56 1.707-3.413 2.56-6.827 5.973-10.24 13.653-10.24 23.04s4.267 18.773 11.093 25.6c17.919 16.214 27.306 31.574 27.306 41.814z"/><path d="m393.24 406.04c11.093-10.24 27.307-16.213 27.307-16.213 3.413-1.707 5.973-5.12 5.12-9.387s-4.267-6.827-8.533-6.827h-47.787c-20.48 0-40.107 5.973-55.467 17.92-16.213 12.8-18.773 25.6-18.773 33.28.853 12.8 8.533 23.893 23.893 33.28 7.68 5.12 11.947 11.093 12.8 17.067 1.707 11.093-6.827 21.333-6.827 21.333-1.707 2.56-2.56 5.973-.853 9.387 1.707 3.413 4.267 5.12 7.68 5.12h76.8c1.707 0 3.413-.853 5.12-2.56 7.68-6.827 11.947-14.507 11.947-23.893.853-19.627-17.067-40.96-32.427-54.613-3.413-3.413-5.12-7.68-5.12-12.8 0-4.267 1.707-8.534 5.12-11.094zm15.36 79.36c0 3.413-.853 5.973-3.413 8.533h-58.88c1.707-5.973 3.413-12.8.853-19.627-1.707-11.947-8.533-21.333-20.48-29.013-6.827-5.12-15.36-11.947-15.36-19.627-.853-7.68 5.973-14.507 11.947-18.773 11.947-9.387 28.16-14.507 45.227-14.507h15.36c-.853.853-2.56 1.707-3.413 2.56-6.827 5.973-10.24 13.653-10.24 23.04s4.267 18.773 11.093 25.6c17.919 16.214 27.306 31.574 27.306 41.814z"/><path d="m472.6 67.267h-45.76l-27.627-63.147c-.853-3.413-4.266-5.12-7.68-5.12h-273.066c-3.413 0-6.827 1.707-7.68 5.12l-27.627 63.147h-45.76c-21.333 0-38.4 17.067-38.4 38.4v21.333c0 5.12 3.413 8.533 8.533 8.533h45.76l-1.019 2.33c-.439.351-.853.716-1.221 1.084-10.15 13.195-16.375 28.806-18.498 45.933-.11.328-.207.661-.275 1.001-.167 2.168-.299 4.37-.388 6.603-.253 4.83-.197 9.764.179 14.785.323 4.69.927 9.507 1.916 14.452l4.267 17.92c.188.94.506 1.791.924 2.556l10.169 40.111c.853 4.267 4.267 6.827 8.533 6.827h26.453v42.665c0 14.507 11.093 25.6 25.6 25.6h68.267c14.507 0 25.6-11.093 25.6-25.6v-42.667h110.933v42.667c0 14.507 11.093 25.6 25.6 25.6h68.267c14.507 0 25.6-11.093 25.6-25.6v-42.667h16.213c4.267 0 7.68-2.56 8.533-6.827l10.897-42.983c.066-.178.135-.352.196-.537l.928-3.896 3.339-13.17c6.566-27.904 1.285-56.594-15.069-80.003-.081-.365-.177-.722-.291-1.063l-2.24-5.12h45.76c5.12 0 8.533-3.413 8.533-8.533v-21.333c.001-21.335-17.066-38.401-38.399-38.401zm-348.16-51.2h261.12l52.053 119.467h-366.08l1.515-3.42c.374-.515.73-1.068 1.045-1.7l13.313-30.722zm-64 102.4h-44.373v-12.8c0-11.947 9.387-21.333 21.333-21.333h38.293l-3.733 8.531zm-9.387 99.84c-.872-5.058-1.405-10.038-1.628-14.924-.074-2.678-.078-5.355-.078-8.033.001-.028.003-.055.004-.083h46.929l17.067 34.133h-59.476zm135.68 113.493c0 5.12-3.413 8.533-8.533 8.533h-68.267c-5.12 0-8.533-3.413-8.533-8.533v-42.667h85.333zm230.4 0c0 5.12-3.413 8.533-8.533 8.533h-68.267c-5.12 0-8.533-3.413-8.533-8.533v-42.667h85.333zm8.534-59.733h-102.4-128-102.4-28.16l-6.502-25.6h68.795c2.56 0 5.973-1.707 7.68-3.413.853-2.56 1.707-5.973 0-8.533l-25.6-51.2c-1.707-3.413-4.267-5.12-7.68-5.12h-49.967c2.052-9.293 5.593-17.919 10.714-25.6h384c5.159 7.566 8.929 15.964 11.204 24.747h-48.751c-3.413 0-5.973 2.56-7.68 5.12l-25.6 51.2c-1.707 2.56-1.707 5.973 0 8.533s5.12 4.267 7.68 4.267h66.987l-6.4 25.6h-17.92zm28.16-42.667h-57.173l16.213-34.133h46.08c0 7.68-.853 15.36-2.56 22.187zm40.106-110.933h-44.373l-11.519-25.597-3.735-8.536h38.294c11.947 0 21.333 9.387 21.333 21.333z"/></g></g></g><g/><g/><g/><g/><g/><g/><g/><g/><g/><g/><g/><g/><g/><g/><g/></svg>