<svg id="Layer_1" enable-background="new 0 0 512 512" viewBox="0 0 512 512" xmlns="http://www.w3.org/2000/svg"><g transform="translate(1 1)"><g><g><path d="m383 203.8c0-5.12-3.413-8.533-8.533-8.533s-8.533 3.413-8.533 8.533c0 89.6-72.533 162.133-162.133 162.133-5.12 0-8.533 3.413-8.533 8.533s3.412 8.534 8.532 8.534c98.987 0 179.2-80.213 179.2-179.2z"/><path d="m203.8 323.267c-5.12 0-8.533 3.413-8.533 8.533s3.413 8.533 8.533 8.533c75.093 0 136.533-61.44 136.533-136.533 0-5.12-3.413-8.533-8.533-8.533s-8.533 3.413-8.533 8.533c0 65.707-53.76 119.467-119.467 119.467z"/><path d="m203.8 280.6c-5.12 0-8.533 3.413-8.533 8.533s3.413 8.533 8.533 8.533c52.053 0 93.867-41.813 93.867-93.867 0-5.12-3.413-8.533-8.533-8.533s-8.533 3.413-8.533 8.533c-.001 42.668-34.134 76.801-76.801 76.801z"/><path d="m502.467 493.933h-11.464l-66.19-190.293c-.853-3.413-4.267-5.973-7.68-5.973s-6.827 2.56-7.68 5.973l-66.189 190.293h-11.464c-5.12 0-8.533 3.413-8.533 8.533s3.413 8.534 8.533 8.534h17.067 136.533 17.067c5.12 0 8.533-3.413 8.533-8.533s-3.413-8.534-8.533-8.534zm-141.654 0 56.32-162.133 56.32 162.133z"/><path d="m272.067 135.533c0-75.093-61.44-136.533-136.534-136.533h-128c-5.12 0-8.533 3.413-8.533 8.533v494.933c0 5.12 3.413 8.533 8.533 8.533h51.2c5.12 0 8.533-3.413 8.533-8.533v-230.4h68.267c75.094.001 136.534-61.439 136.534-136.533zm-136.534 119.467h-76.8c-5.12 0-8.533 3.413-8.533 8.533v230.4h-34.133v-477.866h119.467c65.706 0 119.466 53.76 119.466 119.466s-53.76 119.467-119.467 119.467z"/><path d="m135.533 50.2h-76.8c-5.12 0-8.533 3.413-8.533 8.533v153.6c0 5.12 3.413 8.533 8.533 8.533h76.8c46.933 0 85.333-38.4 85.333-85.333s-38.399-85.333-85.333-85.333zm0 153.6h-68.266v-136.533h68.267c37.547 0 68.267 30.72 68.267 68.267-.001 37.546-30.721 68.266-68.268 68.266z"/></g></g></g><g/><g/><g/><g/><g/><g/><g/><g/><g/><g/><g/><g/><g/><g/><g/></svg>