<svg id="Layer_1" enable-background="new 0 0 512 512" viewBox="0 0 512 512" xmlns="http://www.w3.org/2000/svg"><g><g><path d="m503.467 284.914h-59.733v-42.667c0-5.12-3.413-8.533-8.533-8.533h-358.401c-5.12 0-8.533 3.413-8.533 8.533v42.667h-59.734c-5.12 0-8.533 3.413-8.533 8.533v68.267c0 5.12 3.413 8.533 8.533 8.533h59.733v42.667c0 5.12 3.413 8.533 8.533 8.533h358.4c5.12 0 8.533-3.413 8.533-8.533v-42.667h59.733c5.12 0 8.533-3.413 8.533-8.533v-68.267c.002-5.12-3.411-8.533-8.531-8.533zm-8.534 68.266h-59.733c-5.12 0-8.533 3.413-8.533 8.533v42.667h-341.334v-42.667c0-5.12-3.413-8.533-8.533-8.533h-59.733v-51.2h59.733c5.12 0 8.533-3.413 8.533-8.533v-42.667h341.333v42.667c0 5.12 3.413 8.533 8.533 8.533h59.733v51.2z"/></g></g><g><g><path d="m367.787 150.94c0-.853-.853-2.56-.853-3.413v-.853c-.853-1.707-1.707-3.413-2.56-5.12-3.413-5.12-5.973-11.093-5.973-17.067 0-5.973 2.56-11.947 5.12-17.067.853-1.707 1.707-3.413 2.56-5.12 1.707-4.267 0-9.387-4.267-11.093s-9.387 0-11.093 4.267c-.853 1.707-1.707 2.56-1.707 4.267-3.413 5.973-7.68 14.507-7.68 24.747s4.267 18.773 6.827 24.747c.853 1.707.853 2.56 1.707 3.413v.853c.853 1.707 1.707 3.413 2.56 5.12 3.413 5.12 5.973 11.093 5.973 17.067 0 11.947-11.093 24.747-14.507 28.16-3.413 3.413-3.413 8.533 0 11.947 1.707 1.707 3.413 2.56 5.973 2.56 1.707 0 4.267-.853 5.973-2.56.853-.853 19.627-18.773 19.627-40.107 0-10.241-4.267-18.774-7.68-24.748z"/></g></g><g><g><path d="m273.92 150.94c0-.853-.853-2.56-.853-3.413v-.853c-.853-1.707-1.707-3.413-2.56-5.12-3.413-5.12-5.973-11.093-5.973-17.067 0-5.973 2.56-11.947 5.12-17.067.853-1.707 1.707-3.413 2.56-5.12 1.707-4.267 0-9.387-4.267-11.093s-9.387 0-11.093 4.267c-.853 1.707-1.707 2.56-1.707 4.267-3.413 5.973-7.68 14.507-7.68 24.747s4.267 18.773 6.827 24.747c.853 1.707.853 2.56 1.707 3.413v.853c.853 1.707 1.707 3.413 2.56 5.12 3.413 5.12 5.973 11.093 5.973 17.067 0 11.947-11.093 24.747-14.507 28.16s-3.413 8.533 0 11.947c1.707 1.707 3.413 2.56 5.973 2.56 1.707 0 4.267-.853 5.973-2.56.853-.853 19.627-18.773 19.627-40.107 0-10.241-4.267-18.774-7.68-24.748z"/></g></g><g><g><path d="m180.053 150.94c0-.853-.853-2.56-1.707-3.413v-.853c-.853-1.707-1.707-3.413-2.56-5.12-2.56-5.12-5.12-11.093-5.12-17.067 0-5.973 2.56-11.947 5.12-17.067.853-1.707 1.707-3.413 2.56-5.12 1.707-4.267 0-9.387-4.267-11.093s-9.387 0-11.093 4.267c-.853 1.707-1.707 2.56-1.707 4.267-3.413 5.973-7.68 14.507-7.68 24.747s4.267 18.773 6.827 24.747c.853 1.707.853 2.56 1.707 3.413v.853c.853 1.707 1.707 3.413 2.56 5.12 3.413 5.12 5.973 11.093 5.973 17.067 0 11.947-11.093 24.747-14.507 28.16s-3.413 8.533 0 11.947c1.707 1.707 3.413 2.56 5.973 2.56 1.707 0 4.267-.853 5.973-2.56.853-.853 19.627-18.773 19.627-40.107.001-10.241-4.265-18.774-7.679-24.748z"/></g></g><g/><g/><g/><g/><g/><g/><g/><g/><g/><g/><g/><g/><g/><g/><g/></svg>