<svg id="Layer_1" enable-background="new 0 0 512.64 512.64" viewBox="0 0 512.64 512.64" xmlns="http://www.w3.org/2000/svg"><g transform="translate(1 1)"><g><g><path d="m495.64 123.053-52.053-52.053c-21.333-21.333-55.467-21.333-76.8 0l-104.107 103.253c-21.333 21.333-21.333 55.467 0 76.8l.593.593-53.5 57.434c-1.707 2.56-2.56 5.12-1.707 7.68l4.267 19.627-19.627-4.267c-2.56 0-5.973.853-7.68 2.56l-49.493 49.493c-2.56 1.707-3.413 5.12-2.56 7.68l2.56 9.387-9.387-1.707c-2.56 0-5.973.853-7.68 2.56l-4.267 4.267c-18.773 17.92-31.573 40.96-37.547 65.707-1.707 5.973.853 12.8 5.12 17.067 3.413 3.413 7.68 5.12 12.8 5.12h3.413c24.747-6.827 47.787-19.627 65.707-37.547l36.693-36.693c2.56-1.707 3.413-5.12 2.56-7.68l-1.707-9.387 9.387 1.707c2.56.853 5.973-.853 7.68-2.56l96.078-99.335.348.348c10.24 10.24 23.893 16.213 38.4 16.213s28.16-5.973 38.4-15.36l104.109-104.107c21.333-21.333 21.333-55.466 0-76.8zm-286.72 263.68-17.067-3.413c-2.56 0-5.973.853-7.68 2.56-2.56 1.707-3.413 5.12-2.56 7.68l3.413 17.067-33.28 33.28c-16.213 16.213-35.84 28.16-58.027 33.28 0 0 0 .853-.853 0 0-.853 0-.853 0-1.707 5.973-22.187 17.067-41.813 33.28-58.027l.854-.853 16.213 3.413c2.56 0 5.973-.853 7.68-2.56 2.56-1.707 3.413-5.12 2.56-7.68l-3.413-17.067 43.52-43.52 28.16 5.973c2.56 0 5.973-.853 7.68-2.56 2.56-1.707 3.413-5.12 2.56-7.68l-5.973-28.16 49.493-52.907 26.453 26.453zm274.773-199.68-104.106 104.107c-7.68 6.827-16.213 11.093-26.453 11.093s-19.627-4.267-26.453-11.093l-52.053-52.053c-14.507-14.507-14.507-37.547 0-52.053l104.105-103.254c7.68-7.68 17.067-11.093 26.453-11.093 9.387 0 18.773 3.413 26.453 9.387l52.053 52.053c6.827 7.68 11.093 16.213 11.093 26.453.002 10.24-4.265 19.627-11.092 26.453z"/><path d="m422.253 114.52c-10.24-10.24-26.453-10.24-36.693 0l-7.68 7.68c-5.12 5.12-7.68 11.947-7.68 18.773 0 7.68 2.56 13.653 7.68 18.773l27.307 27.307c5.12 5.12 11.947 7.68 18.773 7.68 7.68 0 13.653-2.56 18.773-7.68l6.827-8.533c10.24-10.24 10.24-26.453 0-36.693zm17.067 52.907-7.68 7.68c-3.413 3.413-9.387 3.413-12.8 0l-27.307-27.307c-3.413-3.413-3.413-9.387 0-12.8l7.68-7.68c1.707-1.707 3.413-2.56 5.973-2.56 1.707 0 4.267.853 5.973 2.56l28.16 27.307c3.414 3.413 3.414 9.386.001 12.8z"/><path d="m263.533 33.453c5.12 0 8.533-3.413 8.533-8.533s-3.413-8.533-8.533-8.533c-148.48 0-264.533 120.32-264.533 273.066 0 5.12 3.413 8.533 8.533 8.533s8.533-3.413 8.533-8.533c.001-143.36 108.374-256 247.467-256z"/><path d="m263.533 76.12c5.12 0 8.533-3.413 8.533-8.533s-3.413-8.533-8.533-8.533c-124.587 0-221.867 101.547-221.867 230.4 0 5.12 3.413 8.533 8.533 8.533s8.533-3.413 8.533-8.533c.001-119.467 89.601-213.334 204.801-213.334z"/><path d="m263.533 101.72c-98.987 0-179.2 84.48-179.2 187.733 0 5.12 3.413 8.533 8.533 8.533s8.533-3.413 8.533-8.533c0-93.867 72.533-170.667 162.133-170.667 5.12 0 8.533-3.413 8.533-8.533.002-5.12-3.412-8.533-8.532-8.533z"/></g></g></g><g/><g/><g/><g/><g/><g/><g/><g/><g/><g/><g/><g/><g/><g/><g/></svg>