<svg id="Layer_1" enable-background="new 0 0 512.273 512.273" viewBox="0 0 512.273 512.273" xmlns="http://www.w3.org/2000/svg"><g transform="translate(1 1)"><g><g><path d="m198.483 41.939h-34.133c-13.653 0-25.6 11.947-25.6 25.6v8.533c0 13.653 11.947 25.6 25.6 25.6h34.133c13.653 0 25.6-11.947 25.6-25.6v-8.533c0-13.653-11.947-25.6-25.6-25.6zm8.533 34.134c0 4.267-4.267 8.533-8.533 8.533h-34.133c-4.267 0-8.533-4.267-8.533-8.533v-8.533c0-4.267 4.267-8.533 8.533-8.533h34.133c4.267 0 8.533 4.267 8.533 8.533z"/><path d="m407.549 419.113-13.653-46.08c-.853-2.56-3.413-5.12-5.973-5.973l-7.68-2.56 5.12-5.973c1.707-1.707 2.56-5.12 1.707-7.68l-36.24-120.799 1.253-.374c26.453-7.68 41.813-35.84 34.133-63.147l-39.253-131.414c-7.68-26.453-35.84-41.813-63.147-34.133l-35.21 10.488c-8.937-7.592-20.482-12.195-33.056-12.195h-68.267c-28.16 0-51.2 23.04-51.2 51.2v136.533c0 28.16 23.04 51.2 51.2 51.2v68.267c0 3.413 1.707 5.973 3.413 6.827l15.36 10.24-15.36 10.24c-1.707 1.707-3.413 4.267-3.413 6.827v65.707c0 2.56 1.707 5.12 4.267 6.827l5.973 4.267-6.827 5.12c-1.707 1.707-3.413 4.267-3.413 6.827v5.12c0 23.893 6.827 47.787 18.773 68.267 3.413 5.12 9.387 8.533 15.36 8.533s11.947-3.413 14.507-8.533c12.8-21.333 19.627-44.373 19.627-68.267v-48.64c0-2.56-.853-5.12-3.413-6.827l-6.827-4.267 6.827-4.267c1.707-1.707 3.413-4.267 3.413-6.827v-125.44c6.418 0 12.565-1.208 18.24-3.39 9.593 10.822 23.402 17.043 37.227 17.043 4.528 0 9.055-.67 13.583-2.005l19.697 65.151c.853 2.56 3.413 5.12 5.973 5.973l17.067 5.12-11.093 13.653c-1.707 1.707-2.56 5.12-1.707 7.68l18.773 63.147c.853 2.56 3.413 5.12 5.973 5.973l7.68 2.56-5.12 5.973c-1.707 1.707-2.56 5.12-1.707 7.68l1.707 5.12c5.973 21.333 20.48 42.667 39.253 60.587 3.413 2.56 7.68 4.267 11.947 4.267 1.707 0 3.413 0 5.973.853 5.973-1.707 10.24-6.827 11.947-12.8 5.12-22.186 4.266-46.079-3.414-71.679zm-122.88-355.84c1.707 0 4.267 0 5.973.853 1.707.853 2.56 2.56 3.413 4.267l2.56 9.387c0 1.707 0 4.267-.853 5.973-.853 1.707-2.56 2.56-4.267 3.413l-24.747 7.68v-26.453zm-86.186 296.106-13.653 8.533c-1.707 1.707-3.413 3.413-3.413 6.827s1.707 5.973 3.413 7.68l13.653 8.533v43.52c0 20.48-5.973 40.96-17.067 59.733l7.68 4.267-8.533-4.267c-10.24-17.92-16.213-38.4-16.213-59.733v-.853l13.653-9.387c1.707-1.707 3.413-4.267 3.413-6.827s-1.707-5.12-4.267-6.827l-12.8-8.533v-56.32l22.187-15.36c1.707-1.707 3.413-4.267 3.413-6.827s-1.707-5.12-3.413-6.827l-22.187-14.507v-64h34.133v121.175zm8.533-138.24h-51.2-8.533c-18.773 0-34.133-15.36-34.133-34.133v-136.533c0-18.773 15.36-34.133 34.133-34.133h68.267c18.773 0 34.133 15.36 34.133 34.133v7.625c-.542 1.11-.853 2.288-.853 3.468v44.373c0 1.124.34 2.243.853 3.294v77.772c0 18.773-15.36 34.133-34.133 34.133h-8.534zm41.813 5.12c3.853-3.557 7.177-7.533 9.893-11.842 1.683-2.636 3.132-5.432 4.317-8.363.004-.011.008-.021.013-.032.319-.79.617-1.589.897-2.398.039-.113.078-.227.116-.341.236-.698.457-1.401.663-2.112.059-.203.117-.406.174-.61.172-.622.331-1.25.48-1.881.065-.274.131-.548.191-.823.125-.572.235-1.148.34-1.727.059-.322.121-.643.174-.967.09-.555.163-1.114.234-1.674.044-.341.094-.68.131-1.023.064-.594.107-1.193.15-1.792.022-.308.054-.613.071-.922.049-.909.076-1.824.076-2.744v-75.778l29.013-8.704c5.973-1.707 11.093-5.973 14.507-11.947 2.56-5.973 3.413-12.8 1.707-18.773l-2.56-9.387c-1.707-5.973-5.973-11.093-11.947-14.507-5.973-2.56-12.8-3.413-18.773-1.707l-11.962 3.418c-.008-.38-.018-.759-.035-1.138-.221-5.717-1.391-11.199-3.357-16.297-.77-2.206-1.634-4.367-2.565-6.463l28.16-8.533c17.92-5.12 36.693 5.12 41.813 23.04l39.253 132.267c5.12 17.92-5.12 36.693-23.04 41.813l-7.422 2.217c-.615.011-1.256.107-1.965.343l-49.493 14.507c-1.429.238-2.65.817-3.644 1.609l-3.183.951c-11.947 3.414-23.893 0-32.427-7.68zm144.214 259.414h-.853c-17.067-15.36-29.013-34.133-34.987-53.76l10.24-11.093c1.707-1.707 2.56-5.12 1.707-7.68s-3.413-5.12-5.973-5.973l-15.36-5.12-16.213-53.76 17.067-20.48c1.707-1.707 2.56-5.12 1.707-7.68s-3.413-5.12-5.973-5.973l-24.747-7.68-17.92-61.44 32.427-9.387 34.133 115.2-10.24 11.947c-1.707 1.707-2.56 5.12-1.707 7.68s3.413 5.12 5.973 5.973l15.36 5.12 11.947 41.813c6.825 23.039 8.532 43.519 3.412 62.293z"/></g></g></g><g/><g/><g/><g/><g/><g/><g/><g/><g/><g/><g/><g/><g/><g/><g/></svg>