<svg id="Layer_1" enable-background="new 0 0 512 512" viewBox="0 0 512 512" xmlns="http://www.w3.org/2000/svg"><g transform="translate(1 1)"><g><g><path d="m67.267 212.333h375.467c2.56 0 5.12-.853 6.827-3.413s2.56-5.12 1.707-7.68c-24.748-88.747-104.961-151.04-196.268-151.04s-171.52 62.293-196.267 151.04c0 2.56 0 5.973 1.707 7.68 1.707 2.56 4.267 3.413 6.827 3.413zm187.733-145.066c79.36 0 151.04 52.053 175.787 128h-352.427c25.6-75.947 97.28-128 176.64-128z"/><path d="m451.267 248.173c-3.413-.853-7.68-.853-11.093-.853-36.693 0-59.733 18.773-59.733 49.493 0 27.307 18.773 51.2 46.08 58.027h1.707c3.413 0 5.973-1.707 5.973-3.413 15.36-29.867 23.893-51.2 23.893-85.333 0-2.56 0-4.267 0-6.827v-3.413c-.001-3.414-2.561-6.827-6.827-7.681zm-7.68 16.214c0 28.16-6.827 46.933-18.773 70.827-16.214-5.974-26.454-21.334-26.454-39.254 0-29.013 29.867-32.427 42.667-32.427 0 0 .853 0 2.56-.853z"/><path d="m255.853 359.96c-53.76 0-101.547 18.773-122.027 48.64-2.56 4.267-1.707 9.387 1.707 11.947 34.987 25.6 75.947 39.253 119.467 39.253 42.667 0 84.48-13.653 120.32-39.253 3.413-2.56 4.267-8.533 1.707-11.947-20.48-29.867-68.267-48.64-121.174-48.64zm-.853 82.773c-36.693 0-71.68-10.24-102.4-30.72 20.48-21.333 59.733-34.987 102.4-34.987s82.773 13.653 102.4 34.987c-30.72 20.48-65.707 30.72-102.4 30.72z"/><path d="m255-1c-140.8 0-256 115.2-256 256s115.2 256 256 256 256-115.2 256-256-115.2-256-256-256zm0 494.933c-131.413 0-238.933-107.52-238.933-238.933s107.52-238.933 238.933-238.933 238.933 107.52 238.933 238.933-107.52 238.933-238.933 238.933z"/><path d="m68.12 236.227c-3.413 0-7.68 0-11.093.853s-6.827 3.413-6.827 7.68v3.413 6.827c0 33.28 8.533 65.707 23.893 95.573 1.707 2.56 4.267 4.267 7.68 4.267.853 0 1.707 0 0-.853 27.307-6.827 46.08-30.72 46.08-58.027 0-32.427-26.453-59.733-59.733-59.733zm17.92 99.84c-12.8-25.6-18.773-52.907-18.773-81.067 0-.853 0-.853 0-1.707 24.747-.853 45.227 18.773 45.227 43.52-.001 17.067-10.241 32.427-26.454 39.254z"/><path d="m169.667 280.6c0 24.747 36.693 42.667 85.333 42.667s85.333-17.92 85.333-42.667-36.693-42.667-85.333-42.667-85.333 17.92-85.333 42.667zm153.6 0c0 10.24-26.453 25.6-68.267 25.6-41.813 0-68.267-15.36-68.267-25.6s26.453-25.6 68.267-25.6c41.813 0 68.267 15.36 68.267 25.6z"/></g></g></g><g/><g/><g/><g/><g/><g/><g/><g/><g/><g/><g/><g/><g/><g/><g/></svg>