<svg id="Layer_1" enable-background="new 0 0 504.446 504.446" viewBox="0 0 504.446 504.446" xmlns="http://www.w3.org/2000/svg"><g transform="translate(1 1)"><g><g><path d="m251.643 74.961h-.839c-82.256 0-159.475 28.538-206.479 74.702-29.377 30.216-45.325 64.629-45.325 101.56 0 96.525 113.311 176.262 252.643 176.262 3.357 0 7.554-2.518 8.393-5.875 33.574-111.633 33.574-229.141 0-340.774-1.679-3.357-5.036-5.875-8.393-5.875zm-5.876 336.577c-127.58-2.518-229.98-73.023-229.98-159.475 0-31.895 14.269-62.951 41.128-89.81 42.807-43.646 113.311-69.666 188.852-70.505 30.217 104.918 30.217 214.872 0 319.79z"/><path d="m495.052 200.862h-184.655c-5.036 0-8.393 3.357-8.393 8.393s3.357 8.393 8.393 8.393h184.656c5.036 0 8.393-3.357 8.393-8.393s-3.358-8.393-8.394-8.393z"/><path d="m495.052 284.797h-184.655c-5.036 0-8.393 3.357-8.393 8.393s3.357 8.393 8.393 8.393h184.656c5.036 0 8.393-3.357 8.393-8.393s-3.358-8.393-8.394-8.393z"/><path d="m495.052 368.731h-184.655c-5.036 0-8.393 3.357-8.393 8.393s3.357 8.393 8.393 8.393h184.656c5.036 0 8.393-3.357 8.393-8.393 0-5.035-3.358-8.393-8.394-8.393z"/><path d="m310.397 133.715h184.656c5.036 0 8.393-3.357 8.393-8.393s-3.357-8.393-8.393-8.393h-184.656c-5.036 0-8.393 3.357-8.393 8.393-.001 5.035 3.357 8.393 8.393 8.393z"/></g></g></g><g/><g/><g/><g/><g/><g/><g/><g/><g/><g/><g/><g/><g/><g/><g/></svg>