<svg id="Layer_1" enable-background="new 0 0 512 512" viewBox="0 0 512 512" xmlns="http://www.w3.org/2000/svg"><g transform="translate(1 1)"><g><g><path d="m425.667 344.6c-11.093-3.413-23.04-5.12-34.987-5.12h-273.067c-11.093 0-23.04 1.707-34.987 5.12-2.56.853-5.12 2.56-5.973 5.12s-.853 5.12.853 7.68c36.694 63.147 104.961 102.4 177.494 102.4s140.8-39.253 175.787-102.4c1.707-2.56 2.56-5.12.853-7.68s-3.413-4.267-5.973-5.12zm-170.667 98.133c-62.293 0-121.173-31.573-156.16-83.627 6.827-.853 12.8-1.707 19.627-1.707h273.067c6.827 0 12.8.853 19.627 1.707-34.988 52.054-93.868 83.627-156.161 83.627z"/><path d="m83.48 164.547c11.093 3.413 23.04 5.12 34.987 5.12h273.067c11.947 0 23.893-1.707 35.84-4.267 2.56-.853 5.12-2.56 5.973-5.12s.853-5.12-.853-7.68c-36.694-63.147-104.961-102.4-177.494-102.4s-140.8 39.253-176.64 101.547c-1.707 2.56-1.707 5.12-.853 7.68 1.706 2.56 3.413 4.266 5.973 5.12zm171.52-97.28c62.293 0 121.173 31.573 156.16 83.627-6.827.853-12.8 1.707-19.627 1.707h-273.066c-6.827 0-12.8-.853-19.627-1.707 34.987-52.054 93.867-83.627 156.16-83.627z"/><path d="m255-1c-140.8 0-256 115.2-256 256s115.2 256 256 256 256-115.2 256-256-115.2-256-256-256zm0 494.933c-131.413 0-238.933-107.52-238.933-238.933s107.52-238.933 238.933-238.933 238.933 107.52 238.933 238.933-107.52 238.933-238.933 238.933z"/><path d="m144.067 255c0-30.72-29.867-57.173-75.093-65.707-4.267-.853-8.533 1.707-9.387 5.973-5.974 19.627-9.387 39.254-9.387 59.734s3.413 40.107 8.533 59.733c1.707 3.413 5.12 5.973 8.533 5.973h1.707c45.227-7.679 75.094-34.986 75.094-65.706zm-70.827 47.787c-4.267-16.213-5.973-31.573-5.973-47.787s1.707-31.573 5.973-47.787c32.427 8.534 53.76 27.307 53.76 47.787 0 21.333-22.187 40.107-53.76 47.787z"/><path d="m450.413 195.267c-.853-4.267-5.12-6.827-9.387-5.973-45.227 7.68-75.093 34.987-75.093 65.707s29.867 57.173 75.093 65.707h1.707c3.413 0 6.827-1.707 7.68-5.973 5.974-18.775 9.387-39.255 9.387-59.735s-3.413-40.107-9.387-59.733zm-13.653 107.52c-32.427-7.68-53.76-27.307-53.76-47.787s21.333-39.253 53.76-47.787c4.267 15.36 5.973 31.573 5.973 47.787s-1.706 32.427-5.973 47.787z"/><path d="m273.773 198.68-18.773 25.031-18.773-25.031c-1.707-2.56-4.267-3.413-6.827-3.413s-5.12.853-6.827 3.413l-25.6 34.133c-2.56 3.413-2.56 6.827 0 10.24l25.6 34.133c.001.001.001.002.002.002l25.598 34.131c1.707 2.56 4.267 3.413 6.827 3.413s5.12-.853 6.827-3.413l25.598-34.131c.001-.001.001-.002.002-.002l25.6-34.133c2.56-3.413 2.56-6.827 0-10.24l-25.6-34.133c-3.414-4.267-10.24-4.267-13.654 0zm-44.373 19.627 15.142 19.348-14.616 19.487-15.033-19.209zm25.6 73.386-14.507-19.627 14.507-19.626 5.12 6.542 10.022 13.363zm25.6-34.133-5.12-6.542-10.022-13.363 15.142-19.348 15.36 19.627z"/></g></g></g><g/><g/><g/><g/><g/><g/><g/><g/><g/><g/><g/><g/><g/><g/><g/></svg>