<svg id="Layer_1" enable-background="new 0 0 512 512" viewBox="0 0 512 512" xmlns="http://www.w3.org/2000/svg"><g transform="translate(1 1)"><g><path d="m489.667-1h-85.333c-5.12 0-8.533 3.413-8.533 8.533v8.533h-34.133v-8.533c0-5.12-3.413-8.533-8.533-8.533h-68.267c-5.12 0-8.533 3.413-8.533 8.533v8.533h-34.135v-8.533c0-5.12-3.413-8.533-8.533-8.533h-85.333c-5.12 0-8.533 3.413-8.533 8.533v34.133c0 5.12 3.413 8.533 8.533 8.533h85.333c5.12 0 8.533-3.413 8.533-8.533v-8.533h34.133v8.533c0 5.12 3.413 8.533 8.533 8.533h8.533v34.133h-25.6c-5.12 0-8.533 3.413-8.533 8.533v34.135c0 5.12 3.413 8.533 8.533 8.533h8.533v256h-42.667c-5.12 0-8.533 3.413-8.533 8.533v8.533h-8.532c-9.387 0-17.067-7.68-17.067-17.067v-204.8c0-23.893-18.773-42.667-42.667-42.667-23.893 0-42.667 18.773-42.667 42.667v110.933c0 14.601-4.164 20.868-8.533 23.563v-6.497c0-5.12-3.413-8.533-8.533-8.533h-42.666c-5.12 0-8.533 3.413-8.533 8.533v8.533h-25.6c-5.12 0-8.533 3.413-8.533 8.533s3.413 8.533 8.533 8.533h25.6v8.533c0 5.12 3.413 8.533 8.533 8.533h42.667c5.12 0 8.533-3.413 8.533-8.533v-9.504c16.163-3.84 25.6-18.99 25.6-41.696v-110.93c0-14.507 11.093-25.6 25.6-25.6s25.6 11.093 25.6 25.6v204.8c0 18.773 15.36 34.133 34.133 34.133h8.533v8.533c0 5.12 3.413 8.533 8.533 8.533h42.667v21.211l-55.467 31.695c-3.413 1.707-5.12 5.973-4.267 9.387.853 3.413 4.267 5.973 8.533 5.973h187.733c4.267 0 7.68-3.413 8.533-6.827s-.853-7.68-4.267-9.387l-55.467-31.695v-327.556h8.533c5.12 0 8.533-3.413 8.533-8.533v-34.133c0-5.12-3.413-8.533-8.533-8.533h-25.6v-34.134h8.533c5.12 0 8.533-3.413 8.533-8.533v-8.533h34.137v8.533c0 5.12 3.413 8.533 8.533 8.533h85.333c5.12 0 8.533-3.413 8.533-8.533v-34.134c.001-5.12-3.412-8.533-8.532-8.533zm-264.534 34.133h-68.267v-17.066h68.267zm-136.533 307.2h-25.6v-17.067h25.6zm153.6 85.334v-17.067h34.133v17.067zm15.36 68.266 29.867-17.067h64l29.867 17.067zm87.04-34.133h-51.2v-25.6-34.133-264.534h51.2zm17.067-341.333h-8.533-68.267-8.533v-17.067h25.6 34.133 25.6zm-34.134-34.134h-17.067v-34.133h17.067zm17.067-51.2h-8.533-34.133-8.534v-17.066h51.2zm136.533 0h-68.267v-17.066h68.267z"/></g></g><g/><g/><g/><g/><g/><g/><g/><g/><g/><g/><g/><g/><g/><g/><g/></svg>