<svg id="Layer_1" enable-background="new 0 0 512 512" viewBox="0 0 512 512" xmlns="http://www.w3.org/2000/svg"><g transform="translate(1 1)"><g><g><path d="m155.16 220.013c-4.267-5.12-11.093-7.68-17.92-7.68h-52.907c-14.507 0-25.6 11.093-25.6 25.6v179.2c0 14.507 11.093 25.6 25.6 25.6h85.333c14.507 0 25.6-11.093 25.6-25.6v-146.773c0-6.827-2.56-12.8-7.68-17.92zm23.04 197.12c0 5.12-3.413 8.533-8.533 8.533h-85.334c-5.12 0-8.533-3.413-8.533-8.533v-179.2c0-5.12 3.413-8.533 8.533-8.533h52.907c2.56 0 4.267.853 5.973 2.56l32.427 32.427c1.707 1.707 2.56 3.413 2.56 5.973z"/><path d="m329.24 288.28c4.267.853 7.68.853 11.093.853 11.947 0 23.04-4.267 31.573-11.947 11.947-10.24 18.773-24.747 18.773-40.107 0-7.68-2.56-15.36-6.827-22.187l-4.267-6.827c-5.973-9.387-11.947-18.773-17.067-29.013l-15.36-30.72c-1.707-3.413-4.267-5.12-7.68-5.12s-5.973 2.56-7.68 5.12l-11.947 24.747c-5.973 12.8-12.8 26.453-22.187 38.4-5.12 6.827-7.68 14.507-8.533 23.04-1.704 25.601 15.362 48.641 40.109 53.761zm-22.187-52.053c0-5.12 1.707-9.387 5.12-13.653 9.387-13.653 17.067-28.16 23.893-41.813l4.267-9.387 7.68 15.36c5.12 11.093 11.947 20.48 17.92 30.72l5.12 7.68c3.413 4.267 4.267 8.533 4.267 13.653 0 10.24-5.12 19.627-12.8 26.453-8.533 6.827-18.773 9.387-29.013 6.827-16.214-3.414-27.307-18.774-26.454-35.84z"/><path d="m135.533 280.6h-25.6c-5.12 0-8.533 3.413-8.533 8.533s3.413 8.533 8.533 8.533h25.6c5.12 0 8.533-3.413 8.533-8.533s-3.413-8.533-8.533-8.533z"/><path d="m135.533 323.267h-25.6c-5.12 0-8.533 3.413-8.533 8.533s3.413 8.533 8.533 8.533h25.6c5.12 0 8.533-3.413 8.533-8.533.001-5.12-3.413-8.533-8.533-8.533z"/><path d="m135.533 365.933h-25.6c-5.12 0-8.533 3.413-8.533 8.533s3.413 8.533 8.533 8.533h25.6c5.12 0 8.533-3.413 8.533-8.533s-3.413-8.533-8.533-8.533z"/><path d="m498.2 128.707-65.707-65.707c-7.68-8.533-18.773-12.8-29.867-12.8h-104.96v-25.6c0-14.507-11.093-25.6-25.6-25.6h-34.133c-14.507 0-25.6 11.093-25.6 25.6v25.6c-23.893 0-42.667 18.773-42.667 42.667v53.74c-4.636-1.69-9.57-2.54-14.507-2.54h-70.826v-25.6c0-14.507-11.093-25.6-25.6-25.6h-17.066c-14.507 0-25.6 11.093-25.6 25.6v27.307c-10.24 3.413-17.067 12.799-17.067 23.893v315.733c0 14.507 11.093 25.6 25.6 25.6h204.8 238.933c23.894 0 42.667-18.773 42.667-42.667v-309.76c0-11.093-5.12-22.186-12.8-29.866zm-260.267 76.8v-78.507c0-5.12 3.413-8.533 8.533-8.533h135.68c6.827 0 12.8 2.56 17.92 7.68l34.987 34.987c5.12 4.267 7.68 11.093 7.68 17.92v255.146c0 5.12-3.413 8.533-8.533 8.533h-170.667c-5.12 0-8.533-3.413-8.533-8.533v-190.293-.853-6.827c0-6.827-2.56-12.8-7.68-17.92l-5.12-5.12-1.707-1.707c-1.706-1.707-2.56-3.413-2.56-5.973zm-221.866 279.893v-315.733c0-5.12 3.413-8.533 8.533-8.533s8.533-3.413 8.533-8.533v-34.133c0-5.12 3.413-8.533 8.533-8.533h17.067c5.12 0 8.533 3.413 8.533 8.533v34.132c0 5.12 3.413 8.533 8.533 8.533h79.36c6.827 0 12.8 2.56 17.92 7.68l57.173 57.173c5.12 4.267 7.68 11.093 7.68 17.92v190.294 51.2c0 5.12-3.413 8.533-8.533 8.533h-204.799c-5.12 0-8.533-3.413-8.533-8.533zm477.866-17.067c0 14.507-11.093 25.6-25.6 25.6h-214.709c.89-2.652 1.376-5.517 1.376-8.533v-26.976c2.652.89 5.517 1.376 8.533 1.376h170.667c14.507 0 25.6-11.093 25.6-25.6v-255.147c0-11.093-5.12-22.187-12.8-29.867l-34.987-34.986c-7.68-8.533-18.773-12.8-29.867-12.8h-135.68c-14.507 0-25.6 11.093-25.6 25.6v64.853l-34.133-34.133v-64.853c0-14.507 11.093-25.6 25.6-25.6h8.533c5.12 0 8.533-3.413 8.533-8.533v-34.134c0-5.12 3.413-8.533 8.533-8.533h34.133c5.12 0 8.533 3.413 8.533 8.533v34.133c0 5.12 3.413 8.533 8.533 8.533h113.493c6.827 0 13.653 2.56 17.92 7.68l65.707 65.707c5.12 4.267 7.68 11.093 7.68 17.92v309.76z"/><path d="m383 323.267h-85.333c-5.12 0-8.533 3.413-8.533 8.533s3.413 8.533 8.533 8.533h85.333c5.12 0 8.533-3.413 8.533-8.533s-3.413-8.533-8.533-8.533z"/><path d="m280.6 383h119.467c5.12 0 8.533-3.413 8.533-8.533s-3.413-8.533-8.533-8.533h-119.467c-5.12 0-8.533 3.413-8.533 8.533s3.413 8.533 8.533 8.533z"/></g></g></g><g/><g/><g/><g/><g/><g/><g/><g/><g/><g/><g/><g/><g/><g/><g/></svg>