<svg id="Layer_1" enable-background="new 0 0 512 512" viewBox="0 0 512 512" xmlns="http://www.w3.org/2000/svg"><g transform="translate(1 1)"><g><path d="m468.333 409.33v-154.33-154.33c24.134-4.095 42.667-25.217 42.667-50.47 0-28.16-23.04-51.2-51.2-51.2s-51.2 23.04-51.2 51.2c0 25.253 18.533 46.375 42.667 50.47v145.797h-119.467v-145.797c24.134-4.095 42.667-25.217 42.667-50.47 0-28.16-23.04-51.2-51.2-51.2s-51.2 23.04-51.2 51.2c0 25.253 18.533 46.375 42.667 50.47v145.797h-119.467v-145.797c24.134-4.095 42.667-25.217 42.667-50.47 0-28.16-23.04-51.2-51.2-51.2s-51.2 23.04-51.2 51.2c0 25.253 18.533 46.375 42.667 50.47v145.797h-119.468v-145.797c24.134-4.095 42.667-25.217 42.667-50.47 0-28.16-23.04-51.2-51.2-51.2s-51.2 23.04-51.2 51.2c0 25.253 18.533 46.375 42.667 50.47v154.33c0 5.12 3.413 8.533 8.533 8.533h128v145.797c-24.134 4.095-42.667 25.217-42.667 50.47 0 28.16 23.04 51.2 51.2 51.2s51.2-23.04 51.2-51.2c0-25.253-18.533-46.375-42.667-50.47v-145.797h119.467v145.797c-24.134 4.095-42.667 25.217-42.667 50.47 0 28.16 23.04 51.2 51.2 51.2s51.2-23.04 51.2-51.2c0-25.253-18.533-46.375-42.667-50.47v-145.797h119.467v145.797c-24.134 4.095-42.667 25.217-42.667 50.47 0 28.16 23.04 51.2 51.2 51.2s51.2-23.04 51.2-51.2c.001-25.253-18.532-46.375-42.666-50.47zm-42.666-359.13c0-18.773 15.36-34.133 34.133-34.133s34.133 15.36 34.133 34.133-15.36 34.133-34.133 34.133-34.133-15.36-34.133-34.133zm-136.534 0c0-18.773 15.36-34.133 34.133-34.133s34.133 15.36 34.133 34.133-15.36 34.133-34.133 34.133-34.133-15.36-34.133-34.133zm-136.533 0c0-18.773 15.36-34.133 34.133-34.133s34.133 15.36 34.133 34.133-15.36 34.133-34.133 34.133-34.133-15.36-34.133-34.133zm-136.533 0c0-18.773 15.36-34.133 34.133-34.133s34.133 15.36 34.133 34.133-15.36 34.133-34.133 34.133-34.133-15.36-34.133-34.133zm204.8 409.6c0 18.773-15.36 34.133-34.133 34.133s-34.133-15.36-34.133-34.133 15.36-34.133 34.133-34.133 34.133 15.36 34.133 34.133zm136.533 0c0 18.773-15.36 34.133-34.133 34.133s-34.133-15.36-34.133-34.133 15.36-34.133 34.133-34.133 34.133 15.36 34.133 34.133zm102.4 34.133c-18.773 0-34.133-15.36-34.133-34.133s15.36-34.133 34.133-34.133 34.133 15.36 34.133 34.133-15.36 34.133-34.133 34.133z"/></g></g><g/><g/><g/><g/><g/><g/><g/><g/><g/><g/><g/><g/><g/><g/><g/></svg>