<svg id="Layer_1" enable-background="new 0 0 512 512" viewBox="0 0 512 512" xmlns="http://www.w3.org/2000/svg"><g transform="translate(1 1)"><g><path d="m388.973 240.493-17.067-17.067c-1.707-1.707-3.413-2.56-5.973-2.56h-59.733v-136.533c0-17.48-9.952-29.979-25.6-33.268v-34.998c0-9.387-7.68-17.067-17.067-17.067h-17.067c-9.386 0-17.066 7.68-17.066 17.067v34.999c-15.648 3.289-25.6 15.788-25.6 33.268v136.533h-59.733c-2.56 0-4.267.853-5.973 2.56l-17.067 17.067c-1.707 1.707-2.56 3.413-2.56 5.973v34.133c0 2.56.853 4.267 2.56 5.973l17.067 17.067c1.707 1.707 3.413 2.56 5.973 2.56h25.6v25.6c0 5.12 3.413 8.533 8.533 8.533h17.067v76.8 61.44c0 17.92 14.507 32.427 32.427 32.427h27.306c5.12 0 8.533-3.413 8.533-8.533s-3.413-8.533-8.533-8.533h-27.307c-8.533 0-15.36-6.827-15.36-15.36v-52.907h17.067v25.6c0 9.387 7.68 17.067 17.067 17.067h17.067c9.387 0 17.067-7.68 17.067-17.067v-25.6h25.6c5.12 0 8.533-3.413 8.533-8.533v-76.8h17.066c5.12 0 8.533-3.413 8.533-8.533v-25.6h25.6c2.56 0 4.267-.853 5.973-2.56l17.067-17.067c1.707-1.707 2.56-3.413 2.56-5.973v-34.133c0-2.561-.853-4.268-2.56-5.975zm-176.64 48.64v-51.2h85.333v51.2zm34.134-273.066h17.067v34.133h-17.067zm-25.6 68.266c0-11.093 5.973-17.067 17.067-17.067h34.133c11.093 0 17.067 5.973 17.067 17.067v136.533h-68.267zm-85.334 192.854v-27.307l11.947-11.947h47.787v51.2h-17.067-30.72zm128 174.08h-17.067v-25.6h17.067zm34.134-93.867h-34.133c-5.12 0-8.533 3.413-8.533 8.533s3.413 8.533 8.533 8.533h34.133v34.134h-25.6-34.133-25.6v-17.067h25.6c5.12 0 8.533-3.413 8.533-8.533s-3.413-8.533-8.533-8.533h-25.6v-34.133h85.333zm25.6-34.133h-17.067-102.4-17.067v-17.067h17.067 102.4 17.067zm51.2-46.08-11.947 11.947h-30.72-17.067v-51.2h47.787l11.947 11.947z"/></g></g><g/><g/><g/><g/><g/><g/><g/><g/><g/><g/><g/><g/><g/><g/><g/></svg>