<svg id="Layer_1" enable-background="new 0 0 512 512" viewBox="0 0 512 512" xmlns="http://www.w3.org/2000/svg"><g transform="translate(1 1)"><g><g><path d="m255-1c-140.8 0-256 115.2-256 256s115.2 256 256 256 256-115.2 256-256-115.2-256-256-256zm0 494.933c-131.413 0-238.933-107.52-238.933-238.933s107.52-238.933 238.933-238.933 238.933 107.52 238.933 238.933-107.52 238.933-238.933 238.933z"/><path d="m255 127c-70.827 0-128 57.173-128 128s57.173 128 128 128 128-57.173 128-128-57.173-128-128-128zm0 238.933c-61.44 0-110.933-49.493-110.933-110.933s49.493-110.933 110.933-110.933 110.933 49.493 110.933 110.933-49.493 110.933-110.933 110.933z"/><path d="m255 229.4c18.773 0 34.133-15.36 34.133-34.133s-15.36-34.133-34.133-34.133-34.133 15.36-34.133 34.133 15.36 34.133 34.133 34.133zm0-51.2c9.387 0 17.067 7.68 17.067 17.067s-7.68 17.067-17.067 17.067-17.067-7.68-17.067-17.067 7.68-17.067 17.067-17.067z"/><path d="m255 280.6c-18.773 0-34.133 15.36-34.133 34.133s15.36 34.133 34.133 34.133 34.133-15.36 34.133-34.133-15.36-34.133-34.133-34.133zm0 51.2c-9.387 0-17.067-7.68-17.067-17.067s7.68-17.067 17.067-17.067 17.067 7.68 17.067 17.067-7.68 17.067-17.067 17.067z"/><path d="m195.267 220.867c-18.773 0-34.133 15.36-34.133 34.133s15.36 34.133 34.133 34.133 34.133-15.36 34.133-34.133-15.36-34.133-34.133-34.133zm0 51.2c-9.387 0-17.067-7.68-17.067-17.067s7.68-17.067 17.067-17.067 17.067 7.68 17.067 17.067-7.681 17.067-17.067 17.067z"/><path d="m314.733 220.867c-18.773 0-34.133 15.36-34.133 34.133s15.36 34.133 34.133 34.133 34.133-15.36 34.133-34.133c.001-18.773-15.359-34.133-34.133-34.133zm0 51.2c-9.387 0-17.067-7.68-17.067-17.067s7.68-17.067 17.067-17.067 17.067 7.68 17.067 17.067-7.68 17.067-17.067 17.067z"/><path d="m204.653 58.733c23.04 0 41.813 18.773 41.813 41.813 0 5.12 3.413 8.533 8.533 8.533s8.533-3.413 8.533-8.533c0-32.427-26.453-58.88-58.88-58.88-5.12 0-8.533 3.413-8.533 8.533s3.414 8.534 8.534 8.534z"/><path d="m306.2 451.267c-23.04 0-42.667-19.627-42.667-42.667 0-5.12-3.413-8.533-8.533-8.533s-8.533 3.413-8.533 8.533c0 33.28 26.453 59.733 59.733 59.733 5.12 0 8.533-3.413 8.533-8.533s-3.413-8.533-8.533-8.533z"/><path d="m101.4 246.467c-33.28 0-59.733 26.453-59.733 59.733 0 5.12 3.413 8.533 8.533 8.533s8.533-3.413 8.533-8.533c0-23.04 19.627-42.667 42.667-42.667 5.12 0 8.533-3.413 8.533-8.533s-3.413-8.533-8.533-8.533z"/><path d="m459.8 195.267c-5.12 0-8.533 3.413-8.533 8.533 0 23.04-19.627 42.667-42.667 42.667-5.12 0-8.533 3.413-8.533 8.533s3.413 8.533 8.533 8.533c33.28 0 59.733-26.453 59.733-59.733 0-5.12-3.413-8.533-8.533-8.533z"/><path d="m145.773 154.307c2.56 0 4.267-.853 5.973-2.56 3.413-3.413 3.413-8.533 0-11.947-23.04-23.04-60.587-23.04-83.627 0-3.413 3.413-3.413 8.533 0 11.947s8.533 3.413 11.947 0c16.213-16.213 43.52-16.213 59.733 0 1.708 1.706 3.414 2.56 5.974 2.56z"/><path d="m429.933 358.253c-16.213 16.213-44.373 16.213-60.587 0-3.413-3.413-8.533-3.413-11.947 0-3.413 3.413-3.413 8.533 0 11.947 11.947 11.093 27.307 17.067 42.667 17.067s30.72-5.973 41.813-17.067c3.413-3.413 3.413-8.533 0-11.947-3.412-3.413-8.532-3.413-11.946 0z"/><path d="m152.6 357.4c-3.413-3.413-8.533-3.413-11.947 0-23.04 23.04-23.04 61.44 0 84.48 1.707 1.707 3.413 2.56 5.973 2.56 1.707 0 4.267-.853 5.973-2.56 3.413-3.413 3.413-8.533 0-11.947-16.213-16.213-16.213-44.373 0-60.587 3.414-3.413 3.414-8.533.001-11.946z"/><path d="m357.4 152.6c1.707 1.707 3.413 2.56 5.973 2.56s4.267-.853 5.973-2.56c23.04-23.04 23.04-61.44 0-84.48-3.413-3.413-8.533-3.413-11.947 0s-3.413 8.533 0 11.947c16.213 16.213 16.213 44.373 0 60.587-3.412 3.413-3.412 8.533.001 11.946z"/><path d="m246.467 255c0 5.12 3.413 8.533 8.533 8.533s8.533-3.413 8.533-8.533-3.413-8.533-8.533-8.533-8.533 3.413-8.533 8.533z"/></g></g></g><g/><g/><g/><g/><g/><g/><g/><g/><g/><g/><g/><g/><g/><g/><g/></svg>