<svg id="Layer_1" enable-background="new 0 0 512 512" viewBox="0 0 512 512" xmlns="http://www.w3.org/2000/svg"><g transform="translate(1 1)"><g><g><path d="m255-1c-140.8 0-256 115.2-256 256s115.2 256 256 256 256-115.2 256-256-115.2-256-256-256zm0 494.933c-131.413 0-238.933-107.52-238.933-238.933s107.52-238.933 238.933-238.933 238.933 107.52 238.933 238.933-107.52 238.933-238.933 238.933z"/><path d="m255 127c-70.827 0-128 57.173-128 128s57.173 128 128 128 128-57.173 128-128-57.173-128-128-128zm0 238.933c-61.44 0-110.933-49.493-110.933-110.933s49.493-110.933 110.933-110.933 110.933 49.493 110.933 110.933-49.493 110.933-110.933 110.933z"/><path d="m255 229.4c18.773 0 34.133-15.36 34.133-34.133s-15.36-34.133-34.133-34.133-34.133 15.36-34.133 34.133 15.36 34.133 34.133 34.133zm0-51.2c9.387 0 17.067 7.68 17.067 17.067s-7.68 17.067-17.067 17.067-17.067-7.68-17.067-17.067 7.68-17.067 17.067-17.067z"/><path d="m255 280.6c-18.773 0-34.133 15.36-34.133 34.133s15.36 34.133 34.133 34.133 34.133-15.36 34.133-34.133-15.36-34.133-34.133-34.133zm0 51.2c-9.387 0-17.067-7.68-17.067-17.067s7.68-17.067 17.067-17.067 17.067 7.68 17.067 17.067-7.68 17.067-17.067 17.067z"/><path d="m195.267 220.867c-18.773 0-34.133 15.36-34.133 34.133s15.36 34.133 34.133 34.133 34.133-15.36 34.133-34.133-15.36-34.133-34.133-34.133zm0 51.2c-9.387 0-17.067-7.68-17.067-17.067s7.68-17.067 17.067-17.067 17.067 7.68 17.067 17.067-7.681 17.067-17.067 17.067z"/><path d="m280.6 255c0 18.773 15.36 34.133 34.133 34.133s34.133-15.36 34.133-34.133-15.36-34.133-34.133-34.133-34.133 15.36-34.133 34.133zm51.2 0c0 9.387-7.68 17.067-17.067 17.067s-17.067-7.68-17.067-17.067 7.68-17.067 17.067-17.067 17.067 7.68 17.067 17.067z"/><path d="m246.467 255c0 5.12 3.413 8.533 8.533 8.533s8.533-3.413 8.533-8.533-3.413-8.533-8.533-8.533-8.533 3.413-8.533 8.533z"/><path d="m68.973 168.813c-4.267-1.707-9.387.853-11.093 4.267-2.56 4.267 0 9.387 4.267 11.093 4.267 2.56 9.387 0 11.093-4.267 2.56-4.266 0-9.386-4.267-11.093z"/><path d="m101.4 200.387c4.267 2.56 9.387 0 11.093-4.267 2.56-4.267 0-9.387-4.267-11.093s-9.387.853-11.093 4.267c-2.56 4.266 0 9.386 4.267 11.093z"/><path d="m408.6 308.76c-5.12-1.707-9.387 0-11.093 4.267-2.56 4.267 0 9.387 4.267 11.093 4.267 2.56 9.387 0 11.093-4.267 2.56-4.266 0-9.386-4.267-11.093z"/><path d="m447.853 324.973c-4.267-1.707-9.387 0-11.093 4.267-2.56 4.267 0 9.387 4.267 11.093 4.267 2.56 9.387 0 11.093-4.267 2.56-4.266 0-9.386-4.267-11.093z"/><path d="m330.093 73.24c4.267 2.56 9.387 0 11.093-4.267 1.707-4.267-.853-9.387-4.267-11.093-4.267-2.56-9.387 0-11.093 4.267-2.559 4.266.001 9.386 4.267 11.093z"/><path d="m313.88 112.493c4.267 2.56 9.387 0 11.093-4.267 1.707-4.267-.853-9.387-4.267-11.093-4.267-2.56-9.387 0-11.093 4.267-2.56 4.267 0 9.387 4.267 11.093z"/><path d="m196.973 396.653c-4.267-2.56-9.387 0-11.093 4.267-2.56 4.267 0 9.387 4.267 11.093 4.267 2.56 9.387 0 11.093-4.267s0-8.533-4.267-11.093z"/><path d="m180.76 436.76c-4.267-2.56-9.387 0-11.093 4.267-2.56 4.267 0 9.387 4.267 11.093 4.267 2.56 9.387 0 11.093-4.267s0-9.386-4.267-11.093z"/><path d="m179.907 74.093c4.267-1.707 5.973-6.827 4.267-11.093s-6.827-6.827-11.093-4.267c-4.267 1.707-5.973 6.827-4.267 11.093s6.826 5.974 11.093 4.267z"/><path d="m185.027 109.08c1.707 4.267 6.827 5.973 11.093 4.267s5.973-6.827 4.267-11.093c-1.707-4.267-6.827-6.827-11.093-4.267-4.267 1.706-5.974 6.826-4.267 11.093z"/><path d="m313.88 397.507c-4.267 1.707-5.973 6.827-4.267 11.093s6.827 5.973 11.093 4.267 5.973-6.827 4.267-11.093c-1.706-5.121-6.826-6.827-11.093-4.267z"/><path d="m330.947 436.76c-4.267 1.707-5.973 6.827-4.267 11.093 1.707 4.267 6.827 5.973 11.093 4.267s5.973-6.827 4.267-11.093c-2.56-4.267-6.827-6.827-11.093-4.267z"/><path d="m447 184.173c4.267-1.707 6.827-6.827 4.267-11.093-1.707-4.267-6.827-5.973-11.093-4.267s-5.973 6.827-4.267 11.093 6.826 5.974 11.093 4.267z"/><path d="m407.747 200.387c4.267-1.707 6.827-6.827 4.267-11.093-1.707-4.267-6.827-5.973-11.093-4.267s-5.973 6.827-4.267 11.093 6.826 5.973 11.093 4.267z"/><path d="m101.4 309.613c-4.267 1.707-5.973 6.827-4.267 11.093s6.827 5.973 11.093 4.267c5.12-1.707 6.827-6.827 4.267-11.093-1.706-4.267-6.826-5.973-11.093-4.267z"/><path d="m62.147 326.68c-4.267 1.707-5.973 6.827-4.267 11.093s6.827 5.973 11.093 4.267c4.267-2.56 6.827-6.827 4.267-11.093-1.707-4.267-6.827-5.974-11.093-4.267z"/></g></g></g><g/><g/><g/><g/><g/><g/><g/><g/><g/><g/><g/><g/><g/><g/><g/></svg>