<svg id="Layer_1" enable-background="new 0 0 512 512" viewBox="0 0 512 512" xmlns="http://www.w3.org/2000/svg"><g transform="translate(1 1)"><g><g><path d="m281.483 184.379c-53.848 0-97.103 43.255-97.103 97.103s43.255 97.103 97.103 97.103 97.103-43.255 97.103-97.103-43.255-97.103-97.103-97.103zm0 176.552c-44.138 0-79.448-35.31-79.448-79.448s35.31-79.448 79.448-79.448 79.448 35.31 79.448 79.448-35.31 79.448-79.448 79.448z"/><path d="m281.483 237.345c-24.717 0-44.138 19.421-44.138 44.138s19.421 44.138 44.138 44.138 44.138-19.421 44.138-44.138-19.421-44.138-44.138-44.138zm0 70.621c-15.007 0-26.483-11.476-26.483-26.483s11.476-26.483 26.483-26.483 26.483 11.476 26.483 26.483-11.476 26.483-26.483 26.483z"/><path d="m281.483 405.069c-5.297 0-8.828 3.531-8.828 8.828s3.531 8.828 8.828 8.828 8.828-3.531 8.828-8.828c-.001-5.297-3.532-8.828-8.828-8.828z"/><path d="m281.483 449.207c-5.297 0-8.828 3.531-8.828 8.828s3.531 8.828 8.828 8.828 8.828-3.531 8.828-8.828c-.001-5.297-3.532-8.828-8.828-8.828z"/><path d="m281.483 157.897c5.297 0 8.828-3.531 8.828-8.828s-3.531-8.828-8.828-8.828-8.828 3.531-8.828 8.828 3.531 8.828 8.828 8.828z"/><path d="m338.841 59.048 3.552-3.552c1.766-1.766 2.648-3.531 2.648-6.179s-.883-4.414-2.648-6.179c-8.754-8.754-18.441-16.318-28.824-22.593-.836-.712-1.752-1.24-2.708-1.593-10.193-5.874-21.022-10.518-32.271-13.844-1.804-1.319-3.913-1.869-5.972-1.638-11.726-2.943-23.856-4.47-36.156-4.47-39.724 0-77.683 15.89-105.931 44.138l-87.393 87.393c-28.248 28.248-44.138 66.207-44.138 105.931s15.89 77.683 44.138 105.931c1.766 1.766 3.531 2.648 6.179 2.648 1.766 0 4.414-.883 6.179-2.648l3.552-3.552c26.132 100.363 116.702 172.159 222.435 172.159 126.234 0 229.517-103.283 229.517-229.517 0-105.733-71.796-196.303-172.159-222.435zm-304.544 243.634 33.558-33.558c3.531-3.531 3.531-8.828 0-12.359s-8.828-3.531-12.359 0l-29.308 29.308c-3.032-7.509-5.359-15.29-6.956-23.295.566.111 1.174.166 1.836.166 1.766 0 4.414-.883 6.179-2.648l60.028-60.028c3.531-3.531 3.531-8.828 0-12.359s-8.828-3.531-12.359 0l-57.94 57.94c-.213-3.103-.322-6.233-.322-9.388 0-35.31 14.124-68.855 38.841-93.572l87.393-87.393c24.717-24.717 58.262-38.841 93.572-38.841 6.435 0 12.765.452 18.974 1.33l-62.229 62.229c-3.531 3.531-3.531 8.828 0 12.359 1.766 1.766 3.531 2.648 6.179 2.648 1.766 0 4.414-.883 6.179-2.648l70.082-70.082c6.089 1.875 12.023 4.191 17.781 6.936l-38.426 38.428c-3.531 3.531-3.531 8.828 0 12.359 1.766 1.766 3.531 2.648 6.179 2.648s4.414-.883 6.179-2.648l41.885-41.885c5.049 3.306 9.926 6.972 14.611 10.989l-8.828 8.828-256.881 256.882c-.696.464-1.263 1.055-1.715 1.715l-7.112 7.112c-5.732-6.686-10.746-13.763-15.021-21.173zm247.186 190.663c-100.635 0-187.145-70.621-207.448-169.49l249.82-249.821c98.869 20.303 169.49 106.814 169.49 207.448 0 116.525-95.338 211.863-211.862 211.863z"/><path d="m458.034 272.655c-5.297 0-8.828 3.531-8.828 8.828s3.531 8.828 8.828 8.828 8.828-3.531 8.828-8.828-3.531-8.828-8.828-8.828z"/><path d="m413.897 272.655c-5.297 0-8.828 3.531-8.828 8.828s3.531 8.828 8.828 8.828 8.828-3.531 8.828-8.828c-.001-5.297-3.532-8.828-8.828-8.828z"/><path d="m181.731 368.876c-3.531 3.531-3.531 8.828 0 12.359s8.828 3.531 12.359 0 3.531-8.828 0-12.359-8.828-3.531-12.359 0z"/><path d="m150.834 399.772c-3.531 3.531-3.531 8.828 0 12.359s8.828 3.531 12.359 0 3.531-8.828 0-12.359-9.71-3.531-12.359 0z"/><path d="m412.131 163.193c3.531-3.531 3.531-8.828 0-12.359-2.648-3.531-8.828-3.531-12.359 0s-3.531 8.828 0 12.359 8.828 3.531 12.359 0z"/><path d="m368.876 181.731c-3.531 3.531-3.531 8.828 0 12.359s8.828 3.531 12.359 0 3.531-8.828 0-12.359c-3.532-3.531-8.828-3.531-12.359 0z"/><path d="m399.772 399.772c-3.531 3.531-3.531 8.828 0 12.359s8.828 3.531 12.359 0c3.531-2.648 3.531-8.828 0-12.359s-8.828-3.531-12.359 0z"/><path d="m368.876 368.876c-3.531 3.531-3.531 8.828 0 12.359s8.828 3.531 12.359 0 3.531-8.828 0-12.359c-3.532-3.531-8.828-3.531-12.359 0z"/></g></g></g><g/><g/><g/><g/><g/><g/><g/><g/><g/><g/><g/><g/><g/><g/><g/></svg>