<svg id="Layer_1" enable-background="new 0 0 512 512" viewBox="0 0 512 512" xmlns="http://www.w3.org/2000/svg"><g transform="translate(1 1)"><g><g><path d="m511 255c0-39.877-9.248-77.697-25.693-111.432-.268-2.113-1.167-3.861-2.554-5.105-21.41-41.537-53.866-76.545-93.41-101.103-.909-.968-2.073-1.686-3.441-2.102-38.365-22.999-83.157-36.258-130.902-36.258-39.877 0-77.697 9.248-111.432 25.693-2.113.268-3.861 1.167-5.105 2.554-82.624 42.587-139.463 128.853-139.463 227.753 0 39.877 9.248 77.697 25.693 111.432.268 2.113 1.167 3.861 2.554 5.105 42.587 82.624 128.853 139.463 227.753 139.463 39.909 0 77.756-9.263 111.511-25.733 1.631-.289 3.192-1.055 4.431-2.21 82.946-42.479 140.058-128.921 140.058-228.057zm-148.672 213.294c-50.447-1.351-93.698-39.671-98.369-85.609 63.929-4.396 114.764-55.48 118.776-119.516 45.2-3.979 84.98-40.127 98.098-85.983 8.478 24.421 13.101 50.602 13.101 77.815-.001 92.877-53.714 173.808-131.606 213.293zm-107.328-324.227c61.44 0 110.933 49.493 110.933 110.933s-49.493 110.933-110.933 110.933-110.933-49.493-110.933-110.933 49.493-110.933 110.933-110.933zm119.467-95.764v27.497h-25.6c-5.12 0-8.533 3.413-8.533 8.533v25.6h-17.067c-5.12 0-8.533 3.413-8.533 8.533s3.413 8.533 8.533 8.533h25.6c5.12 0 8.533-3.413 8.533-8.533v-25.6h25.6c5.12 0 8.533-3.413 8.533-8.533v-25.105c32.304 22.639 58.814 53.04 76.761 88.444-1.351 50.447-39.671 93.698-85.609 98.369-4.396-63.929-55.48-114.764-119.516-118.776-3.979-45.2-40.127-84.98-85.983-98.098 24.42-8.477 50.602-13.1 77.814-13.1 43.442 0 84.268 11.757 119.467 32.236zm-226.795-6.597c50.447 1.351 93.698 39.671 98.37 85.609-63.929 4.396-114.764 55.48-118.776 119.516-45.2 3.979-84.98 40.127-98.098 85.983-8.478-24.42-13.101-50.602-13.101-77.814 0-92.878 53.713-173.809 131.605-213.294zm-105.966 320.622c1.351-50.447 39.671-93.698 85.609-98.37 4.396 63.929 55.48 114.764 119.516 118.776 3.979 45.2 40.127 84.98 85.983 98.098-24.421 8.478-50.602 13.101-77.815 13.101-92.877 0-173.808-53.713-213.293-131.605z"/><path d="m246.467 212.333h17.067c9.387 0 17.067-7.68 17.067-17.067v-17.066c0-9.387-7.68-17.067-17.067-17.067h-17.067c-9.387 0-17.067 7.68-17.067 17.067v17.067c0 9.386 7.68 17.066 17.067 17.066zm0-34.133h17.067v17.067h-17.067z"/><path d="m246.467 348.867h17.067c9.387 0 17.067-7.68 17.067-17.067v-17.067c0-9.387-7.68-17.067-17.067-17.067h-17.067c-9.387 0-17.067 7.68-17.067 17.067v17.067c0 9.387 7.68 17.067 17.067 17.067zm0-34.134h17.067v17.067h-17.067z"/><path d="m314.733 280.6h17.067c9.387 0 17.067-7.68 17.067-17.067v-17.067c0-9.387-7.68-17.067-17.067-17.067h-17.067c-9.387 0-17.067 7.68-17.067 17.067v17.067c.001 9.387 7.681 17.067 17.067 17.067zm0-34.133h17.067v17.067h-17.067z"/><path d="m161.133 246.467v17.067c0 9.387 7.68 17.067 17.067 17.067h17.067c9.387 0 17.067-7.68 17.067-17.067v-17.067c0-9.387-7.68-17.067-17.067-17.067h-17.067c-9.387 0-17.067 7.68-17.067 17.067zm17.067 0h17.067v17.067h-17.067z"/></g></g></g><g/><g/><g/><g/><g/><g/><g/><g/><g/><g/><g/><g/><g/><g/><g/></svg>