<svg id="Layer_1" enable-background="new 0 0 512.853 512.853" viewBox="0 0 512.853 512.853" xmlns="http://www.w3.org/2000/svg"><g transform="translate(1 1)"><g><g><path d="m447 429.933c-7.795-5.846-15.591-10.208-23.763-14.217 1.542-3.57 2.429-7.476 2.429-11.383 0-7.68-2.56-15.36-8.533-20.48-9.454-8.193-17.512-14.52-25.892-19.333 1.287-3.561 1.999-7.355 1.999-11.387 0-7.68-2.56-15.36-6.827-20.48-10.24-11.947-20.48-19.627-32.427-25.6-.853 0-.853 0-.853 0-13.239-7.009-30.755-11.881-51.874-15.274l-1.033-10.326c-1.707-15.36-14.507-27.307-29.867-27.307h-5.973v-119.17c33.555-4.235 59.733-33.054 59.733-67.71.001-37.546-30.719-68.266-68.266-68.266s-68.267 30.72-68.267 68.267c0 34.656 26.178 63.475 59.733 67.71v119.17h-6.827c-15.36 0-28.16 11.947-29.867 27.307l-1.061 10.607c-20.346 3.38-37.263 8.176-50.139 14.993-.853 0-.853 0-.853 0-11.947 5.973-22.187 14.507-32.427 26.453-4.267 5.973-6.827 12.8-6.827 20.48 0 3.732.609 7.259 1.72 10.49-8.899 4.709-17.331 10.907-27.32 20.23-5.12 5.12-8.533 12.8-8.533 20.48 0 3.327.482 6.652 1.512 9.771-7.838 3.795-15.344 8.496-22.846 14.122-7.68 5.973-12.8 15.36-12.8 24.747s4.267 18.773 12.8 24.747c29.016 21.333 63.149 32.426 100.696 32.426.853 0 .853 0 .853.853h180.053c38.4 0 72.533-11.093 101.547-32.427 7.68-5.973 12.8-15.36 12.8-24.747s-4.267-18.772-12.8-24.746zm-242.347-362.666c0-28.16 23.04-51.2 51.2-51.2s51.2 23.04 51.2 51.2-23.04 51.2-51.2 51.2-51.2-23.04-51.2-51.2zm36.694 204.8h29.867c6.827 0 11.947 5.12 12.8 11.947l4.249 42.487c-.089 3.949-.973 7.145-3.395 9.567-2.56 2.56-5.973 4.267-9.387 4.267h-38.4c-3.413 0-6.827-1.707-9.387-4.267-2.399-3.199-3.289-6.398-3.392-9.596l4.246-42.457c.852-6.828 5.972-11.948 12.799-11.948zm-102.4 72.533c8.533-10.24 17.067-16.213 26.453-21.333.853 0 .853 0 1.707-.853 10.012-5.006 24.111-10.006 40.686-12.619l-1.433 14.325c-.853 8.533 1.707 17.067 7.68 23.04 5.973 6.827 13.653 10.24 22.187 10.24h.853 37.547.853c8.533 0 16.213-4.267 22.187-10.24s8.533-14.507 7.68-23.04l-1.707-14.507c17.067 2.56 31.573 7.68 41.813 12.8 0 .853 0 .853.853.853 9.387 5.12 17.067 11.093 25.6 21.333 1.707 2.56 2.56 5.973 2.56 9.387 0 3.413-.853 6.826-2.56 9.386-6.24 7.627-13.184 13.845-20.604 18.541-2.283 1.445-4.611 2.745-6.977 3.899-2.366 1.153-4.771 2.159-7.207 3.014-1.218.427-2.444.817-3.677 1.169s-2.473.665-3.72.94c-4.363.962-8.802 1.452-13.282 1.452h-122.026c-20.48 0-40.107-10.24-55.467-29.013-1.707-2.56-2.56-5.973-2.56-9.387.001-3.414.854-6.827 2.561-9.387zm-32.427 51.2c8.385-7.546 15.945-13.435 23.492-17.686 18.138 20.09 40.526 30.486 64.402 30.486h122.88c.762 0 1.523-.012 2.284-.034.208-.006.417-.019.625-.027.554-.021 1.107-.042 1.66-.075.24-.014.479-.036.719-.052.523-.036 1.045-.072 1.567-.118.245-.022.49-.05.734-.074.516-.051 1.032-.102 1.547-.163.249-.03.498-.065.746-.097.509-.065 1.017-.131 1.525-.207.261-.039.522-.083.783-.125.491-.078.982-.157 1.472-.244.282-.05.563-.106.845-.159.464-.088.927-.177 1.389-.273.313-.065.626-.135.938-.204.423-.093.846-.187 1.267-.288.357-.085.712-.174 1.068-.264.366-.092.732-.185 1.097-.283.415-.111.83-.227 1.245-.344.291-.083.582-.166.872-.252.492-.145.982-.296 1.473-.451.192-.061.384-.122.576-.184.594-.192 1.186-.392 1.778-.598.058-.02.116-.041.174-.061 13.853-4.864 27.099-13.574 38.764-25.976 7.582 4.234 15.174 9.33 23.598 17.754 1.707 2.56 3.413 5.12 3.413 8.533s-.853 6.827-3.413 8.533c-19.627 18.773-46.08 29.013-72.533 29.013h-154.454c-26.453 0-52.053-10.24-72.533-29.013-1.707-2.56-3.413-5.12-3.413-8.533 0-3.414.853-6.827 3.413-8.534zm331.093 69.12c-26.453 19.627-57.173 29.013-91.307 29.013h-180.906c-34.133 0-64.853-9.387-91.307-29.013-3.413-2.56-5.973-6.827-5.973-11.093s2.56-8.533 5.973-11.093c7.68-5.12 15.36-10.24 23.04-13.653 2.443 2.081 4.946 4.059 7.5 5.945 20.461 15.597 44.978 24.158 70.743 24.741.94.022 1.881.033 2.824.033h155.307c29.867 0 58.027-10.24 81.067-30.72 8.533 3.413 15.36 7.68 23.04 13.653 3.413 2.56 5.973 6.827 5.973 11.093s-1.707 8.534-5.974 11.094z"/><path d="m264.387 75.8v17.067c0 5.12 3.413 8.533 8.533 8.533s8.533-3.413 8.533-8.533v-51.2c0-5.12-3.413-8.533-8.533-8.533s-8.533 3.413-8.533 8.533v17.067h-17.067v-17.067c0-5.12-3.413-8.533-8.533-8.533s-8.533 3.413-8.533 8.533v51.2c0 5.12 3.413 8.533 8.533 8.533s8.533-3.413 8.533-8.533v-17.067z"/></g></g></g><g/><g/><g/><g/><g/><g/><g/><g/><g/><g/><g/><g/><g/><g/><g/></svg>