<svg id="Layer_1" enable-background="new 0 0 504.446 504.446" viewBox="0 0 504.446 504.446" xmlns="http://www.w3.org/2000/svg"><g transform="translate(1 1)"><g><g><path d="m251.643 74.961h-.839c-82.256 0-159.475 28.538-206.479 74.702-29.377 30.216-45.325 64.629-45.325 101.56 0 96.525 113.311 176.262 252.643 176.262 3.357 0 7.554-2.518 8.393-5.875 33.574-111.633 33.574-229.141 0-340.774-1.679-3.357-5.036-5.875-8.393-5.875zm-5.876 336.577c-127.58-2.518-229.98-73.023-229.98-159.475 0-31.895 14.269-62.951 41.128-89.81 42.807-43.646 113.311-69.666 188.852-70.505 30.217 104.918 30.217 214.872 0 319.79z"/><path d="m503.446 251.223c0-5.036-3.357-8.393-8.393-8.393h-110.575c.68-12.198 3.021-25.627 8.175-39.449 3.63-9.727 6.027-19.001 7.508-27.698h94.892c5.036 0 8.393-3.357 8.393-8.393s-3.357-8.393-8.393-8.393h-93.053c1.578-32.27-8.751-53.365-9.347-54.557-1.679-3.357-6.715-5.036-10.911-3.357-3.357 1.679-5.036 6.715-3.357 10.911.6 0 9.331 18.427 7.848 47.003h-75.834c-5.036 0-8.393 3.357-8.393 8.393s3.357 8.393 8.393 8.393h73.858c-1.266 6.902-3.158 14.202-5.871 21.823-5.792 15.927-8.319 31.366-8.965 45.325h-59.022c-5.036 0-8.393 3.357-8.393 8.393s3.357 8.393 8.393 8.393h59.104c1.436 25.771 8.386 43.493 8.883 44.485 0 .365 3.488 8.978 5.916 22.662h-73.903c-5.036 0-8.393 3.357-8.393 8.393s3.357 8.393 8.393 8.393h75.912c.99 15.891-.404 35.226-7.925 55.397-1.679 4.197.839 9.233 5.036 10.911.839.839 1.679.839 2.518.839 3.357 0 6.715-2.518 6.715-5.875 8.442-22.287 10.225-43.62 9.288-61.272h93.112c5.036 0 8.393-3.357 8.393-8.393s-3.357-8.393-8.393-8.393h-94.882c-2.675-16.895-7.133-27.766-7.518-28.538-.491-.491-6.734-15.946-8.122-38.61h110.522c5.033 0 8.391-3.357 8.391-8.393z"/></g></g></g><g/><g/><g/><g/><g/><g/><g/><g/><g/><g/><g/><g/><g/><g/><g/></svg>