<svg id="Layer_1" enable-background="new 0 0 512 512" viewBox="0 0 512 512" xmlns="http://www.w3.org/2000/svg"><g transform="translate(1 1)"><g><path d="m284.867 383c-25.253 0-46.375-18.533-50.47-42.667h7.803c5.12 0 8.533-3.413 8.533-8.533v-25.6h34.133c5.12 0 8.533-3.413 8.533-8.533v-238.934c0-5.12-3.413-8.533-8.533-8.533h-25.6v-42.667c0-5.12-3.413-8.533-8.533-8.533h-34.133c-5.12 0-8.533 3.413-8.533 8.533v42.667h-25.6v-42.667c0-5.12-3.413-8.533-8.533-8.533h-34.134c-5.12 0-8.533 3.413-8.533 8.533v42.667h-17.067c-5.12 0-8.533 3.413-8.533 8.533v238.933c0 5.12 3.413 8.533 8.533 8.533h34.133v25.6c0 5.12 3.413 8.533 8.533 8.533h8.844c4.414 61.764 56.319 110.933 119.156 110.933 28.16 0 51.2 23.04 51.2 51.2 0 5.12 3.413 8.533 8.533 8.533h51.2c5.12 0 8.533-3.413 8.533-8.533.001-65.705-53.759-119.465-119.465-119.465zm-59.734-366.933h17.067v34.133h-17.067zm-76.8 0h17.067v34.133h-17.067zm-25.6 256h34.133c5.12 0 8.533-3.413 8.533-8.533s-3.412-8.534-8.532-8.534h-34.133v-17.067h51.2c5.12 0 8.533-3.413 8.533-8.533s-3.413-8.533-8.533-8.533h-51.2v-153.6h17.066 34.133 42.667 34.133 25.6v17.067h-34.133c-5.12 0-8.533 3.413-8.533 8.533s3.413 8.533 8.533 8.533h34.133v17.067h-51.2c-5.12 0-8.533 3.413-8.533 8.533s3.413 8.533 8.533 8.533h51.2v153.6h-34.133-85.333-34.133v-17.066zm110.934 34.133v17.067h-8.533-51.2-8.534v-17.067zm118.613 187.733c-4.267-33.28-32.427-59.733-67.413-59.733-53.76 0-98.133-40.96-102.4-93.867h34.133c4.267 33.28 32.427 59.733 67.413 59.733 53.76 0 98.133 40.96 102.4 93.867z"/></g></g><g/><g/><g/><g/><g/><g/><g/><g/><g/><g/><g/><g/><g/><g/><g/></svg>