<svg id="Layer_1" enable-background="new 0 0 512 512" viewBox="0 0 512 512" xmlns="http://www.w3.org/2000/svg"><g transform="translate(1 1)"><g><g><path d="m215.525 410.307 2.56-10.24 5.973 5.973c2.56 3.413 7.68 3.413 11.093.853l22.187-17.067c3.413-3.413 4.267-8.533 1.707-11.947-6.528-9.429-10.578-21.953-11.65-37.547h8.237c5.12 0 8.533-3.413 8.533-8.533v-25.6h34.133c5.12 0 8.533-3.413 8.533-8.533v-238.933c0-5.12-3.413-8.533-8.533-8.533h-42.667v-42.667c0-5.12-3.413-8.533-8.533-8.533h-34.133c-5.12 0-8.533 3.413-8.533 8.533v42.667h-17.067v-42.667c0-5.12-3.413-8.533-8.533-8.533h-34.133c-5.12 0-8.533 3.413-8.533 8.533v42.667h-8.533c-5.12 0-8.533 3.413-8.533 8.533v238.933c0 5.12 3.413 8.533 8.533 8.533h34.133v25.6c0 5.12 3.413 8.533 8.533 8.533h8.717c1.121 28.699 8.012 53.102 22.003 72.533.853 2.56 4.267 4.267 6.827 4.267h.853c3.412-.852 5.972-3.412 6.826-6.825zm5.973-394.24h17.067v34.133h-17.067zm-68.267 0h17.067v34.133h-17.067zm-17.066 196.266h25.6c5.12 0 8.533-3.413 8.533-8.533v-17.067h8.533c5.12 0 8.533-3.413 8.533-8.533s-3.413-8.533-8.533-8.533h-17.067c-5.12 0-8.533 3.413-8.533 8.533v17.067h-17.067v-128h8.533 34.133 34.133 34.133 42.667v221.867h-34.133-85.333-34.133v-76.801zm110.933 93.867v17.067h-8.533-51.2-8.533v-17.067zm-35.84 69.12c-3.413.853-5.12 2.56-5.973 5.973v1.707c-5.12-12.8-7.68-27.307-8.533-42.667h34.133c.853 16.213 4.267 29.867 10.24 40.96l-10.24 7.68-11.947-11.947c-1.707-1.707-3.413-2.56-5.973-2.56-.854.001-1.707.001-1.707.854z"/><path d="m390.458 502.467v-17.067c0-11.093-2.56-38.4-24.747-60.587s-49.493-24.747-60.587-24.747h-1.707c-.853 0-23.04 0-23.04 0-2.56 0-5.12.853-6.827 3.413l-14.507 22.187h-29.013c-3.413 0-6.827 2.56-7.68 5.973-1.707 3.413 0 6.827 2.56 9.387 33.28 26.453 69.12 28.16 81.92 27.307 1.707 0 7.68.853 11.947 5.12 5.12 5.12 5.12 11.093 5.12 11.947v17.067c0 5.12 3.413 8.533 8.533 8.533h51.2c5.121 0 8.535-3.413 6.828-8.533zm-15.36-8.534h-33.28v-8.533c0-3.413-.853-14.507-10.24-23.893-8.533-8.533-18.773-10.24-23.893-10.24-8.533.853-26.453 0-46.08-8.533h2.56c2.56 0 5.12-1.707 6.827-3.413l14.507-22.187h19.627 1.707c8.533 0 29.867 1.707 48.64 19.627 17.92 18.773 19.627 40.107 19.627 48.64v8.532z"/><path d="m181.391 445.293-17.067 17.067c-3.413 3.413-3.413 8.533 0 11.947 1.707 1.707 3.413 2.56 5.973 2.56s4.267-.853 5.973-2.56l17.067-17.067c3.413-3.413 3.413-8.533 0-11.947-3.412-3.413-8.532-3.413-11.946 0z"/><path d="m221.498 468.333c-5.12 0-8.533 3.413-8.533 8.533v25.6c0 5.12 3.413 8.533 8.533 8.533s8.533-3.413 8.533-8.533v-25.6c0-5.119-3.413-8.533-8.533-8.533z"/><path d="m178.831 417.133c0-5.12-3.413-8.533-8.533-8.533h-25.6c-5.12 0-8.533 3.413-8.533 8.533s3.413 8.533 8.533 8.533h25.6c5.12.001 8.533-3.413 8.533-8.533z"/></g></g></g><g/><g/><g/><g/><g/><g/><g/><g/><g/><g/><g/><g/><g/><g/><g/></svg>