<svg id="Layer_1" enable-background="new 0 0 512 512" viewBox="0 0 512 512" xmlns="http://www.w3.org/2000/svg"><g transform="translate(1 1)"><g><g><path d="m511 92.867c0-2.56-.853-4.267-2.56-5.973l-85.333-85.334c-1.707-1.707-3.414-2.56-5.974-2.56s-4.267.853-5.973 2.56l-84.08 84.88-6.374-6.374c-7.68-8.533-18.773-12.8-29.867-12.8s-21.333 4.267-29.867 12.8l-16.015 16.015c-.656.249-1.294.594-1.905 1.052-3.413 2.56-4.267 7.68-2.56 11.093l11.947 23.893c5.973 11.093 3.413 24.747-5.12 33.28l-34.987 34.987c-10.24 9.387-10.24 25.6 0 35.84l60.587 60.587c5.12 5.12 11.093 7.68 17.92 7.68s13.653-2.56 17.067-8.533l34.987-34.987c8.533-8.533 22.187-11.093 33.28-5.12l23.893 11.947c.575.23 1.15.41 1.721.547 1.206.767 2.536 1.16 4.253 1.16 1.707 0 4.267-.853 5.12-2.56l17.92-17.92c16.213-17.067 16.213-44.373 0-60.587l-5.52-5.52 84.88-84.08c1.707-1.707 2.56-3.413 2.56-5.973zm-178.347 157.013-34.987 34.987c-3.413 3.413-8.533 3.413-11.947 0l-60.587-60.587c-3.413-3.413-3.413-8.533 0-11.947l34.987-34.987c10.966-10.966 15.247-26.933 12.048-42.135 8.504 5.929 17.822 11.416 28.059 16.535 3.2 1.867 6.567 3.983 10.022 6.35 2.073 1.42 4.178 2.93 6.298 4.53 5.653 4.267 11.413 9.173 16.96 14.72 4.853 4.48 9.38 9.287 13.366 14.206.569.703 1.128 1.408 1.674 2.114 4.373 5.653 8 11.413 10.56 16.96v.001c5.12 10.24 10.24 18.773 16.213 27.306-15.359-4.266-31.572.854-42.666 11.947zm84.48-13.653-11.947 11.947c-11.947-12.8-22.187-27.307-31.573-46.08-6.827-11.947-17.067-25.6-29.013-37.547-11.947-12.8-25.6-23.04-37.547-29.013-17.92-9.387-33.28-19.627-46.08-31.573l12.8-11.947c9.387-9.387 26.453-9.387 35.84 0l107.52 108.373c10.24 9.386 10.24 25.6 0 35.84zm-5.12-65.707-72.533-72.533 77.653-78.507 73.387 73.387z"/><path d="m284.867 189.293c-3.413-3.413-8.533-3.413-11.947 0l-23.893 23.893c-1.707 1.707-2.56 3.413-2.56 5.973 0 1.707.853 4.267 2.56 5.973l35.84 35.84c1.707 1.707 3.413 2.56 5.973 2.56s5.12-.853 6.827-2.56l23.04-23.893c3.413-3.413 3.413-8.533 0-11.947zm5.973 53.76-23.893-23.893 11.947-11.947 23.893 23.893z"/><path d="m290.84 339.48-120.32-120.32c-3.413-3.413-8.533-3.413-11.947 0l-84.48 84.48c-3.413 3.413-3.413 8.533 0 11.947l11.918 11.918-84.451 83.655c-1.707 1.707-2.56 3.413-2.56 5.973s.853 4.267 2.56 5.973l85.333 85.333c1.707 1.707 3.413 2.56 5.973 2.56s4.267-.853 5.973-2.56l83.655-84.452 11.918 11.918c1.707 1.707 3.413 2.56 5.973 2.56s5.12-.853 5.973-2.56l84.48-84.48c3.415-3.412 3.415-8.532.002-11.945zm-197.973 151.04-73.387-73.387 78.507-77.653 72.533 72.533zm107.52-72.533-11.946-11.946s0 0-.001-.001l-84.48-84.48s0 0-.001-.001l-11.946-11.946 72.533-72.533 108.374 108.373z"/><path d="m127.853 308.76c-3.413 3.413-3.413 8.533 0 11.947l60.587 60.587c1.707 1.707 3.413 2.56 5.973 2.56s4.267-.853 5.973-2.56l35.84-35.84c3.413-3.413 3.413-8.533 0-11.947l-60.586-60.587c-3.413-3.413-8.533-3.413-11.947 0zm42.667-17.067 48.64 48.64-23.893 23.893-48.64-48.64z"/><path d="m155.16 116.76c1.707.853 4.267 1.707 5.973 1.707h42.667c5.12 0 8.533-3.413 8.533-8.533s-3.413-8.533-8.533-8.533h-22.187l53.76-53.76c3.413-3.413 3.413-8.533 0-11.947s-8.533-3.413-11.947 0l-53.76 53.76v-22.187c0-5.12-3.413-8.533-8.533-8.533s-8.533 3.413-8.533 8.533v43.52.853c0 1.707.853 2.56 1.707 4.267 0 0 0 .853.853.853z"/><path d="m354.84 393.24c-1.707-.853-4.267-1.707-5.973-1.707h-42.667c-5.12 0-8.533 3.413-8.533 8.533s3.413 8.533 8.533 8.533h22.187l-53.76 53.76c-3.413 3.413-3.413 8.533 0 11.947 1.707 1.707 3.413 2.56 5.973 2.56s4.267-.853 5.973-3.413l53.76-53.76v22.187c0 5.12 3.413 8.533 8.533 8.533s8.534-3.413 8.534-8.533v-42.667-.853c0-1.707-.853-2.56-1.707-4.267 0 0 0-.853-.853-.853z"/></g></g></g><g/><g/><g/><g/><g/><g/><g/><g/><g/><g/><g/><g/><g/><g/><g/></svg>