<svg id="Layer_1" enable-background="new 0 0 512 512" viewBox="0 0 512 512" xmlns="http://www.w3.org/2000/svg"><g transform="translate(1 1)"><g><g><path d="m374.467-1c-53.547 0-100.143 31.245-122.479 76.399l-214.93 214.93c-23.124 17.055-38.058 44.499-38.058 75.604 0 51.753 41.334 93.377 92.969 93.855.015.003.03.008.045.011l332.237 48.62c5.568 1.577 11.415 2.462 17.45 2.554l.18.026h.853c37.546.001 68.266-30.719 68.266-68.266v-307.2c0-75.093-61.44-136.533-136.533-136.533zm0 17.067c65.707 0 119.467 53.76 119.467 119.467s-53.761 119.466-119.467 119.466-119.467-53.76-119.467-119.467c0-18.379 4.209-35.822 11.706-51.417.183-.322.346-.649.483-.984 19.502-39.626 60.339-67.065 107.278-67.065zm-358.4 349.866c0-24.832 11.575-46.758 29.652-60.762.532-.315 1.037-.711 1.536-1.171 12.724-9.352 28.476-14.867 45.612-14.867 42.667 0 76.8 34.133 76.8 76.8s-34.133 76.8-76.8 76.8-76.8-34.133-76.8-76.8zm426.666 128c-28.16 0-51.2-23.04-51.2-51.2s23.04-51.2 51.2-51.2 51.2 23.04 51.2 51.2-23.04 51.2-51.2 51.2zm51.2-96.205c-12.535-14.233-30.859-23.261-51.2-23.261-37.547 0-68.267 30.72-68.267 68.267 0 16.829 6.185 32.275 16.377 44.21l-255.203-37.347c30.397-15.49 51.093-47.042 51.093-83.663 0-52.053-41.813-93.867-93.867-93.867-5.041 0-9.985.397-14.806 1.152l162.073-162.073c-1.443 7.919-2.2 16.068-2.2 24.387 0 75.093 61.44 136.533 136.533 136.533 51.245 0 96.125-28.617 119.467-70.656z"/><path d="m442.733 434.2c-5.12 0-8.533 3.413-8.533 8.533s3.413 8.533 8.533 8.533 8.533-3.413 8.533-8.533-3.413-8.533-8.533-8.533z"/><path d="m374.467 84.333c5.12 0 8.533-3.413 8.533-8.533s-3.413-8.533-8.533-8.533-8.533 3.413-8.533 8.533 3.413 8.533 8.533 8.533z"/><path d="m374.467 186.733c-5.12 0-8.533 3.413-8.533 8.533s3.413 8.533 8.533 8.533 8.533-3.413 8.533-8.533-3.413-8.533-8.533-8.533z"/><path d="m135.533 365.933c0-23.893-18.773-42.667-42.667-42.667-23.893 0-42.667 18.773-42.667 42.667s18.774 42.667 42.668 42.667c23.893 0 42.666-18.773 42.666-42.667zm-68.266 0c0-14.507 11.093-25.6 25.6-25.6s25.6 11.093 25.6 25.6-11.093 25.6-25.6 25.6-25.6-11.093-25.6-25.6z"/><path d="m434.2 144.067c5.12 0 8.533-3.413 8.533-8.533s-3.413-8.534-8.533-8.534-8.533 3.413-8.533 8.533 3.413 8.534 8.533 8.534z"/><path d="m314.733 144.067c5.12 0 8.533-3.413 8.533-8.533s-3.413-8.534-8.533-8.534-8.533 3.413-8.533 8.533 3.413 8.534 8.533 8.534z"/><path d="m331.8 101.4c5.12 0 8.533-3.413 8.533-8.533s-3.413-8.533-8.533-8.533-8.533 3.413-8.533 8.533 3.413 8.533 8.533 8.533z"/><path d="m417.133 169.667c-5.12 0-8.533 3.413-8.533 8.533s3.413 8.533 8.533 8.533 8.533-3.413 8.533-8.533-3.413-8.533-8.533-8.533z"/><path d="m417.133 101.4c5.12 0 8.533-3.413 8.533-8.533s-3.413-8.533-8.533-8.533-8.533 3.413-8.533 8.533 3.413 8.533 8.533 8.533z"/><path d="m331.8 169.667c-5.12 0-8.533 3.413-8.533 8.533s3.413 8.533 8.533 8.533 8.533-3.413 8.533-8.533-3.413-8.533-8.533-8.533z"/><path d="m374.467 237.933c56.32 0 102.4-46.08 102.4-102.4s-46.08-102.4-102.4-102.4-102.4 46.08-102.4 102.4 46.08 102.4 102.4 102.4zm0-187.733c46.933 0 85.333 38.4 85.333 85.333s-38.4 85.333-85.333 85.333-85.333-38.4-85.333-85.333 38.399-85.333 85.333-85.333z"/><path d="m374.467 169.667c18.773 0 34.133-15.36 34.133-34.133s-15.36-34.133-34.133-34.133-34.133 15.36-34.133 34.133c-.001 18.773 15.359 34.133 34.133 34.133zm0-51.2c9.387 0 17.067 7.68 17.067 17.067s-7.68 17.067-17.067 17.067-17.067-7.68-17.067-17.067 7.68-17.067 17.067-17.067z"/></g></g></g><g/><g/><g/><g/><g/><g/><g/><g/><g/><g/><g/><g/><g/><g/><g/></svg>