<svg id="Layer_1" enable-background="new 0 0 512 512" viewBox="0 0 512 512" xmlns="http://www.w3.org/2000/svg"><g transform="translate(1 1)"><g><path d="m509.506 257.53c-5.294-20.847-24.09-36.664-47.146-36.664h-56.32c-22.918 0-42.621 16.016-47.482 38.052-.743 1.29-1.158 2.847-1.158 4.615v5.973 28.16 8.533h-17.067v-25.6c0-5.12-3.413-8.533-8.533-8.533h-29.013c-3.901-3.344-8.534-5.952-13.653-7.364v-18.236h8.533c5.12 0 8.533-3.413 8.533-8.533v-34.133h8.533c14.507 0 25.6-11.093 25.6-25.6 0-5.12-3.413-8.533-8.533-8.533s-8.533 3.413-8.533 8.533-3.413 8.533-8.533 8.533h-8.534v-25.6h8.533c14.507 0 25.6-11.093 25.6-25.6 0-5.12-3.413-8.533-8.533-8.533s-8.533 3.413-8.533 8.533-3.413 8.533-8.533 8.533h-8.534v-25.6h8.533c14.507 0 25.6-11.093 25.6-25.6 0-5.12-3.413-8.533-8.533-8.533s-8.533 3.413-8.533 8.533-3.413 8.533-8.533 8.533h-8.534v-25.599h34.133c5.12 0 8.533-3.413 8.533-8.533v-34.134c0-5.12-3.413-8.533-8.533-8.533h-17.067v-8.533c0-5.12-3.413-8.533-8.533-8.533s-8.533 3.413-8.533 8.533v8.533h-17.067v-17.067c0-5.12-3.413-8.533-8.533-8.533s-8.533 3.413-8.533 8.533v17.067h-25.6v-8.533c0-5.12-3.413-8.533-8.533-8.533s-8.533 3.413-8.533 8.533v8.533h-8.533c-5.12 0-8.533 3.413-8.533 8.533v34.133c0 5.12 3.413 8.533 8.533 8.533h34.132v25.6h-8.533c-14.507 0-25.6 11.093-25.6 25.6 0 5.12 3.413 8.533 8.533 8.533s8.533-3.413 8.533-8.533 3.413-8.533 8.533-8.533h8.534v25.6h-8.533c-14.507 0-25.6 11.093-25.6 25.6 0 5.12 3.413 8.533 8.533 8.533s8.533-3.413 8.533-8.533 3.413-8.533 8.533-8.533h8.534v25.6h-8.533c-14.507 0-25.6 11.093-25.6 25.6 0 5.12 3.413 8.533 8.533 8.533s8.533-3.413 8.533-8.533 3.413-8.533 8.533-8.533h8.534v34.133c0 5.12 3.413 8.533 8.533 8.533h8.533v18.154c-14.679 3.814-25.6 17.216-25.6 33.046 0 18.773 15.36 34.133 34.133 34.133 2.56 0 5.973 0 8.533-.853v17.92h-34.132c-7.567 0-14.578 2.498-20.253 6.707l-223.8-83.507c-4.267-1.707-9.387.853-11.093 5.12s.853 9.387 5.12 11.093l218.867 80.85c-.768 1.712-1.406 3.492-1.886 5.337h-214.422c-5.12.001-8.533 3.414-8.533 8.534s3.413 8.533 8.533 8.533h214.421c3.814 14.679 17.216 25.6 33.046 25.6h34.133v25.6c0 5.12 3.413 8.533 8.533 8.533h59.734v11.093c0 7.849 1.891 15.316 5.246 21.946.132.269.268.535.405.8.073.138.144.276.219.412 6.248 11.835 17.278 20.488 30.336 23.888.137.036.276.068.414.103.585.147 1.172.284 1.764.41.246.052.493.102.741.15.499.098 1 .188 1.504.27.295.048.59.096.886.139.479.069.96.129 1.443.184.306.035.611.073.92.103.518.05 1.04.086 1.562.119.269.017.536.041.806.054.794.038 1.592.061 2.394.061h11.093 42.667 2.56c.817 0 1.629-.024 2.438-.064.045-.002.09-.007.136-.009 16.966-.876 31.914-10.373 39.798-25.022 3.975-7.017 6.268-15.059 6.268-23.545v-29.013-34.133-33.28-34.132-34.987-27.307-6.827c0-2.018-.537-3.765-1.494-5.149zm-280.106-215.863h102.4v17.067h-34.133-34.133-34.134zm42.667 34.133h17.067v25.6h-17.067zm0 42.667h17.067v25.6h-17.067zm0 42.666h17.067v25.6h-17.067zm17.066 42.667v25.6h-17.067v-25.6zm204.8 221.867h-29.013l8.533-17.067h20.48zm0-68.267h-29.013l-8.533-17.067h37.547v17.067zm0-68.267h-20.48l8.533-17.067h11.947zm-87.893-51.2h56.32c11.694 0 22.185 6.412 27.632 16.213h-13.125c-3.413 0-5.973 2.56-7.68 5.12l-17.067 34.134c-1.707 2.56-1.707 5.973 0 8.533s5.12 4.267 7.68 4.267h34.133v17.067h-51.2c-2.56 0-6.827.853-7.68 3.413s-1.707 5.973 0 8.533l17.067 34.133c1.707 3.413 4.267 5.12 7.68 5.12h34.133v16.213h-25.6c-3.413 0-5.973 2.56-7.68 5.12l-17.067 34.133c-1.707 2.56-1.707 5.973 0 8.533s5.12 4.267 7.68 4.267h42.667v17.068h-51.2c-2.56 0-6.827.853-7.68 3.413s-1.707 5.973 0 8.533l11.093 22.187h-24.32l-14.08-28.16c-1.707-3.413-4.267-5.12-7.68-5.12h-25.6v-17.92h34.134c3.413 0 5.973-1.707 7.68-4.267l17.067-34.133c1.707-2.56 1.707-5.973 0-8.533s-5.12-4.267-7.68-4.267h-51.2v-17.067h42.667c2.56 0 6.827-.853 7.68-3.413s1.707-5.973 0-8.533l-17.067-34.133c-1.707-3.413-4.267-5.12-7.68-5.12h-25.6v-8.533-8.534h42.667c3.413 0 5.973-1.707 7.68-4.267l17.066-34.133c1.707-2.56 1.707-5.973 0-8.533s-5.12-4.267-7.68-4.267h-56.21c5.172-10.032 15.574-17.067 28.05-17.067zm82.053 242.742c-2.611 3.577-5.892 6.63-9.671 8.907-.13.077-.26.154-.392.229-.248.145-.502.28-.755.418-3.718 1.988-7.908 3.253-12.409 3.599l-8.48-16.961h34.023c-.682 1.325-1.457 2.596-2.316 3.808zm-102.937 5.393c-2.25-2.022-4.243-4.365-5.913-6.94-.459-.732-.885-1.488-1.284-2.262h16.134l8.433 16.866c-6.56-.729-12.592-3.473-17.37-7.664zm-10.689-145.735h20.48l8.533 17.067h-29.013zm0 68.267h37.547l-8.533 17.067h-29.013v-17.067zm0-136.533h46.08l-8.533 17.067h-37.547zm-119.467 128c-9.387 0-17.067-7.68-17.067-17.067 0-4.685 1.914-8.945 4.998-12.037.089-.086.186-.16.271-.25 3.071-2.951 7.228-4.78 11.797-4.78h34.133v34.133h-34.132zm51.2 34.133v-25.6-51.2-40.96c0-3.413-1.707-5.973-5.12-7.68-3.413-.853-6.827-.853-9.387 1.707-1.707 1.707-5.973 4.267-11.093 4.267-9.387 0-17.067-7.68-17.067-17.067s7.68-17.067 17.067-17.067c5.12 0 9.387 1.707 12.8 5.973.853 1.707 3.413 2.56 5.973 2.56h23.893v25.6c0 5.12 3.413 8.533 8.533 8.533h25.6v8.533 34.133 34.133 34.135z"/></g></g><g/><g/><g/><g/><g/><g/><g/><g/><g/><g/><g/><g/><g/><g/><g/></svg>