<svg id="Layer_1" enable-background="new 0 0 512 512" viewBox="0 0 512 512" xmlns="http://www.w3.org/2000/svg"><g transform="translate(1 1)"><g><g><path d="m493.933 253.293c-.005-.853-.027-1.7-.038-2.551-.013-1.165-.027-2.329-.052-3.49-.006-.287-.016-.573-.023-.86-1.629-69.852-22.989-132.841-56.412-177.78-29.711-40.16-68.964-66.055-112.435-69.612-.853 0-.853 0-1.707 0-.61.054-1.215.133-1.823.198-2.227-.118-4.462-.198-6.71-.198h-119.466c-44.383 0-84.985 23.172-116.282 61.415-.89.761-1.626 1.676-2.181 2.71-37.241 47.001-60.737 115.684-60.737 191.875 0 140.8 80.213 256 179.2 256h119.467c2.434 0 4.852-.09 7.262-.228.708.077 1.414.165 2.124.228 81.92-6.827 150.187-90.453 166.4-205.653.094-.891.186-1.794.28-2.691 2.049-15.453 3.133-31.38 3.133-47.656zm-282.233 136.059c-.181-.991-.56-1.924-1.11-2.753-15.121-37.77-23.857-82.996-23.857-131.598 0-125.981 59.484-229.326 135.282-238.681 86.214 5.638 154.852 110.847 154.852 238.68 0 127.841-68.646 233.055-154.867 238.682-46.34-5.655-86.108-45.687-110.3-104.33zm-167.948-49.37c1.865-.583 3.73-1.819 5.595-3.062l11.093-17.067 17.92 17.92c3.413 3.413 8.533 3.413 11.947 0l19.627-19.627 20.48 20.48c3.413 3.413 8.533 3.413 11.947 0l20.48-20.48 14.023 12.547c2.975 15.224 6.823 29.846 11.464 43.716l-15.246-7.623c-4.267-2.56-8.533-.853-11.093 2.56l-11.093 17.067-17.92-17.92c-3.413-3.413-8.533-3.413-11.947 0l-19.629 19.627-19.627-19.627c-3.413-3.413-8.533-3.413-11.947 0l-12.32 12.32c-5.424-12.856-10.043-26.517-13.754-40.831zm-10.582-80.782 21.297 12.014c3.413 1.707 7.68.853 10.24-1.707l19.627-19.627 20.48 19.627c3.413 3.413 8.533 3.413 11.947 0l20.48-20.48 32.663 19.75c.411 12.272 1.361 24.32 2.826 36.077l-6.476-5.48c-3.413-2.56-8.533-1.707-11.093.853l-19.627 19.627-19.627-19.627c-3.413-3.413-8.533-3.413-11.947 0l-19.627 19.627-19.627-19.627c-1.707-1.707-4.267-2.56-6.827-2.56s-5.12 1.707-6.827 3.413l-11.987 17.98c-3.616-19.115-5.652-39.178-5.895-59.86zm27.875-138.054 19.021 12.681c2.56 1.707 6.827 1.707 9.387 0l20.48-13.653 21.333 14.507c2.56 1.707 6.827 1.707 9.387 0l21.333-14.507 27.191 13.207c-4.487 13.073-8.273 26.816-11.28 41.105l-10.792-10.792c-3.413-3.413-8.533-3.413-11.947 0l-19.627 19.627-19.627-19.627c-3.413-3.413-8.533-3.413-11.947 0l-19.624 19.626-19.627-19.627c-1.707-1.707-3.413-2.56-5.973-2.56s-4.267.853-5.973 2.56l-10.036 10.383c4.619-18.843 10.801-36.603 18.321-52.93zm27.477-45.822 53.838-15.737 22.187 14.507c2.56 1.707 6.827 1.707 9.387 0l21.333-14.507 23.801 11.561c-9.153 14.017-17.255 29.706-24.117 46.735l-31.257-15.629c-2.56-.853-5.973-.853-8.533.853l-20.48 13.653-20.48-13.653c-2.56-1.707-6.827-1.707-9.387 0l-20.48 13.653-15.558-11.02c5.969-10.967 12.577-21.15 19.746-30.416zm51.278 155.783c-3.413-1.707-7.68-.853-10.24 1.707l-19.627 19.627-19.627-19.627c-3.413-3.413-8.533-3.413-11.947 0l-21.333 21.333-23.588-13.581c.52-12.761 1.722-25.258 3.557-37.415 1.059-.427 2.117-1.063 2.965-1.91l18.773-19.627 19.627 19.626c3.413 3.413 8.533 3.413 11.947 0l19.627-19.627 19.627 19.627c3.413 3.413 8.533 3.413 11.947 0l19.627-19.627 11.093 11.093c.636.636 1.332 1.153 2.064 1.552-2.733 17.648-4.304 35.985-4.578 54.796zm133.55-215.04c-16.354 10.053-31.392 24.146-44.651 41.463l-30.019-15.01c-2.56-.853-5.973-.853-8.533.853l-20.48 13.653-20.48-13.653c-2.56-1.707-5.12-1.707-7.68-1.707l-29.571 8.449c24.347-21.595 52.849-34.049 83.331-34.049h78.083zm-208.3 381.096 10.75-10.75 19.627 19.627c3.413 3.413 8.533 3.413 11.947 0l19.626-19.627 19.627 19.627c1.707 1.707 3.413 2.56 5.973 2.56 3.413 0 5.973-1.707 6.827-4.267l12.8-19.627 24.646 12.323c6.418 15.154 13.839 29.175 22.129 41.827l-16.056 10.704-20.48-13.653c-2.56-1.707-6.827-1.707-9.387 0l-20.479 13.653-20.48-13.653c-2.56-1.707-6.827-1.707-9.387 0l-21.088 14.059c-14.006-14.656-26.366-32.502-36.595-52.803zm130.217 96.77c-29.637 0-57.403-11.772-81.298-32.272l13.031-8.688 21.333 13.653c2.56 1.707 6.827 1.707 9.387 0l20.48-13.653 19.627 14.507c2.56 1.707 6.827 1.707 9.387 0l21.815-14.543c13.245 17.118 28.267 31.041 44.617 40.997h-78.379z"/><path d="m331.8 67.267c-44.181 0-81.22 49.434-95.777 120.331-.086.416-.172.833-.256 1.25-.39 1.943-.766 3.899-1.123 5.872-.122.676-.237 1.356-.355 2.034-.241 1.387-.473 2.781-.697 4.182-.15.935-.299 1.87-.44 2.81-.236 1.565-.46 3.14-.674 4.723-.129.953-.254 1.908-.375 2.864-.18 1.423-.35 2.854-.513 4.291-.131 1.159-.255 2.321-.374 3.486-.134 1.307-.262 2.619-.381 3.937-.078.859-.157 1.718-.229 2.58-.158 1.903-.301 3.816-.428 5.739-.047.716-.088 1.435-.131 2.153-.102 1.695-.192 3.398-.27 5.108-.022.497-.05.991-.07 1.489-.089 2.14-.153 4.294-.203 6.456-.013.554-.023 1.107-.034 1.662-.042 2.246-.071 4.5-.071 6.767 0 2.268.029 4.521.071 6.767.01.554.021 1.108.034 1.662.05 2.162.115 4.315.203 6.456.02.497.048.992.07 1.489.078 1.71.168 3.412.27 5.107.043.718.084 1.437.131 2.154.128 1.923.27 3.836.428 5.739.071.862.151 1.721.229 2.581.12 1.317.247 2.628.381 3.935.119 1.165.243 2.328.374 3.488.163 1.436.333 2.867.513 4.29.121.957.246 1.911.375 2.864.214 1.582.438 3.156.674 4.72.142.941.291 1.877.441 2.813.224 1.401.456 2.794.696 4.18.118.679.233 1.359.355 2.035.356 1.973.732 3.929 1.122 5.871.084.418.17.835.256 1.252 14.556 70.897 51.596 120.33 95.777 120.33 57.173 0 102.4-82.773 102.4-187.733s-45.226-187.734-102.399-187.734zm-84.197 214.722c-.044-.527-.093-1.052-.135-1.58-.062-.783-.115-1.57-.172-2.356-.079-1.107-.154-2.215-.221-3.327-.038-.628-.078-1.256-.112-1.885-.095-1.734-.181-3.472-.249-5.218-.012-.317-.02-.637-.032-.954-.055-1.542-.099-3.089-.133-4.64-.011-.498-.021-.995-.03-1.494-.031-1.84-.053-3.683-.053-5.534 0-1.612.019-3.22.039-4.827.474-31.83 5.614-61.872 14.06-87.42 12.531 21.378 20.035 55.141 20.035 92.246s-7.504 70.868-20.034 92.247c-6.456-19.529-10.979-41.684-12.963-65.258zm84.197 143.678c-25.099 0-48.171-23.296-63.98-59.4 18.074-22.21 29.846-64.525 29.846-111.267s-11.773-89.057-29.846-111.267c15.808-36.104 38.88-59.4 63.98-59.4 46.08 0 85.333 78.507 85.333 170.667s-39.253 170.667-85.333 170.667z"/></g></g></g><g/><g/><g/><g/><g/><g/><g/><g/><g/><g/><g/><g/><g/><g/><g/></svg>