<svg id="Layer_1" enable-background="new 0 0 511.147 511.147" viewBox="0 0 511.147 511.147" xmlns="http://www.w3.org/2000/svg"><g transform="translate(1 1)"><g><g><path d="m504.28 115.907-.853-.853-108.374-108.374c-9.387-10.24-25.6-10.24-35.84 0l-11.947 11.947c-1.707 1.707-2.56 3.413-2.56 5.973s.853 4.267 2.56 5.973l5.973 5.973-11.113 11.113-5.954-5.993c-3.413-3.413-8.533-3.413-11.947 0s-3.413 8.533 0 11.947l5.954 5.993-12.779 12.781-11.947-11.947c-1.707-1.707-3.413-2.56-5.973-2.56-1.707 0-4.267.853-5.12 2.56l-145.067 145.067c-3.413 3.413-3.413 8.533 0 11.947l8.533 8.533c11.947 11.947 30.72 11.947 42.667 0l17.92-17.92c6.826.535 13.483 1.891 19.874 3.965l-135.074 134.275c-12.8-4.267-24.747-4.267-35.84-.853l-17.92-17.067c-3.413-3.413-8.533-3.413-11.947 0l-35.84 35.84c-1.707 1.707-2.56 3.413-2.56 5.973s.853 4.267 1.707 5.12l17.92 17.92c-9.387 27.307-1.707 58.027 18.773 78.507 21.333 21.333 52.053 28.16 79.36 18.773l17.92 17.067c1.707 1.707 4.267 2.56 5.973 2.56s4.267-.853 5.973-2.56l35.84-34.987c1.707-1.707 2.56-3.413 2.56-5.973s-.853-4.267-2.56-5.973l-17.92-17.92c4.267-11.947 3.413-23.04-.853-35.84l134.518-135.319c2.308 6.715 3.88 13.738 4.575 20.972l-17.92 17.92c-11.947 11.947-11.947 30.72 0 42.667l8.533 8.533c1.707 1.707 3.413 2.56 5.973 2.56s5.12-.853 5.12-2.56l145.069-145.067c3.413-3.413 3.413-8.533 0-11.947l-11.947-11.947 12.394-12.394 6.379 6.421c1.707 1.707 3.413 2.56 5.973 2.56s4.267-.853 5.973-2.56c3.413-3.413 3.413-8.533 0-11.947l-6.379-6.421 11.499-11.499 5.973 5.973c3.413 3.413 8.533 3.413 11.947 0l11.947-11.947.853-.853c7.681-9.386 7.681-24.746.001-34.132zm-355.84 283.306c-2.56 2.56-3.413 5.973-1.707 9.387 5.973 16.213 4.267 25.6.853 33.28-1.707 3.413-.853 6.827 1.707 9.387l15.36 15.36-23.893 23.04-16.213-14.507c-1.707-1.707-4.267-2.56-5.973-2.56-.853 0-1.707 0-2.56.853-23.04 9.387-48.64 4.267-65.707-12.8s-22.187-43.52-12.8-65.707c1.707-3.413.853-6.827-1.707-9.387l-15.36-15.359 23.893-23.893 15.36 15.36c2.56 2.56 5.973 3.413 9.387 1.707 7.68-3.413 17.067-5.973 33.28.853 3.413 1.707 6.827.853 9.387-1.707l143.693-142.843c14.944 8.584 27.5 21.321 36.001 36.536zm151.04-55.466-2.56-2.56c-5.12-5.12-5.12-13.653 0-18.773l20.48-20.48c1.707-1.707 2.56-4.267 2.56-6.827-.866-14.071-4.537-27.59-10.419-39.978-.146-.609-.367-1.222-.674-1.836-5.084-10.167-11.795-19.604-19.694-27.927-.59-.627-1.187-1.248-1.79-1.862-.167-.169-.331-.342-.499-.51-8.908-8.953-19.235-16.446-30.516-22.014-.036-.019-.072-.037-.108-.055-12.761-6.281-26.738-10.098-41.259-10.779-1.707 0-4.267.853-5.973 2.56l-20.48 20.48c-5.12 5.12-13.653 5.12-18.773 0l-2.56-2.56 132.265-132.266 11.946 11.946s0 0 .001.001l109.226 108.373 11.947 11.947zm126.72-162.56-96.853-96.853 12.742-12.742 96.542 97.165zm-72.164-121.543 12.004-12.004 96.853 96.853-12.316 12.316zm138.297 79.303-5.12 5.12-5.973-5.973c-.824-.824-1.749-1.445-2.724-1.871l-106.503-106.503s0 0-.001-.001l-5.973-5.973 5.973-5.973c3.413-3.413 8.533-3.413 11.947 0l108.373 108.373c2.561 3.414 2.561 9.387.001 12.801z"/><path d="m245.72 253.293-81.067 81.067c-3.413 3.413-3.413 8.533 0 11.947 1.707 1.707 3.413 2.56 5.973 2.56 1.707 0 4.267-.853 5.973-2.56l81.067-81.067c3.413-3.413 3.413-8.533 0-11.947-3.413-3.413-8.533-3.413-11.946 0z"/><path d="m62.253 388.973c-8.533 7.68-12.8 18.773-12.8 29.867s5.12 22.187 12.8 29.867c7.68 8.533 18.773 12.8 29.867 12.8 11.093 0 22.187-5.12 30.72-12.8s12.8-18.773 12.8-29.867-5.12-22.187-12.8-29.867c-17.067-16.213-44.373-16.213-60.587 0zm47.787 47.787c-9.387 9.387-26.453 9.387-35.84 0-5.12-4.267-7.68-11.093-7.68-17.92s2.56-12.8 7.68-17.92 11.093-7.68 17.92-7.68 12.8 1.707 17.92 7.68c5.12 4.267 7.68 11.093 7.68 17.92s-2.56 12.8-7.68 17.92z"/><path d="m323.373 151.747c-18.773 0-34.133 15.36-34.133 34.133s15.36 34.133 34.133 34.133 34.133-15.36 34.133-34.133c.001-18.773-15.359-34.133-34.133-34.133zm0 51.2c-9.387 0-17.067-7.68-17.067-17.067s7.68-17.067 17.067-17.067 17.067 7.68 17.067 17.067-7.68 17.067-17.067 17.067z"/></g></g></g><g/><g/><g/><g/><g/><g/><g/><g/><g/><g/><g/><g/><g/><g/><g/></svg>