<svg id="Layer_1" enable-background="new 0 0 512 512" viewBox="0 0 512 512" xmlns="http://www.w3.org/2000/svg"><g transform="translate(1 1)"><g><g><path d="m43.373 417.56c-13.653 13.653-13.653 34.987 0 48.64 6.827 6.827 15.36 10.24 23.893 10.24s17.067-3.413 24.747-10.24c13.653-13.653 13.653-34.987 0-48.64s-34.986-13.653-48.64 0zm35.84 36.693c-6.827 6.827-17.067 6.827-23.893 0s-6.827-17.067 0-23.893c3.413-3.413 7.68-5.12 11.947-5.12s8.533 1.707 11.947 5.12c6.826 6.827 6.826 17.067-.001 23.893z"/><path d="m508.44 37.827-35.84-35.84c-3.413-3.413-8.533-3.413-11.947 0l-17.92 17.92-6.827-6.827c-3.413-3.413-8.533-3.413-11.947 0l-23.893 23.893c-1.707 1.707-2.56 3.413-2.56 5.973s.853 4.267 2.56 5.973l12.373 12.373-92.16 92.16-42.24-42.24c-3.413-3.413-8.533-3.413-11.947 0l-23.892 23.895c-3.413 3.413-3.413 8.533 0 11.947l23.55 23.384-12.02 12.02c-7.662-8.235-18.552-12.363-29.45-12.363-11.093 0-22.187 5.12-29.867 12.8-3.413 3.413-3.413 8.533 0 11.947s8.533 3.413 11.947 0c9.244-9.243 25.919-9.364 35.389-.403l-35.806 35.806c-7.662-8.235-18.552-12.363-29.45-12.363-11.093 0-22.187 5.12-29.867 12.8-3.413 3.413-3.413 8.533 0 11.947s8.533 3.413 11.947 0c9.243-9.243 25.919-9.364 35.389-.403l-36.659 36.659c-7.662-8.236-18.552-12.363-29.45-12.363-11.093 0-22.187 5.12-29.867 12.8-.145.145-.274.296-.407.447-.15.132-.302.262-.447.407l-23.892 23.891c-3.413 3.413-3.413 8.533 0 11.947l23.978 23.809-34.375 34.375c-16.293 1.03-31.692 7.728-44.217 19.47-12.799 13.652-19.626 30.719-19.626 48.639s6.827 34.987 19.627 48.64c13.653 12.8 30.72 19.627 48.64 19.627s34.987-6.827 48.64-19.627c11.785-12.571 18.491-27.318 19.483-44.229l34.618-34.618 24.406 24.234c1.707 1.707 3.413 2.56 5.973 2.56 1.707 0 4.267-.853 5.12-2.56l23.893-23.894c3.413-3.413 3.413-8.533 0-11.947l-24.32-24.32 12.8-12.8.427.427c7.68 8.533 18.773 12.8 29.867 12.8s22.187-4.267 29.867-12.8c3.413-3.413 3.413-8.533 0-11.947s-8.533-3.413-11.947 0c-9.387 10.24-25.6 10.24-35.84 0l-.427-.427 36.693-36.693.427.427c7.68 8.533 18.773 12.8 29.867 12.8s22.187-4.267 29.867-12.8c3.413-3.413 3.413-8.533 0-11.947-3.413-3.413-8.533-3.413-11.947 0-9.387 9.387-26.453 9.387-35.84 0l-.427-.427 35.84-35.84.427.427c7.68 8.533 18.773 12.8 29.867 12.8 10.45 0 20.896-3.789 28.493-11.361.586-.383 1.083-.858 1.373-1.439s0 0 .001-.001l23.893-23.893c3.413-3.413 3.413-8.533 0-11.947l-42.24-42.24 92.16-92.16 12.373 12.373c1.707 1.707 3.413 2.56 5.973 2.56 1.707 0 4.267-.853 5.973-2.56l23.893-23.893c1.707-1.707 2.56-3.413 2.56-5.973s-.853-4.267-2.56-5.973l-5.973-5.973 17.92-17.92c3.413-3.413 3.413-8.533 0-11.946zm-181.033 193.833-12.247 12.247-48.64-48.64 12.075-12.075zm-224.3 246.487c-9.387 10.24-22.187 15.36-35.84 15.36s-26.453-5.12-35.84-15.36c-10.24-9.387-15.36-22.187-15.36-35.84s5.12-26.453 15.36-35.84c9.291-10.136 21.928-15.247 35.426-15.35 14.325.103 26.963 5.214 36.254 15.35 10.125 9.282 15.236 22.735 15.349 36.235-.114 13.504-6.054 26.149-15.349 35.445zm30.72-52.907c-.68-2.38-1.466-4.689-2.349-6.933-3.283-9.223-8.513-17.583-15.571-24.64-8.958-8.399-19.392-14.206-30.566-17.221l24.294-24.294 48.812 48.468zm65.706-7.68-108.373-108.373 11.947-11.947 23.893 23.893v.001l60.587 60.587 23.893 23.893zm-83.636-130.569c9.352-4.692 21.751-3.388 29.425 3.873l-12.776 12.776zm78.516 77.662-48.64-48.64 12.373-12.373 48.64 48.64zm24.32-24.32-48.64-48.64 36.694-36.693 48.64 48.64zm48.64-48.64-48.64-48.64 35.84-35.84 48.64 48.64zm59.307-36.266-.427-.427 12.286-12.286 17.705 17.581c-9.294 4.964-21.35 3.346-29.564-4.868zm41.813-6.827-108.373-108.373 11.947-11.947 42.666 42.666s0 0 .001.001l23.893 23.893 41.813 41.813zm-23.893-71.68-11.947-11.947 91.307-91.307 11.947 11.947zm122.027-85.333-48.64-48.64 11.946-11.947 6.827 6.827 19.115 19.115 22.699 22.699zm-12.8-60.587 11.947-11.947 23.893 23.893-11.947 11.947z"/></g></g></g><g/><g/><g/><g/><g/><g/><g/><g/><g/><g/><g/><g/><g/><g/><g/></svg>