<svg id="Layer_1" enable-background="new 0 0 512 512" viewBox="0 0 512 512" xmlns="http://www.w3.org/2000/svg"><g transform="translate(1 1)"><g><g><path d="m272.067 331.8h-25.6v-17.067c0-5.12-3.413-8.533-8.533-8.533h-17.067v-42.667c0-5.12-3.413-8.533-8.533-8.533h-8.534v-179.2c0-24.747-11.093-42.667-25.6-42.667h-8.533v-17.066c0-9.387-7.68-17.067-17.067-17.067h-17.067c-9.387 0-17.067 7.68-17.067 17.067v17.067h-8.533c-14.507 0-25.6 17.92-25.6 42.667v179.199h-8.533c-5.12 0-8.533 3.413-8.533 8.533v42.667h-17.067c-5.12 0-8.533 3.413-8.533 8.533v17.067h-25.6c-5.12 0-8.533 3.413-8.533 8.533v34.133c0 5.12 3.413 8.533 8.533 8.533h51.2v76.8c0 5.12 3.413 8.533 8.533 8.533h25.6v34.133c0 5.12 3.413 8.533 8.533 8.533s8.533-3.413 8.533-8.533v-34.133h51.2v34.133c0 5.12 3.413 8.533 8.533 8.533s8.533-3.413 8.533-8.533v-34.133h25.6c5.12 0 8.533-3.413 8.533-8.533v-76.799h51.2c5.12 0 8.533-3.413 8.533-8.533v-34.133c.002-5.121-3.411-8.534-8.531-8.534zm-162.134-281.6h17.067c5.12 0 8.533-3.413 8.533-8.533v-25.6h17.067v25.6c0 5.12 3.413 8.533 8.533 8.533h17.067c1.38 0 6.106 6.143 7.864 17.067h-83.996c1.76-10.923 6.485-17.067 7.865-17.067zm-8.533 34.133h85.333v170.667h-85.333zm-17.067 187.734h8.533 102.4 8.533v34.133h-119.466zm119.467 179.2h-119.467v-68.267h119.467zm59.733-85.334h-51.2-136.533-51.2v-17.067h25.6c5.12 0 8.533-3.413 8.533-8.533v-17.067h17.067 136.533 17.067v17.067c0 5.12 3.413 8.533 8.533 8.533h25.6z"/><path d="m468.333 118.467c-22.187-19.627-51.2-29.013-80.213-25.6-46.08 5.12-84.48 42.667-89.6 89.6-3.413 28.16 5.12 55.467 22.187 76.8 12.8 16.213 19.627 35.84 19.627 55.467v119.466c0 2.434.779 4.476 2.139 5.955 8.878 21.299 32.46 36.712 57.595 36.712s48.717-15.412 57.595-36.712c1.36-1.479 2.139-3.521 2.139-5.955v-119.467c0-.145-.013-.284-.018-.427.005-.143.018-.281.018-.427 0-20.48 6.827-39.253 19.627-54.613 14.507-17.92 23.04-40.96 23.04-64.853-.002-29.013-12.802-56.32-34.136-75.946zm-25.6 307.2h-85.333v-102.4h85.333zm-42.666 34.133c-14.507 0-28.16-6.827-36.693-17.067h73.387c-8.534 10.24-22.188 17.067-36.694 17.067zm65.706-210.773c-13.653 16.213-21.333 36.693-23.04 57.173h-34.133v-68.267h17.067c5.12 0 8.533-3.413 8.533-8.533s-3.413-8.533-8.533-8.533h-17.067v-17.067h34.133c5.12 0 8.533-3.413 8.533-8.533s-3.413-8.533-8.533-8.533h-34.133v-17.067h42.667c5.12 0 8.533-3.413 8.533-8.533s-3.413-8.533-8.533-8.533h-102.4c-5.12 0-8.533 3.413-8.533 8.533s3.413 8.533 8.533 8.533h42.667v17.067h-34.134c-5.12 0-8.533 3.413-8.533 8.533s3.413 8.533 8.533 8.533h34.133v17.067h-17.067c-5.12 0-8.533 3.413-8.533 8.533s3.413 8.533 8.533 8.533h17.067v68.267h-34.133c-1.707-20.48-10.24-40.96-23.04-57.173-14.507-17.92-21.333-40.96-18.773-64 4.267-39.253 35.84-70.827 75.093-75.093 24.747-2.56 48.64 5.12 66.56 21.333s28.16 40.107 28.16 64c0 19.626-6.827 38.4-19.627 53.76z"/></g></g></g><g/><g/><g/><g/><g/><g/><g/><g/><g/><g/><g/><g/><g/><g/><g/></svg>