<svg id="Layer_1" enable-background="new 0 0 512 512" viewBox="0 0 512 512" xmlns="http://www.w3.org/2000/svg"><g transform="translate(1 1)"><g><path d="m476.867 365.933h-26.453l-24.747-308.053v-50.347c0-5.12-3.413-8.533-8.533-8.533h-324.267c-5.12 0-8.533 3.413-8.533 8.533v50.347l-24.747 308.053h-26.454c-5.12 0-8.533 3.413-8.533 8.533v42.667c0 5.12 3.413 8.533 8.533 8.533h77.938l5.689 34.133h-6.827c-5.12 0-8.533 3.413-8.533 8.533v34.133c0 5.12 3.413 8.533 8.533 8.533h290.133c5.12 0 8.533-3.413 8.533-8.533v-34.133c0-5.12-3.413-8.533-8.533-8.533h-6.827l5.689-34.133h77.938c5.12 0 8.533-3.413 8.533-8.533v-42.667c.001-5.119-3.412-8.533-8.532-8.533zm-375.467-349.866h307.2v34.133h-34.133-34.133-51.2-68.267-51.2-34.133-34.134zm247.467 51.2h17.687l24.126 298.667h-41.813zm-119.467 0h51.2v298.667h-51.2zm-68.267 0v298.667h-41.813l24.126-298.667zm230.4 426.666h-273.066v-17.067h8.533 256 8.533zm-16.213-34.133h-241.493l-5.12-34.133h252.587zm93.013-51.2h-76.8-273.066-76.8v-25.6h25.6c4.267 0 8.533-3.413 8.533-7.68l24.747-308.053h25.6l-24.747 306.346c0 2.56.853 5.12 2.56 6.827s3.413 2.56 5.973 2.56h59.733c5.12 0 8.533-3.413 8.533-8.533v-307.2h34.133v307.2c0 5.12 3.413 8.533 8.533 8.533h68.267c5.12 0 8.533-3.413 8.533-8.533v-307.2h34.135v307.2c0 5.12 3.413 8.533 8.533 8.533h59.733c2.56 0 4.267-.853 5.973-2.56 1.707-1.707 2.56-4.267 2.56-6.827l-24.746-306.346h25.6l24.747 308.053c0 4.267 4.267 7.68 8.533 7.68h25.6z"/></g></g><g/><g/><g/><g/><g/><g/><g/><g/><g/><g/><g/><g/><g/><g/><g/></svg>