<svg id="Layer_1" enable-background="new 0 0 512.168 512.168" viewBox="0 0 512.168 512.168" xmlns="http://www.w3.org/2000/svg"><g transform="translate(1 1)"><g><g><path d="m255 75.884c-83.627 0-161.28 28.16-209.067 75.947-30.72 29.866-46.933 65.706-46.933 103.253 0 98.133 115.2 179.2 256 179.2 3.413 0 7.68-2.56 8.533-5.973 34.133-113.493 34.133-232.96 0-346.453-1.706-3.414-5.12-5.974-8.533-5.974zm-5.973 342.187c-128.853-2.56-232.96-74.24-232.96-162.133 0-33.28 14.507-64.853 41.813-92.16 43.52-42.667 114.347-69.12 191.147-70.827 30.72 106.666 30.72 218.453 0 325.12z"/><path d="m505.88 324.204-187.733-76.8c-4.267-2.56-9.387 0-11.093 4.267-2.56 4.267 0 9.387 4.267 11.093l187.733 76.8c.853.853 2.56.853 3.413.853 3.413 0 6.827-1.707 7.68-5.12 2.56-4.266 0-9.386-4.267-11.093z"/><path d="m311.32 177.431 187.733 76.8c.853.853 2.56.853 3.413.853 3.413 0 6.827-1.707 7.68-5.12 2.56-4.267 0-9.387-4.267-11.093l-187.733-76.8c-4.267-2.56-9.387 0-11.093 4.267-2.56 4.266 0 9.386 4.267 11.093z"/><path d="m505.88 409.537-187.733-76.8c-4.267-2.56-8.533 0-11.093 4.267s0 9.387 4.267 11.093l187.733 76.8c.853.853 2.56.853 3.413.853 3.413 0 6.827-1.707 7.68-5.12 2.56-4.266 0-9.386-4.267-11.093z"/></g></g></g><g/><g/><g/><g/><g/><g/><g/><g/><g/><g/><g/><g/><g/><g/><g/></svg>