<svg id="Layer_1" enable-background="new 0 0 512 512" viewBox="0 0 512 512" xmlns="http://www.w3.org/2000/svg"><g transform="translate(1 1)"><g><g><path d="m502.467 280.6c-5.12 0-8.533 3.413-8.533 8.533v17.067h-25.6v-145.067c0-23.893-18.773-42.667-42.667-42.667h-341.334c-20.48 0-37.547 14.507-41.813 34.133h-26.453v-17.067c0-5.12-3.413-8.533-8.533-8.533s-8.534 3.414-8.534 8.534v25.6 34.133 25.6c0 5.12 3.413 8.533 8.533 8.533s8.533-3.413 8.533-8.533v-17.066h25.6v145.067c0 23.893 18.773 42.667 42.667 42.667h341.333c20.48 0 37.547-14.507 41.813-34.133h26.453v17.067c0 5.12 3.413 8.533 8.533 8.533s8.533-3.413 8.533-8.533v-25.6-34.133-25.6c.002-5.122-3.411-8.535-8.531-8.535zm-443.734 68.267v-153.6c0-5.12-3.413-8.533-8.533-8.533h-34.133v-17.067h34.133c5.12 0 8.533-3.413 8.533-8.533 0-11.093 6.827-20.48 17.067-23.893v235.52c-10.24-3.414-17.067-12.801-17.067-23.894zm34.134-213.334h324.267v238.933h-324.267zm366.933 205.654c-5.12 0-8.533 3.413-8.533 8.533 0 11.093-6.827 20.48-17.067 23.893v-236.373c10.24 3.413 17.067 12.8 17.067 23.893v154.453c0 5.12 3.413 8.533 8.533 8.533h34.133v17.067h-34.133z"/><path d="m383 161.133h-247.467c0-5.12-3.413-8.533-8.533-8.533s-8.533 3.413-8.533 8.533v8.533c0 5.12 3.413 8.533 8.533 8.533h247.467c0 5.12 3.413 8.533 8.533 8.533s8.533-3.413 8.533-8.533v-8.533c0-5.119-3.413-8.533-8.533-8.533z"/><path d="m383 331.8h-247.467c0-5.12-3.413-8.533-8.533-8.533s-8.533 3.413-8.533 8.533v8.533c0 5.12 3.413 8.533 8.533 8.533h247.467c0 5.12 3.413 8.533 8.533 8.533s8.533-3.413 8.533-8.533v-8.533c0-5.12-3.413-8.533-8.533-8.533z"/><path d="m383 289.133h-247.467c0-5.12-3.413-8.533-8.533-8.533s-8.533 3.413-8.533 8.533v8.533c0 5.12 3.413 8.533 8.533 8.533h247.467c0 5.12 3.413 8.533 8.533 8.533s8.533-3.413 8.533-8.533v-8.533c0-5.119-3.413-8.533-8.533-8.533z"/><path d="m383 246.467h-247.467c0-5.12-3.413-8.533-8.533-8.533s-8.533 3.413-8.533 8.533v8.533c0 5.12 3.413 8.533 8.533 8.533h247.467c0 5.12 3.413 8.533 8.533 8.533s8.533-3.413 8.533-8.533v-8.533c0-5.12-3.413-8.533-8.533-8.533z"/><path d="m383 203.8h-247.467c0-5.12-3.413-8.533-8.533-8.533s-8.533 3.413-8.533 8.533v8.533c0 5.12 3.413 8.533 8.533 8.533h247.467c0 5.12 3.413 8.533 8.533 8.533s8.533-3.413 8.533-8.533v-8.533c0-5.12-3.413-8.533-8.533-8.533z"/></g></g></g><g/><g/><g/><g/><g/><g/><g/><g/><g/><g/><g/><g/><g/><g/><g/></svg>