<svg id="Layer_1" enable-background="new 0 0 512 512" viewBox="0 0 512 512" xmlns="http://www.w3.org/2000/svg"><g transform="translate(1 1)"><g><g><path d="m255-1c-140.8 0-256 115.2-256 256s115.2 256 256 256 256-115.2 256-256-115.2-256-256-256zm0 494.933c-131.413 0-238.933-107.52-238.933-238.933s107.52-238.933 238.933-238.933 238.933 107.52 238.933 238.933-107.52 238.933-238.933 238.933z"/><path d="m42.52 246.467h86.187c17.067 0 32.427-10.24 38.4-27.307l.853-1.707c6.827-16.213 3.413-33.28-8.533-45.227l-61.44-61.44c-.853-1.707-3.413-2.56-5.973-2.56-2.56.853-4.267 1.707-5.973 3.413-30.721 35.841-48.641 79.361-52.054 125.441 0 2.56.853 5.12 2.56 6.827s3.413 2.56 5.973 2.56zm50.347-116.907 54.613 54.613c6.827 6.827 8.533 17.067 5.12 26.453l-.853 2.56c-3.413 10.24-11.947 16.213-22.187 16.213h-77.653c4.266-36.692 18.773-70.826 40.96-99.839z"/><path d="m170.52 159.427c7.68 7.68 18.773 11.947 29.013 11.947 5.973 0 11.093-.853 16.213-2.56 1.707-.853 3.413-1.707 5.12-2.56 15.36-5.973 25.6-21.333 25.6-38.4v-85.334c0-2.56-.853-5.12-3.413-5.973-1.707-1.707-4.267-2.56-6.827-2.56-46.933 4.267-90.453 22.187-126.293 52.907-1.707 1.707-2.56 3.413-2.56 5.973 0 1.707.853 4.267 2.56 5.973zm58.88-107.52v75.947c0 10.24-5.973 18.773-14.507 22.187-1.707.853-4.267 1.707-5.973 2.56-8.533 4.267-18.773 1.707-25.6-5.12l-53.76-53.76c29.013-23.041 63.147-37.548 99.84-41.814z"/><path d="m289.133 167.107c1.707.853 2.56.853 4.267 1.707 5.12 2.56 10.24 3.413 15.36 3.413 11.093 0 21.333-4.267 29.867-12.8l61.44-61.44c1.707-.853 2.56-3.413 2.56-5.973-.853-2.56-1.707-4.267-3.413-5.973-35.84-29.867-79.36-48.64-126.293-52.053-2.56 0-5.12.853-6.827 2.56s-2.56 3.413-2.56 5.973v87.04c-.001 16.212 10.239 31.572 25.599 37.546zm-8.533-115.2c36.693 4.267 70.827 18.773 99.84 41.813l-54.613 54.613c-6.827 6.827-17.067 8.533-25.6 5.12-1.707-.853-2.56-.853-4.267-1.707-9.387-4.267-15.36-12.8-15.36-22.187z"/><path d="m168.813 289.987-.853-.853c-5.973-15.36-21.333-25.6-37.547-25.6h-87.893c-2.56 0-5.12.853-6.827 2.56s-2.56 4.267-2.56 6.827c3.413 46.08 22.187 89.6 52.053 125.44 1.707 2.56 4.267 3.413 6.827 3.413s5.12-1.707 6.827-3.413l62.293-62.293c11.094-11.948 14.507-29.868 7.68-46.081zm-20.48 34.986-55.466 55.467c-22.187-29.013-36.693-63.147-40.96-99.84h78.507c9.387 0 17.92 5.973 22.187 15.36v1.707c4.266 9.386 2.559 20.48-4.268 27.306z"/><path d="m342.04 215.747c.853 1.707.853 3.413 1.707 5.12 5.12 15.36 20.48 25.6 37.547 25.6h86.187c2.56 0 5.12-.853 6.827-2.56s2.56-4.267 2.56-6.827c-3.413-46.933-21.333-90.453-52.053-126.293-1.707-1.707-3.413-2.56-5.973-2.56-1.707 0-4.267.853-5.973 2.56l-61.44 60.587c-11.949 11.946-15.362 29.866-9.389 44.373zm20.48-31.574 55.467-53.76c23.04 29.013 37.547 63.147 41.813 99.84h-77.653c-10.24 0-18.773-5.973-22.187-14.507-.853-2.56-1.707-4.267-2.56-5.973-3.413-8.533-1.707-18.773 5.12-25.6z"/><path d="m467.48 263.533h-89.6c-16.213 0-31.573 10.24-37.547 25.6l-.853 2.56c-6.827 15.36-3.413 32.427 8.533 44.373l63.147 63.147c1.707 1.707 3.413 2.56 5.973 2.56s5.12-.853 6.827-2.56c29.867-35.84 48.64-79.36 52.053-126.293 0-2.56-.853-5.12-2.56-6.827s-3.413-2.56-5.973-2.56zm-50.347 116.907-56.32-56.32c-6.827-6.827-8.533-17.067-5.12-25.6l.853-3.413c3.413-8.533 11.947-14.507 21.333-14.507h81.067c-5.119 36.693-18.773 70.827-41.813 99.84z"/><path d="m221.72 340.333-2.56-.853c-15.36-6.827-33.28-3.413-45.227 8.533l-63.147 63.147c-1.707 1.707-2.56 3.413-2.56 5.973s.853 4.267 2.56 5.973c35.84 30.72 79.36 49.493 127.147 52.907 2.56 0 4.267-.853 5.973-1.707 1.707-1.707 2.56-3.413 2.56-5.973v-90.453c.001-16.213-9.386-31.573-24.746-37.547zm7.68 117.76c-36.693-4.267-70.827-18.773-99.84-41.813l56.32-57.173c6.827-6.827 17.92-9.387 26.453-5.12l2.56.853c8.533 4.267 14.507 12.8 14.507 22.187z"/><path d="m335.213 347.16c-11.947-11.947-29.013-15.36-43.52-9.387l-1.707.853c-16.213 5.973-26.453 21.333-26.453 38.4v90.453c0 1.707.853 4.267 2.56 5.973s3.413 2.56 5.973 2.56c46.934-3.412 90.454-21.332 126.294-52.905 2.56-1.707 3.413-4.267 3.413-5.973s-.853-4.267-2.56-5.973zm-54.613 110.933v-81.067c0-10.24 5.973-18.773 15.36-22.187l1.707-.853c2.56-.853 5.973-1.707 8.533-1.707 5.973 0 11.947 2.56 17.067 7.68l57.173 57.173c-29.013 22.188-63.147 36.695-99.84 40.961z"/><path d="m255 306.2c-5.12 0-8.533 3.413-8.533 8.533s3.413 8.533 8.533 8.533 8.533-3.413 8.533-8.533-3.413-8.533-8.533-8.533z"/><path d="m306.2 255c0 5.12 3.413 8.533 8.533 8.533s8.533-3.413 8.533-8.533-3.413-8.533-8.533-8.533-8.533 3.413-8.533 8.533z"/><path d="m255 203.8c5.12 0 8.533-3.413 8.533-8.533s-3.413-8.533-8.533-8.533-8.533 3.413-8.533 8.533 3.413 8.533 8.533 8.533z"/><path d="m186.733 255c0 5.12 3.413 8.533 8.533 8.533s8.534-3.413 8.534-8.533-3.413-8.533-8.533-8.533-8.534 3.413-8.534 8.533z"/></g></g></g><g/><g/><g/><g/><g/><g/><g/><g/><g/><g/><g/><g/><g/><g/><g/></svg>