<svg id="Layer_1" enable-background="new 0 0 512 512" viewBox="0 0 512 512" xmlns="http://www.w3.org/2000/svg"><g><g><path d="m256 0c-140.8 0-256 115.2-256 256s115.2 256 256 256 256-115.2 256-256-115.2-256-256-256zm0 494.933c-131.413 0-238.933-107.52-238.933-238.933s107.52-238.933 238.933-238.933 238.933 107.52 238.933 238.933-107.52 238.933-238.933 238.933z"/></g></g><g><g><path d="m256 281.6c-18.773 0-34.133 15.36-34.133 34.133s15.36 34.133 34.133 34.133 34.133-15.36 34.133-34.133-15.36-34.133-34.133-34.133zm0 51.2c-9.387 0-17.067-7.68-17.067-17.067s7.68-17.067 17.067-17.067 17.067 7.68 17.067 17.067-7.68 17.067-17.067 17.067z"/></g></g><g><g><path d="m315.733 221.867c-18.773 0-34.133 15.36-34.133 34.133s15.36 34.133 34.133 34.133 34.133-15.36 34.133-34.133c.001-18.773-15.359-34.133-34.133-34.133zm0 51.2c-9.387 0-17.067-7.68-17.067-17.067s7.68-17.067 17.067-17.067 17.067 7.68 17.067 17.067-7.68 17.067-17.067 17.067z"/></g></g><g><g><path d="m256 162.133c-18.773 0-34.133 15.36-34.133 34.133s15.36 34.133 34.133 34.133 34.133-15.36 34.133-34.133-15.36-34.133-34.133-34.133zm0 51.2c-9.387 0-17.067-7.68-17.067-17.067s7.68-17.066 17.067-17.066 17.067 7.68 17.067 17.067-7.68 17.066-17.067 17.066z"/></g></g><g><g><path d="m196.267 221.867c-18.773 0-34.133 15.36-34.133 34.133s15.36 34.133 34.133 34.133 34.133-15.36 34.133-34.133-15.36-34.133-34.133-34.133zm0 51.2c-9.387 0-17.067-7.68-17.067-17.067s7.68-17.067 17.067-17.067 17.067 7.68 17.067 17.067-7.681 17.067-17.067 17.067z"/></g></g><g><g><path d="m221.867 51.2c-11.093-7.68-23.893-9.387-36.693-5.973-9.387 3.413-18.773 7.68-28.16 11.947-11.094 5.973-19.627 17.066-21.334 29.866-2.56 13.653 1.707 26.453 11.093 35.84l22.187 22.187c8.533 7.68 18.773 11.947 29.013 11.947 5.12 0 10.24-1.707 16.213-3.413 14.507-5.973 24.747-21.333 24.747-37.547v-31.574c0-13.653-5.973-25.6-17.066-33.28zm0 64c0 10.24-5.973 18.773-15.36 22.187-8.533 3.413-18.773 1.707-25.6-5.12l-22.187-22.187c-5.973-5.12-7.68-12.8-6.827-20.48 1.707-7.68 5.973-13.653 12.8-17.067 7.68-4.267 17.067-7.68 25.6-11.093 2.56-.853 5.12-.853 7.68-.853 5.12 0 10.24 1.707 13.653 4.267 6.827 5.12 10.24 11.947 10.24 19.627v30.719z"/></g></g><g><g><path d="m145.92 168.96-22.187-22.187c-9.387-8.533-23.04-12.8-35.84-11.093-13.653 1.707-23.893 9.387-29.866 21.333-5.12 9.387-8.533 18.773-11.947 28.16-4.267 12.8-2.56 25.6 5.12 36.693s19.627 17.067 33.28 17.067h31.573c16.213 0 30.72-11.093 38.4-25.6 6.827-15.36 3.414-32.426-8.533-44.373zm-8.533 38.4c-3.413 8.533-11.947 14.507-21.333 14.507h-31.574c-7.68 0-14.507-3.413-19.627-10.24-5.12-5.973-5.973-13.653-3.413-21.333 3.413-8.533 6.827-17.067 11.093-25.6 3.413-6.827 9.387-11.947 17.067-12.8h4.267c5.973 0 11.947 2.56 17.067 6.827l21.333 23.04c6.826 6.826 8.533 16.212 5.12 25.599z"/></g></g><g><g><path d="m153.6 298.667c-5.973-14.507-21.333-25.6-37.547-25.6h-31.573c-13.653 0-25.6 5.973-33.28 17.067s-9.387 23.893-5.973 36.693c3.413 9.387 7.68 18.773 11.947 28.16 5.973 11.093 17.067 19.627 29.867 21.333 2.56.853 4.267.853 6.827.853 10.24 0 21.333-4.267 29.013-11.947l22.187-22.187c11.092-11.946 14.505-29.012 8.532-44.372zm-21.333 32.426-22.187 22.187c-5.12 5.973-12.8 7.68-20.48 6.827-7.68-1.707-13.653-5.973-17.067-12.8-4.267-7.68-7.68-17.067-11.093-25.6-2.56-6.827-.853-15.36 3.413-21.333 5.12-6.827 11.947-10.24 19.627-10.24h31.573c9.387 0 17.92 5.973 21.333 14.507s1.707 19.626-5.119 26.452z"/></g></g><g><g><path d="m376.32 87.893c-1.707-13.653-9.387-23.893-21.333-29.866-9.387-5.12-18.773-8.533-28.16-11.947-12.8-4.267-25.6-2.56-36.693 5.12s-17.067 19.627-17.067 33.28v31.573c0 16.213 10.24 30.72 25.6 37.547 5.12 2.56 10.24 3.413 15.36 3.413 11.093 0 21.333-4.267 29.013-11.947l22.187-21.333c8.533-9.386 12.8-23.04 11.093-35.84zm-23.04 23.04-22.187 22.187c-6.827 6.827-17.067 9.387-26.453 5.12-8.533-4.267-14.507-12.8-14.507-22.187v-31.573c0-7.68 3.413-14.507 10.24-19.627 4.267-2.56 8.533-4.267 13.653-4.267 2.56 0 5.12.853 7.68 1.707 8.533 3.413 17.067 6.827 25.6 11.093 6.827 3.413 11.947 9.387 12.8 17.067s-1.706 15.36-6.826 20.48z"/></g></g><g><g><path d="m466.773 185.173c-3.413-9.387-7.68-18.773-11.947-28.16-5.973-11.093-17.067-19.627-29.867-21.333-13.653-2.56-26.453 1.707-35.84 11.093l-22.187 22.187c-11.093 11.947-14.507 29.013-8.533 44.373 5.973 14.507 21.333 25.6 37.547 25.6h31.573c13.653 0 25.6-5.973 34.133-17.067 7.681-10.239 9.388-23.893 5.121-36.693zm-19.626 26.454c-5.12 6.827-11.947 10.24-19.627 10.24h-31.573c-10.24 0-18.773-5.973-22.187-15.36-3.413-8.533-1.707-18.773 5.973-24.747l22.187-22.187c5.12-5.973 12.8-7.68 20.48-6.827s13.653 5.12 17.067 11.947c4.267 7.68 8.533 17.067 11.093 25.6 2.56 6.827.853 15.36-3.413 21.334z"/></g></g><g><g><path d="m213.333 357.547c-15.36-6.827-32.427-3.413-44.373 8.533l-22.187 22.187c-8.533 9.387-12.8 23.04-11.093 35.84 1.707 13.653 9.387 23.893 21.333 29.867 9.387 5.12 18.773 8.533 28.16 11.947 4.267 1.707 8.533 2.56 12.8 2.56 8.533 0 17.067-2.56 23.893-8.533 11.093-7.68 17.067-19.627 17.067-33.28v-31.573c0-16.215-10.24-31.575-25.6-37.548zm8.534 69.12c0 8.533-4.267 15.36-10.24 19.627-5.973 5.12-13.653 5.973-21.333 3.413-8.533-3.413-17.067-6.827-25.6-11.093-6.827-3.413-11.947-9.387-12.8-17.067s1.707-15.36 6.827-20.48l23.04-22.187c4.267-4.267 10.24-6.827 16.213-6.827 2.56 0 5.973.853 9.387 1.707 8.533 3.413 14.507 11.947 14.507 21.333v31.574z"/></g></g><g><g><path d="m460.8 290.133c-7.68-11.093-19.627-17.067-33.28-17.067h-31.573c-16.213 0-31.573 10.24-37.547 25.6-6.827 15.36-3.413 32.427 8.533 44.373l22.187 22.187c7.68 7.68 17.92 11.947 29.013 11.947 2.56 0 4.267 0 5.973-.853 13.653-1.707 23.893-9.387 29.867-21.333 5.12-9.387 8.533-18.773 11.947-28.16 4.267-12.8 2.56-25.6-5.12-36.694zm-10.24 31.574c-3.413 8.533-6.827 17.067-11.093 25.6-3.413 6.827-9.387 11.947-17.067 12.8s-15.36-1.707-20.48-6.827l-22.187-22.187c-6.827-6.827-9.387-17.067-5.12-26.453 3.413-8.533 11.947-14.507 21.333-14.507h31.573c7.68 0 14.507 3.413 19.627 10.24 5.121 5.974 5.974 13.654 3.414 21.334z"/></g></g><g><g><path d="m365.227 389.12-22.187-22.187c-11.947-11.093-29.013-15.36-44.373-8.533-14.507 5.973-25.6 21.333-25.6 37.547v31.573c0 13.653 5.973 25.6 17.067 33.28 7.68 5.12 15.36 7.68 23.893 7.68 4.267 0 8.533-.853 12.8-1.707 9.387-3.413 18.773-7.68 28.16-11.947 11.093-5.973 19.627-17.067 21.333-29.867 2.56-13.652-1.707-26.452-11.093-35.839zm-5.12 34.133c-1.707 7.68-5.973 13.653-12.8 17.067-7.68 4.267-17.067 7.68-25.6 11.093-6.827 2.56-15.36.853-21.333-3.413-6.827-5.12-10.24-11.947-10.24-19.627v-31.573c0-10.24 5.12-18.773 14.507-22.187 9.387-4.267 19.627-2.56 26.453 5.973l22.187 22.187c5.972 5.12 7.679 12.8 6.826 20.48z"/></g></g><g/><g/><g/><g/><g/><g/><g/><g/><g/><g/><g/><g/><g/><g/><g/></svg>