<svg id="Layer_1" enable-background="new 0 0 512 512" viewBox="0 0 512 512" xmlns="http://www.w3.org/2000/svg"><g transform="translate(1 1)"><g><g><path d="m255-1c-140.8 0-256 115.2-256 256s115.2 256 256 256 256-115.2 256-256-115.2-256-256-256zm0 494.933c-131.413 0-238.933-107.52-238.933-238.933s107.52-238.933 238.933-238.933 238.933 107.52 238.933 238.933-107.52 238.933-238.933 238.933z"/><path d="m459.8 255c0-16.629-2.023-32.805-5.81-48.31-.035-.393-.085-.788-.164-1.183-4.267-17.067-11.093-34.133-19.627-49.493-.221-.442-.486-.854-.788-1.234-17.015-30.085-41.414-55.498-70.696-73.739-.551-.673-1.187-1.289-1.904-1.827-14.504-9.387-31.571-16.214-48.638-21.334-.832-.166-1.663-.232-2.476-.204-17.429-4.863-35.772-7.476-54.697-7.476-16.629 0-32.805 2.023-48.31 5.81-.393.035-.788.085-1.183.164-17.067 4.266-34.134 11.093-49.494 19.626-.442.221-.853.486-1.234.787-30.813 17.426-56.733 42.594-75.058 72.824-.176.203-.346.412-.508.629-9.386 14.507-16.213 31.573-21.333 48.64-.108.538-.174 1.075-.2 1.608-4.866 17.434-7.48 35.781-7.48 54.712 0 16.629 2.023 32.805 5.81 48.31.035.393.085.788.164 1.183 4.267 17.067 11.093 34.133 19.627 49.493.221.442.486.853.787 1.234 16.71 29.546 40.539 54.589 69.123 72.755.678 1.066 1.568 2.02 2.623 2.811 14.507 9.387 31.573 16.213 48.64 21.333 1.068.214 2.137.267 3.165.159 17.478 4.893 35.877 7.521 54.862 7.521 73.194 0 137.728-38.922 173.96-97.083.673-.551 1.289-1.187 1.827-1.904 9.387-14.507 16.213-31.573 21.333-48.64.166-.832.232-1.663.204-2.476 4.862-17.428 7.475-35.771 7.475-54.696zm-40.776 91.015-46.264-20.188c-13.653-5.973-29.013-3.413-38.4 6.827-2.56 1.707-4.267 3.413-5.973 5.12-10.24 8.533-13.653 23.893-8.533 37.547l18.773 46.933c-10.24 5.12-20.48 9.387-31.573 12.8l-18.774-46.934c-5.12-13.653-17.92-22.187-33.28-22.187-1.707 0-4.267 0-5.973.853-14.507-.853-27.307 7.68-33.28 20.48l-20.318 45.715c-10.963-3.697-21.477-8.39-31.443-13.958l20.188-46.264c5.973-13.653 3.413-29.013-6.827-38.4-1.707-1.707-3.413-3.413-5.12-5.12-8.533-10.24-23.893-13.653-37.547-8.533l-46.933 18.774c-5.12-10.24-9.387-20.48-12.8-31.573l46.933-18.773c13.653-5.12 22.187-17.92 22.187-33.28 0-1.707 0-4.267 0-5.973.853-14.507-7.68-27.307-20.48-33.28l-46.08-20.48c3.413-11.093 8.533-21.333 13.653-31.573l46.933 20.48c13.653 5.973 29.013 3.413 38.4-6.827 2.56-1.707 4.267-3.413 5.973-5.12 10.24-8.533 13.653-23.893 8.533-37.547l-18.773-47.787c10.24-5.12 20.48-9.387 31.573-12.8l18.773 46.933c5.12 13.653 17.92 22.187 33.28 22.187 1.707-.853 4.267 0 5.973 0 13.653.853 27.307-7.68 33.28-20.48l20.48-46.08c2.213.681 4.384 1.445 6.536 2.248 8.612 3.324 16.922 7.266 24.877 11.773l-20.319 46.565c-5.973 13.653-3.413 29.013 6.827 38.4l5.12 5.12c8.533 10.24 23.893 13.653 37.547 8.533l46.793-18.717c5.061 10.097 9.243 20.703 12.432 31.721l-46.425 18.57c-13.653 5.12-22.187 17.92-22.187 33.28v5.973c-.853 14.507 7.68 27.307 20.48 33.28l45.715 20.318c-3.696 10.963-8.389 21.477-13.957 31.444zm-351.757-91.015c0-14.447 1.656-28.526 4.784-42.057l44.709 19.871c5.973 2.56 10.24 9.387 10.24 16.213v6.827c0 7.68-4.267 14.507-11.093 17.067l-45.219 17.664c-2.236-11.532-3.421-23.426-3.421-35.585zm325.973 23.04c-5.973-3.413-10.24-10.24-10.24-17.067 0-2.56 0-4.267 0-6.827 0-7.68 4.267-14.507 11.093-17.067l45.219-17.664c2.236 11.531 3.421 23.425 3.421 35.584 0 14.722-1.724 29.061-4.968 42.829zm21.248-121.74-45.142 17.633c-6.827 2.56-14.507.853-18.773-4.267-1.707-1.707-4.267-4.267-5.973-5.973-5.12-5.12-5.973-12.8-3.413-19.627l19.002-44.338c21.798 14.845 40.34 34.151 54.299 56.572zm-116.659-84.065-19.789 44.525c-3.413 5.973-10.24 11.093-17.067 10.24-1.707 0-4.267 0-6.827 0-7.68 0-14.507-4.267-17.067-11.093l-17.664-45.219c11.531-2.236 23.425-3.421 35.584-3.421 14.723 0 29.062 1.723 42.83 4.968zm-141.62 23.333 17.724 46.792c2.56 6.827.853 14.507-4.267 18.773-1.707 1.707-4.267 4.267-5.973 5.973-5.12 5.12-12.8 5.973-19.627 3.413l-44.861-19.938c14.894-22.102 34.358-40.895 57.004-55.013zm-60.697 258.132 45.142-17.633c6.827-2.56 14.507-.853 18.773 4.267l5.973 5.973c5.12 5.12 5.973 12.8 3.413 19.627l-19.54 43.964c-21.564-14.795-39.917-33.962-53.761-56.198zm115.89 83.876 19.705-44.336c3.413-5.973 10.24-10.24 17.067-10.24h6.827c8.533 0 14.507 4.267 17.92 11.093l17.664 45.219c-11.531 2.236-23.425 3.421-35.584 3.421-14.998 0-29.595-1.793-43.599-5.157zm141.612-22.658-17.801-45.571c-2.56-6.827-.853-14.507 4.267-18.773 2.56-1.707 5.12-4.267 6.827-5.973 5.12-5.12 12.8-5.973 19.627-3.413l44.338 19.002c-14.996 22.02-34.543 40.72-57.258 54.728z"/><path d="m255 280.6c-18.773 0-34.133 15.36-34.133 34.133s15.36 34.133 34.133 34.133 34.133-15.36 34.133-34.133-15.36-34.133-34.133-34.133zm0 51.2c-9.387 0-17.067-7.68-17.067-17.067s7.68-17.067 17.067-17.067 17.067 7.68 17.067 17.067-7.68 17.067-17.067 17.067z"/><path d="m314.733 220.867c-18.773 0-34.133 15.36-34.133 34.133s15.36 34.133 34.133 34.133 34.133-15.36 34.133-34.133c.001-18.773-15.359-34.133-34.133-34.133zm0 51.2c-9.387 0-17.067-7.68-17.067-17.067s7.68-17.067 17.067-17.067 17.067 7.68 17.067 17.067-7.68 17.067-17.067 17.067z"/><path d="m255 229.4c18.773 0 34.133-15.36 34.133-34.133s-15.36-34.133-34.133-34.133-34.133 15.36-34.133 34.133 15.36 34.133 34.133 34.133zm0-51.2c9.387 0 17.067 7.68 17.067 17.067s-7.68 17.067-17.067 17.067-17.067-7.68-17.067-17.067 7.68-17.067 17.067-17.067z"/><path d="m195.267 220.867c-18.773 0-34.133 15.36-34.133 34.133s15.36 34.133 34.133 34.133 34.133-15.36 34.133-34.133-15.36-34.133-34.133-34.133zm0 51.2c-9.387 0-17.067-7.68-17.067-17.067s7.68-17.067 17.067-17.067 17.067 7.68 17.067 17.067-7.681 17.067-17.067 17.067z"/></g></g></g><g/><g/><g/><g/><g/><g/><g/><g/><g/><g/><g/><g/><g/><g/><g/></svg>