<svg id="Layer_1" enable-background="new 0 0 512 512" viewBox="0 0 512 512" xmlns="http://www.w3.org/2000/svg"><g transform="translate(1 1)"><g><g><path d="m255-1c-140.8 0-256 115.2-256 256s115.2 256 256 256 256-115.2 256-256-115.2-256-256-256zm0 494.933c-131.413 0-238.933-107.52-238.933-238.933s107.52-238.933 238.933-238.933 238.933 107.52 238.933 238.933-107.52 238.933-238.933 238.933z"/><path d="m429.64 148.369c-.152-.279-.318-.552-.509-.814-.773-1.245-1.556-2.482-2.354-3.708-5.97-9.266-12.785-18.083-20.328-26.347-.017-.018-.033-.036-.05-.054-1.035-1.133-2.078-2.26-3.14-3.372-.588-.618-1.187-1.224-1.783-1.834-.555-.567-1.1-1.141-1.662-1.702-37.134-37.223-88.405-60.338-144.814-60.338-38.482 0-74.569 10.762-105.412 29.417-1.053.202-2.066.632-2.962 1.304-26.453 16.213-49.493 39.253-66.56 66.56-.405.809-.66 1.716-.777 2.66-15.579 25.94-25.576 55.563-28.312 87.184-.007.078-.014.155-.021.233-.075.874-.149 1.747-.212 2.624-.094 1.263-.173 2.523-.242 3.781-.021.383-.039.767-.058 1.151-.072 1.483-.131 2.962-.17 4.435-.005.19-.008.381-.012.571-.039 1.634-.062 3.263-.062 4.88 0 1.573.023 3.157.061 4.747.006.264.01.528.017.791.035 1.255.084 2.515.145 3.78 1.587 34.984 12.054 67.754 29.194 96.094.202 1.053.632 2.066 1.303 2.961 16.213 26.453 39.253 49.493 66.56 66.56.809.405 1.716.66 2.66.777 25.94 15.579 55.563 25.576 87.185 28.312.078.007.155.014.233.021.874.075 1.747.149 2.624.212 1.263.094 2.523.173 3.781.242.383.021.767.039 1.151.058 1.483.072 2.962.131 4.435.17.19.005.381.008.571.012 1.634.039 3.263.062 4.88.062 1.573 0 3.156-.023 4.745-.061.265-.006.531-.01.796-.017 1.245-.035 2.495-.084 3.748-.144 35.498-1.605 68.716-12.353 97.341-29.938.28-.152.555-.319.817-.511 1.242-.771 2.478-1.553 3.702-2.35 9.268-5.971 18.088-12.788 26.353-20.333.015-.014.03-.027.045-.041 1.135-1.037 2.264-2.082 3.378-3.146.616-.586 1.22-1.183 1.828-1.776.569-.557 1.146-1.105 1.709-1.669 37.224-37.134 60.338-88.405 60.338-144.813 0-38.99-11.049-75.522-30.16-106.631zm-10.555 197.538-48.885-36.294c1.707-3.413 2.56-6.827 4.267-11.093l60.732 8.997c-3.955 13.477-9.39 26.335-16.114 38.39zm-59.484 64.766-40.601-54.98c-2.56-3.413-7.68-4.267-11.093-2.56-6.827 3.413-13.653 5.973-21.333 8.533-4.267.853-6.827 5.12-5.973 9.387l10.232 68.211c-.745.146-1.489.295-2.237.432-22.397 3.749-44.793 3.749-67.19 0-.748-.137-1.492-.286-2.237-.432l9.379-69.064c.853-4.267-1.707-8.533-5.973-9.387-7.68-1.707-14.507-5.12-21.333-8.533-4.267-1.707-8.533-.853-11.093 2.56l-40.731 55.156c-19.696-13.485-36.726-30.611-50.089-50.396l54.978-40.6c3.413-2.56 4.267-7.68 2.56-11.093-3.413-5.973-5.973-13.653-8.533-21.333-.853-4.267-5.12-6.827-9.387-5.973l-68.211 10.232c-2.267-11.608-3.469-23.586-3.469-35.832 0-6.045.301-12.023.867-17.926.641-5.828 1.704-11.55 3.4-17.061l68.267 10.24c4.267.853 8.533-1.707 9.387-5.973 1.707-7.68 5.12-14.507 8.533-21.333 1.707-4.267.853-8.533-2.56-11.093l-55.467-40.96c13.653-19.627 30.72-36.693 50.347-50.347l40.959 55.465c2.56 3.413 7.68 4.267 11.093 2.56 5.973-3.413 13.653-5.973 21.333-8.533 4.267-.853 6.827-5.12 5.973-9.387l-10.24-68.267c23.893-4.267 47.787-4.267 71.68 0l-10.24 68.267c-.853 4.267 1.707 8.533 5.973 9.387 7.68 1.707 14.507 5.12 21.333 8.533 4.267 1.707 8.533.853 11.093-2.56l40.96-55.467c19.627 13.653 36.693 30.72 50.347 50.347l-55.467 40.96c-3.413 2.56-4.267 7.68-2.56 11.093 3.413 5.973 5.973 13.653 8.533 21.333.853 4.267 5.12 6.827 9.387 5.973l68.267-10.24c2.56 11.947 3.413 23.893 3.413 35.84s-.853 23.893-3.413 35.84l-68.267-10.24c-4.267-.853-8.533 1.707-9.387 5.973-1.707 7.68-5.12 14.507-8.533 21.333-1.707 4.267-.853 8.533 2.56 11.093l55.156 40.731c-13.483 19.698-30.609 36.728-50.393 50.091zm-52.084 24.526-8.997-60.732c3.413-.853 7.68-2.56 11.093-4.267l36.293 48.885c-12.054 6.724-24.912 12.159-38.389 16.114zm-104.913.036c-13.354-3.909-26.102-9.27-38.063-15.899l35.846-48.282c3.413 1.707 7.68 2.56 11.093 4.267zm-127.558-126.901 60.488-8.961c.853 3.413 2.56 7.68 4.267 11.093l-48.547 36.042c-6.744-11.983-12.208-24.77-16.208-38.174zm15.618-143.793 48.282 35.846c-1.707 3.413-2.56 6.827-4.267 11.093l-59.915-8.876c3.91-13.354 9.271-26.102 15.9-38.063zm111.002-89.495 8.961 60.488c-3.413.853-7.68 2.56-11.093 4.267l-36.042-48.547c11.983-6.744 24.77-12.208 38.174-16.208zm105.851-.245c13.477 3.955 26.335 9.39 38.389 16.114l-36.293 48.885c-3.413-1.707-7.68-2.56-11.093-4.267zm66.95 136.679c-.853-3.413-2.56-7.68-4.267-11.093l48.885-36.293c6.724 12.054 12.159 24.912 16.114 38.389z"/><path d="m314.733 220.867c-.383 0-.763.016-1.144.029-6.052-9.797-14.532-18.058-24.505-23.823.032-.598.049-1.201.049-1.806 0-18.773-15.36-34.133-34.133-34.133s-34.133 15.36-34.133 34.133c0 .771.035 1.534.086 2.292-9.63 5.745-17.822 13.828-23.709 23.37-.655-.038-1.313-.062-1.977-.062-18.773 0-34.133 15.36-34.133 34.133s15.36 34.133 34.133 34.133c.324 0 .645-.016.967-.025 5.928 10.248 14.492 18.919 24.65 24.996-.004.21-.016.418-.016.629 0 18.773 15.36 34.133 34.133 34.133s34.133-15.36 34.133-34.133c0-.042-.003-.083-.003-.125 10.521-6.092 19.386-14.957 25.478-25.478.042 0 .083.003.125.003 18.773 0 34.133-15.36 34.133-34.133s-15.36-34.133-34.134-34.133zm-59.733-42.667c9.387 0 17.067 7.68 17.067 17.067s-7.68 17.067-17.067 17.067c-7.378 0-13.684-4.754-16.052-11.343-.053-.202-.116-.4-.161-.604 0-.958-.24-1.917-.673-2.786-.106-.766-.18-1.541-.18-2.335-.001-9.386 7.679-17.066 17.066-17.066zm-76.8 76.8c0-9.387 7.68-17.067 17.067-17.067.402 0 .796.033 1.191.061.901.673 1.896 1.253 3.076 1.646 4.301.956 8.065 3.519 10.546 6.936 1.426 2.491 2.254 5.363 2.254 8.424 0 9.387-7.68 17.067-17.067 17.067s-17.067-7.68-17.067-17.067zm76.8 76.8c-9.387 0-17.067-7.68-17.067-17.067 0-.566.031-1.125.085-1.677.298-.536.559-1.11.768-1.736.798-7.184 7.57-12.873 14.728-13.578.491-.043.984-.076 1.486-.076.581 0 1.154.03 1.721.088.029.003.057.008.086.011 8.545.91 15.26 8.191 15.26 16.968 0 9.387-7.68 17.067-17.067 17.067zm29.013-34.987c-.021-.033-.045-.063-.065-.096-5.66-9.04-15.427-15.27-26.637-16.03-.047-.003-.093-.008-.14-.011-.719-.046-1.441-.077-2.171-.077-.661 0-1.317.024-1.97.061-.314.017-.626.046-.939.072-.287.025-.573.049-.858.081-10.474 1.116-19.907 6.846-25.246 15.999-5.12-3.413-9.387-7.68-12.8-12.8.033-.021.063-.045.096-.065 9.04-5.66 15.27-15.427 16.03-26.637.003-.047.008-.093.011-.14.046-.719.077-1.441.077-2.171 0-.661-.024-1.317-.061-1.97-.017-.314-.046-.626-.072-.939-.025-.287-.049-.573-.081-.858-1.116-10.474-6.846-19.907-15.999-25.246 3.413-5.12 7.68-9.387 12.8-12.8.021.033.045.063.065.096 5.66 9.04 15.427 15.27 26.636 16.03.047.003.093.008.14.011.719.046 1.441.077 2.171.077.661 0 1.317-.024 1.97-.061.314-.017.626-.046.939-.072.287-.025.574-.049.858-.081 10.474-1.116 19.907-6.846 25.246-15.999 5.12 3.413 9.387 7.68 12.8 12.8-.033.021-.063.045-.096.065-9.04 5.66-15.27 15.427-16.03 26.636-.003.047-.008.093-.011.14-.046.719-.077 1.441-.077 2.171 0 .661.024 1.317.061 1.97.017.314.046.626.072.939.025.287.049.574.081.858 1.116 10.474 6.846 19.907 15.999 25.246-3.412 5.121-7.679 9.388-12.799 12.801zm30.72-24.746c-9.247 0-16.821-7.456-17.045-16.651.223-7.499 6.099-14.101 13.632-15.775 1.534 0 3.062-.623 4.229-1.665 9.01.432 16.251 7.914 16.251 17.025 0 9.386-7.68 17.066-17.067 17.066z"/></g></g></g><g/><g/><g/><g/><g/><g/><g/><g/><g/><g/><g/><g/><g/><g/><g/></svg>