<svg id="Layer_1" enable-background="new 0 0 512 512" viewBox="0 0 512 512" xmlns="http://www.w3.org/2000/svg"><g transform="translate(1 1)"><g><g><path d="m255-1c-140.8 0-256 115.2-256 256s115.2 256 256 256 256-115.2 256-256-115.2-256-256-256zm0 494.933c-131.413 0-238.933-107.52-238.933-238.933s107.52-238.933 238.933-238.933 238.933 107.52 238.933 238.933-107.52 238.933-238.933 238.933z"/><path d="m289.133 314.733c0-18.773-15.36-34.133-34.133-34.133s-34.133 15.36-34.133 34.133 15.36 34.133 34.133 34.133c18.773.001 34.133-15.359 34.133-34.133zm-34.133 17.067c-9.387 0-17.067-7.68-17.067-17.067s7.68-17.067 17.067-17.067 17.067 7.68 17.067 17.067-7.68 17.067-17.067 17.067z"/><path d="m280.6 255c0 18.773 15.36 34.133 34.133 34.133s34.133-15.36 34.133-34.133-15.36-34.133-34.133-34.133-34.133 15.36-34.133 34.133zm51.2 0c0 9.387-7.68 17.067-17.067 17.067s-17.067-7.68-17.067-17.067 7.68-17.067 17.067-17.067 17.067 7.68 17.067 17.067z"/><path d="m220.867 195.267c0 18.773 15.36 34.133 34.133 34.133s34.133-15.36 34.133-34.133-15.36-34.133-34.133-34.133c-18.773-.001-34.133 15.359-34.133 34.133zm34.133-17.067c9.387 0 17.067 7.68 17.067 17.067s-7.68 17.067-17.067 17.067-17.067-7.68-17.067-17.067 7.68-17.067 17.067-17.067z"/><path d="m195.267 220.867c-18.773 0-34.133 15.36-34.133 34.133s15.36 34.133 34.133 34.133 34.133-15.36 34.133-34.133-15.36-34.133-34.133-34.133zm0 51.2c-9.387 0-17.067-7.68-17.067-17.067s7.68-17.067 17.067-17.067 17.067 7.68 17.067 17.067-7.681 17.067-17.067 17.067z"/><path d="m41.667 222.573c23.893 10.24 49.493 15.36 75.093 15.36h21.333c4.267 0 7.68-2.56 7.68-5.973 9.387-41.813 42.667-75.093 84.48-84.48 4.267-.853 6.827-4.267 6.827-8.533v-21.333c0-26.453-5.12-51.2-15.36-75.093-1.707-3.413-5.12-5.973-9.387-5.12-87.893 17.066-158.72 87.892-175.786 175.786-.854 4.266 1.706 7.68 5.12 9.386zm168.106-167.253c6.827 19.627 11.093 40.107 11.093 61.44v14.507c-43.52 11.947-77.653 46.08-89.6 89.6h-14.506c-21.333 0-41.813-3.413-61.44-11.093 17.067-75.947 78.507-137.387 154.453-154.454z"/><path d="m278.893 146.627c41.813 9.387 75.093 42.667 84.48 84.48.853 4.267 4.267 6.827 8.533 6.827h21.333c25.6 0 51.2-5.12 74.24-16.213 3.413-1.707 5.973-5.12 5.12-9.387-17.067-87.893-87.893-158.72-175.787-175.787-4.267-.853-7.68 1.707-9.387 5.12-10.24 23.893-15.36 49.493-15.36 75.093v21.333c.002 4.267 2.562 7.68 6.828 8.534zm11.094-29.014c0-21.333 3.413-41.813 11.093-61.44 75.947 17.067 136.533 77.653 153.6 153.6-19.627 6.827-40.107 11.093-61.44 11.093h-14.507c-11.947-43.52-46.08-77.653-88.747-88.747v-14.506z"/><path d="m231.96 363.373c-41.813-9.387-75.093-42.667-84.48-84.48-.853-4.267-4.267-6.827-8.533-6.827h-21.333c-26.453 0-51.2 5.12-75.093 15.36-3.413 1.707-5.973 5.12-5.12 9.387 17.067 87.893 87.893 158.72 175.787 175.787h1.707c3.413 0 5.973-1.707 8.533-4.267 10.24-23.893 15.36-49.493 15.36-75.093v-21.333c-.001-4.267-2.561-7.68-6.828-8.534zm-11.947 29.014c0 21.333-3.413 41.813-11.093 61.44-75.947-17.067-136.533-77.653-153.6-153.6 19.627-6.827 40.107-11.093 60.587-11.947h14.507c11.947 43.52 46.08 77.653 89.6 89.6v14.507z"/><path d="m468.333 286.573c-23.893-10.24-49.493-15.36-75.093-15.36h-21.333c-4.267 0-7.68 2.56-8.533 6.827-9.387 41.813-42.667 75.093-84.48 84.48-4.267.853-6.827 4.267-6.827 8.533v21.333c0 26.453 5.12 51.2 15.36 75.093.853 3.413 4.267 5.12 7.68 5.12.853 0 1.707 0 2.56-.853 87.893-17.067 158.72-87.893 175.787-175.787.853-4.266-1.707-7.679-5.121-9.386zm-168.106 168.107c-6.827-19.627-11.093-40.107-11.093-61.44v-14.507c43.52-11.947 77.653-46.08 88.747-88.747h14.507c21.333 0 41.813 3.413 61.44 11.093-17.068 75.948-77.655 136.534-153.601 153.601z"/></g></g></g><g/><g/><g/><g/><g/><g/><g/><g/><g/><g/><g/><g/><g/><g/><g/></svg>