<svg id="Layer_1" enable-background="new 0 0 512 512" viewBox="0 0 512 512" xmlns="http://www.w3.org/2000/svg"><g transform="translate(1 1)"><g><g><path d="m255-1c-140.8 0-256 115.2-256 256s115.2 256 256 256 256-115.2 256-256-115.2-256-256-256zm0 494.933c-131.413 0-238.933-107.52-238.933-238.933s107.52-238.933 238.933-238.933 238.933 107.52 238.933 238.933-107.52 238.933-238.933 238.933z"/><path d="m289.133 314.733c0-18.773-15.36-34.133-34.133-34.133s-34.133 15.36-34.133 34.133 15.36 34.133 34.133 34.133c18.773.001 34.133-15.359 34.133-34.133zm-34.133 17.067c-9.387 0-17.067-7.68-17.067-17.067s7.68-17.067 17.067-17.067 17.067 7.68 17.067 17.067-7.68 17.067-17.067 17.067z"/><path d="m314.733 220.867c-18.773 0-34.133 15.36-34.133 34.133s15.36 34.133 34.133 34.133 34.133-15.36 34.133-34.133c.001-18.773-15.359-34.133-34.133-34.133zm0 51.2c-9.387 0-17.067-7.68-17.067-17.067s7.68-17.067 17.067-17.067 17.067 7.68 17.067 17.067-7.68 17.067-17.067 17.067z"/><path d="m220.867 195.267c0 18.773 15.36 34.133 34.133 34.133s34.133-15.36 34.133-34.133-15.36-34.133-34.133-34.133c-18.773-.001-34.133 15.359-34.133 34.133zm34.133-17.067c9.387 0 17.067 7.68 17.067 17.067s-7.68 17.067-17.067 17.067-17.067-7.68-17.067-17.067 7.68-17.067 17.067-17.067z"/><path d="m195.267 220.867c-18.773 0-34.133 15.36-34.133 34.133s15.36 34.133 34.133 34.133 34.133-15.36 34.133-34.133-15.36-34.133-34.133-34.133zm0 51.2c-9.387 0-17.067-7.68-17.067-17.067s7.68-17.067 17.067-17.067 17.067 7.68 17.067 17.067-7.681 17.067-17.067 17.067z"/><path d="m41.667 234.52 8.533 2.56c19.627 5.973 39.253 9.387 59.733 9.387 9.387 0 18.773-.853 29.867-3.413 3.413 0 5.973-3.413 6.827-6.827 2.56-17.067 9.387-33.28 19.627-46.933 2.56-3.413 2.56-6.827 0-10.24-17.92-23.04-40.107-42.667-67.413-57.173l-8.533-4.267c-4.267-1.707-8.533-.853-11.093 2.56-23.04 30.72-38.4 66.56-43.52 104.96-.855 4.266 1.705 8.533 5.972 9.386zm46.933-98.133 1.707.853c23.04 11.947 42.667 28.16 58.027 47.787-8.533 12.8-14.507 27.307-17.92 42.667-24.747 3.413-50.347.853-75.093-6.827h-2.56c5.972-30.72 17.066-58.88 35.839-84.48z"/><path d="m163.693 330.093c2.56-3.413 2.56-6.827 0-10.24-10.24-13.653-17.067-29.867-19.627-46.933 0-3.413-3.413-5.973-6.827-6.827-29.013-4.267-58.88-1.707-87.893 6.827l-8.533 2.56c-4.267.853-6.827 5.12-5.973 9.387 5.12 38.4 20.48 74.24 43.52 104.96 1.707 2.56 4.267 3.413 6.827 3.413 1.707 0 3.413-.853 2.56-1.707l8.533-4.267c26.453-14.506 49.493-33.279 67.413-57.173zm-75.946 42.667c-17.92-24.747-29.867-53.76-34.987-83.627l1.707-.853c24.747-6.827 50.347-9.387 75.093-6.827 3.413 15.36 9.387 29.867 17.92 42.667-15.36 19.627-34.987 35.84-58.027 47.787z"/><path d="m272.92 145.773c17.067 2.56 33.28 9.387 46.933 19.627 1.707.853 3.413 1.707 5.12 1.707s3.413-.853 5.973-.853c23.893-18.773 43.52-40.96 57.173-67.413l4.267-8.533c1.707-4.267.853-8.533-2.56-11.093-30.72-23.04-66.56-38.4-104.96-43.52-4.267-.853-8.533 1.707-9.387 5.973l-2.56 8.533c-9.387 29.013-11.093 58.88-6.827 88.747.001 3.412 3.415 5.972 6.828 6.825zm16.213-90.453v-2.56c30.72 5.973 58.88 17.067 83.627 34.987l-.853 1.707c-11.093 22.187-27.307 41.813-47.787 58.027-12.8-8.533-27.307-14.507-42.667-17.92-2.56-24.748 0-49.494 7.68-74.241z"/><path d="m122.733 97.987c14.507 26.453 33.28 49.493 57.173 67.413 1.707.853 3.413 1.707 5.12 1.707s3.413-.853 5.973-3.413c13.653-10.24 29.867-17.067 46.933-19.627 3.413 0 5.973-3.413 6.827-6.827 4.267-29.013 1.707-58.88-6.827-87.893l-2.56-8.533c-1.707-4.267-5.12-6.827-9.387-5.973-38.4 5.12-74.24 20.48-104.96 43.52-3.413 2.56-4.267 7.68-2.56 11.093zm98.134-45.227v1.707c6.827 24.747 9.387 50.347 6.827 75.093-15.36 3.413-29.867 9.387-42.667 17.92-19.627-15.36-35.84-34.987-47.787-58.027l-.853-1.707c25.6-17.919 53.76-29.866 84.48-34.986z"/><path d="m237.08 364.227c-17.067-2.56-33.28-9.387-46.933-19.627-3.413-2.56-6.827-2.56-10.24 0-23.04 17.92-42.667 40.107-57.173 67.413l-4.267 8.533c-1.707 4.267-.853 8.533 2.56 11.093 30.72 23.04 66.56 38.4 104.96 43.52h.853c3.413 0 6.827-2.56 7.68-6.827l2.56-8.533c8.533-28.16 11.093-58.027 6.827-88.747 0-3.412-3.414-5.972-6.827-6.825zm-16.213 91.306-.853 1.707c-29.867-5.12-58.88-17.067-83.627-34.987l.853-1.707c11.947-23.04 28.16-42.667 47.787-58.027 12.8 8.533 27.307 14.507 42.667 17.92 3.413 26.454.853 51.201-6.827 75.094z"/><path d="m386.413 413.72c-12.8-26.453-32.427-48.64-57.173-67.413-3.413-2.56-6.827-2.56-10.24 0-13.653 10.24-29.867 17.067-46.933 19.627-3.413 0-5.973 3.413-6.827 6.827-4.267 29.867-1.707 59.733 6.827 87.893l2.56 8.533c1.707 3.413 5.12 5.973 8.533 5.973.853 0 .853 0 0 .853 38.4-5.12 74.24-20.48 104.96-43.52 3.413-2.56 4.267-7.68 2.56-11.093zm-97.28 43.52-.853-1.707c-7.68-23.893-9.387-49.493-6.827-75.093 15.36-3.413 29.867-9.387 42.667-17.92 20.48 16.213 36.693 35.84 47.787 58.027l.853 1.707c-24.747 17.919-53.76 29.866-83.627 34.986z"/><path d="m345.453 180.76c-2.56 3.413-2.56 6.827 0 10.24 10.24 13.653 17.067 29.867 19.627 46.933 0 3.413 3.413 5.973 6.827 6.827 9.387.853 19.627 1.707 29.013 1.707 20.48 0 40.107-3.413 59.733-7.68l8.533-2.56c4.267-1.707 6.827-5.12 5.973-9.387-5.12-38.4-20.48-74.24-43.52-104.96-2.56-3.413-7.68-4.267-11.093-2.56l-7.68 4.267c-26.453 12.8-48.639 32.426-67.413 57.173zm75.094-42.667 1.707-.853c17.92 24.747 29.867 53.76 34.987 83.627l-1.707.853c-24.747 7.68-49.493 9.387-75.093 6.827-3.413-15.36-9.387-29.867-17.92-42.667 16.212-20.48 35.839-36.693 58.026-47.787z"/><path d="m467.48 276.333-8.533-2.56c-28.16-8.533-57.173-11.093-87.893-6.827-3.413 0-5.973 3.413-6.827 6.827-2.56 17.067-9.387 33.28-19.627 46.933-2.56 3.413-2.56 7.68 0 10.24 18.773 23.893 40.96 43.52 67.413 57.173l8.533 4.267c1.707.853 2.56.853 4.267.853 2.56 0 5.12-1.707 5.12-2.56 23.04-30.72 38.4-66.56 43.52-104.96.854-4.266-1.706-8.532-5.973-9.386zm-45.227 96.427-1.707-.853c-22.187-11.093-41.813-27.307-58.027-47.787 8.533-12.8 14.507-27.307 17.067-41.813 26.453-3.413 51.2-.853 75.093 6.827h2.56c-5.119 29.866-17.066 58.879-34.986 83.626z"/></g></g></g><g/><g/><g/><g/><g/><g/><g/><g/><g/><g/><g/><g/><g/><g/><g/></svg>