<svg id="Layer_1" enable-background="new 0 0 512 512" viewBox="0 0 512 512" xmlns="http://www.w3.org/2000/svg"><g transform="translate(1 1)"><g><g><path d="m255-1c-140.8 0-256 115.2-256 256s115.2 256 256 256 256-115.2 256-256-115.2-256-256-256zm0 494.933c-131.413 0-238.933-107.52-238.933-238.933s107.52-238.933 238.933-238.933 238.933 107.52 238.933 238.933-107.52 238.933-238.933 238.933z"/><path d="m459.8 255c0-41.452-12.493-80.122-33.882-112.454-.194-.984-.549-1.913-1.104-2.746-15.36-22.187-33.28-40.96-55.467-55.467-.927-.618-2.081-1.005-3.293-1.175-21.335-13.865-45.377-23.87-71.122-29.011-.49-.211-.995-.4-1.531-.533-25.6-5.12-52.053-5.12-77.653 0-1.387 0-2.63.428-3.678 1.159-24.553 5.291-47.506 15.011-67.971 28.286-1.571.013-3.038.435-4.298 1.275-22.187 15.36-40.96 33.28-55.467 55.467-.781 1.172-1.187 2.704-1.253 4.264-13.56 20.897-23.426 44.385-28.641 69.526-.345.672-.634 1.389-.826 2.156-2.561 12.8-3.414 26.453-3.414 39.253s.853 25.6 3.413 39.253c0 1.387.428 2.63 1.159 3.678 5.291 24.553 15.011 47.506 28.286 67.972.013 1.571.435 3.038 1.275 4.297 15.36 22.187 33.28 40.96 55.467 55.467 1.172.781 2.704 1.187 4.264 1.253 20.897 13.56 44.385 23.426 69.526 28.641.672.345 1.389.634 2.156.826 12.8 2.56 26.453 3.413 39.253 3.413s26.453-.853 38.4-3.413c1.196 0 2.284-.32 3.233-.875 25.082-5.233 48.516-15.093 69.367-28.635 1.211-.145 2.345-.543 3.346-1.21 22.187-15.36 40.96-33.28 55.467-55.467.51-.765.849-1.69 1.054-2.669 21.422-32.348 33.934-71.046 33.934-112.531zm-197.792 187.588c-.98.039-1.961.071-2.943.093-1.193.026-2.388.043-3.586.046-.175.001-.349.005-.524.005-1.471 0-2.937-.022-4.4-.056-.472-.011-.945-.03-1.417-.045-.926-.029-1.85-.064-2.773-.106-.728-.034-1.456-.072-2.184-.114-.546-.031-1.09-.068-1.635-.104-6.073-.411-12.169-1.118-18.265-2.134-4.267-23.893-5.12-46.933.853-70.827 0-4.267-1.707-7.68-5.973-9.387-4.267-1.707-8.533-3.413-11.947-5.12-4.267-2.56-8.533-.853-11.093 2.56-12.8 19.627-29.867 36.693-50.347 49.493-16.213-11.947-30.72-26.453-42.667-42.667 12.8-19.627 29.867-36.693 49.493-50.347 3.413-2.56 4.267-7.68 2.56-11.093-2.56-3.413-3.413-7.68-5.12-11.093-.853-4.267-5.12-6.827-9.387-5.973-23.04 4.267-46.933 4.267-70.827-.853-1.045-5.749-1.767-11.82-2.172-18.013-.015-.239-.032-.478-.046-.718-.056-.906-.101-1.816-.143-2.727-.034-.75-.062-1.5-.086-2.252-.02-.61-.043-1.22-.057-1.831-.033-1.439-.055-2.88-.055-4.326 0-1.518.022-3.031.058-4.541.005-.237.014-.476.02-.713.251-9.013 1.152-17.869 2.645-26.53 22.726-4.897 46.268-4.846 69.81-.642 4.267 0 7.68-1.707 9.387-5.973 1.707-3.413 3.413-7.68 5.12-11.093 2.56-4.267.853-8.533-2.56-11.093-19.262-12.562-36.048-29.242-48.765-49.217 11.993-16.53 26.6-31.055 43.211-42.943 19.089 12.702 35.718 29.44 49.074 48.639 2.56 3.413 7.68 4.267 11.093 2.56 3.413-2.56 6.827-3.413 11.093-5.12 4.267-.853 6.827-5.12 5.973-9.387-4.162-22.477-4.25-45.767.502-69.076 10.115-1.703 20.492-2.604 31.072-2.604 10.276 0 20.361.85 30.2 2.459 4.77 22.544 4.687 45.882.52 69.221 0 4.267 1.707 7.68 5.973 9.387 3.413 1.707 7.68 3.413 11.093 5.12 4.267 2.56 8.533.853 11.093-2.56 12.622-19.353 29.399-36.209 49.5-48.948 16.576 11.793 31.168 26.21 43.178 42.621-12.763 19.415-29.699 36.31-49.158 49.847-3.413 2.56-4.267 7.68-2.56 11.093 2.56 3.413 3.413 6.827 5.12 11.093.853 4.267 5.12 6.827 9.387 5.973 22.997-4.259 46.845-4.265 70.694.827 1.74 10.154 2.665 20.576 2.687 31.201-.027 9.264-.875 19.336-2.555 29.413-23.04 5.12-46.933 5.12-70.827.853-4.267 0-7.68 1.707-9.387 5.973s-3.413 8.533-5.12 11.947c-2.56 4.267-.853 8.533 2.56 11.093 19.627 12.8 36.693 29.867 49.493 50.347-11.947 16.213-26.453 30.72-42.667 42.667-19.627-12.8-36.693-29.867-50.347-49.493-2.56-3.413-7.68-4.267-11.093-2.56-3.413 2.56-6.827 3.413-11.093 5.12-4.267.853-6.827 5.12-5.973 9.387 4.267 23.04 4.267 46.933-.853 70.827-7.292 1.268-14.703 2.063-22.187 2.389-.222.008-.446.017-.67.025zm-188.195-138.574c20.272 3.47 40.996 3.933 61.72.479-16.61 12.458-30.975 27.162-43.094 44.11-8.031-13.854-14.332-28.818-18.626-44.589zm132.243 132.192c-15.819-4.3-30.827-10.621-44.719-18.68 16.974-12.34 31.697-27.282 44.17-43.912-3.478 20.863-2.985 41.728.549 62.592zm-113.617-274.81c12.12 16.948 26.484 31.652 43.094 44.11-20.732-2.764-41.463-2.728-61.741.557 4.294-15.798 10.603-30.789 18.647-44.667zm113.068-25.863c-12.458-16.61-27.162-30.975-44.11-43.094 13.855-8.031 28.819-14.332 44.589-18.626-3.47 20.272-3.933 40.996-.479 61.72zm97.538-61.984c15.949 4.25 31.084 10.551 45.092 18.617-17.111 12.177-31.945 26.631-44.497 43.367 2.775-20.814 2.729-41.628-.595-61.984zm133.185 132.596c-20.557-3.611-41.586-4.144-62.617-.639 16.824-12.618 31.34-27.544 43.557-44.769 8.242 14.087 14.697 29.328 19.06 45.408zm-132.59 168.322c12.552 16.736 27.386 31.19 44.497 43.367-13.985 8.053-29.095 14.346-45.016 18.596 3.508-20.349 3.987-41.156.519-61.963zm69.12-69.974c21.163 3.527 42.326 2.963 63.49-.71-4.369 16.128-10.843 31.412-19.113 45.536-12.43-17.249-27.535-32.194-44.377-44.826z"/><path d="m255 280.6c-18.773 0-34.133 15.36-34.133 34.133s15.36 34.133 34.133 34.133 34.133-15.36 34.133-34.133-15.36-34.133-34.133-34.133zm0 51.2c-9.387 0-17.067-7.68-17.067-17.067s7.68-17.067 17.067-17.067 17.067 7.68 17.067 17.067-7.68 17.067-17.067 17.067z"/><path d="m314.733 289.133c18.773 0 34.133-15.36 34.133-34.133s-15.36-34.133-34.133-34.133-34.133 15.36-34.133 34.133 15.36 34.133 34.133 34.133zm0-51.2c9.387 0 17.067 7.68 17.067 17.067s-7.68 17.067-17.067 17.067-17.067-7.68-17.067-17.067 7.681-17.067 17.067-17.067z"/><path d="m255 229.4c18.773 0 34.133-15.36 34.133-34.133s-15.36-34.133-34.133-34.133-34.133 15.36-34.133 34.133 15.36 34.133 34.133 34.133zm0-51.2c9.387 0 17.067 7.68 17.067 17.067s-7.68 17.067-17.067 17.067-17.067-7.68-17.067-17.067 7.68-17.067 17.067-17.067z"/><path d="m195.267 220.867c-18.773 0-34.133 15.36-34.133 34.133s15.36 34.133 34.133 34.133 34.133-15.36 34.133-34.133-15.36-34.133-34.133-34.133zm0 51.2c-9.387 0-17.067-7.68-17.067-17.067s7.68-17.067 17.067-17.067 17.067 7.68 17.067 17.067-7.681 17.067-17.067 17.067z"/></g></g></g><g/><g/><g/><g/><g/><g/><g/><g/><g/><g/><g/><g/><g/><g/><g/></svg>