<svg id="Layer_1" enable-background="new 0 0 512 512" viewBox="0 0 512 512" xmlns="http://www.w3.org/2000/svg"><g transform="translate(1 1)"><g><g><path d="m255-1c-140.8 0-256 115.2-256 256s115.2 256 256 256 256-115.2 256-256-115.2-256-256-256zm0 494.933c-131.413 0-238.933-107.52-238.933-238.933s107.52-238.933 238.933-238.933 238.933 107.52 238.933 238.933-107.52 238.933-238.933 238.933z"/><path d="m255 280.6c-18.773 0-34.133 15.36-34.133 34.133s15.36 34.133 34.133 34.133 34.133-15.36 34.133-34.133-15.36-34.133-34.133-34.133zm0 51.2c-9.387 0-17.067-7.68-17.067-17.067s7.68-17.067 17.067-17.067 17.067 7.68 17.067 17.067-7.68 17.067-17.067 17.067z"/><path d="m314.733 220.867c-18.773 0-34.133 15.36-34.133 34.133s15.36 34.133 34.133 34.133 34.133-15.36 34.133-34.133c.001-18.773-15.359-34.133-34.133-34.133zm0 51.2c-9.387 0-17.067-7.68-17.067-17.067s7.68-17.067 17.067-17.067 17.067 7.68 17.067 17.067-7.68 17.067-17.067 17.067z"/><path d="m255 229.4c18.773 0 34.133-15.36 34.133-34.133s-15.36-34.133-34.133-34.133-34.133 15.36-34.133 34.133 15.36 34.133 34.133 34.133zm0-51.2c9.387 0 17.067 7.68 17.067 17.067s-7.68 17.067-17.067 17.067-17.067-7.68-17.067-17.067 7.68-17.067 17.067-17.067z"/><path d="m195.267 220.867c-18.773 0-34.133 15.36-34.133 34.133s15.36 34.133 34.133 34.133 34.133-15.36 34.133-34.133-15.36-34.133-34.133-34.133zm0 51.2c-9.387 0-17.067-7.68-17.067-17.067s7.68-17.067 17.067-17.067 17.067 7.68 17.067 17.067-7.681 17.067-17.067 17.067z"/><path d="m459.8 255c0-1.612-.03-3.255-.063-4.905-.004-.16-.005-.32-.009-.48-.135-6.929-.251-13.95 1.779-19.362-.524-2.619-2.014-4.912-4.072-6.296-2.123-13.809-5.645-27.171-10.403-39.945.81-2.042.894-4.353-.031-6.666-6.827-16.213-15.36-31.573-26.453-46.08-1.321-1.761-3.323-3.061-5.42-3.562-8.218-10.305-17.405-19.805-27.42-28.363-.4-1.855-1.422-3.586-2.999-4.769-14.507-11.093-29.867-20.48-46.08-27.307-1.194-.478-2.388-.679-3.544-.66-15.443-6.616-31.844-11.388-48.928-14.024-.679-.296-1.396-.528-2.141-.677-15.275-2.083-29.421-2.471-43.815-1.164-21.871 1.581-42.814 6.642-62.285 14.619-.189.062-.377.123-.566.199-.605.255-1.207.517-1.81.777-.053.023-.107.046-.16.069-.93.401-1.856.809-2.78 1.222-4.064 1.801-8.06 3.73-11.982 5.783-.859.447-1.715.901-2.569 1.36-.212.115-.426.228-.638.343-9 4.883-17.715 10.457-26.14 16.9-.305.229-.59.484-.866.75-12.825 9.886-24.456 21.251-34.635 33.835-.437.37-.841.786-1.192 1.254-1.988 2.599-3.918 5.227-5.791 7.881-19.336 26.827-32.361 58.463-36.847 92.693-.009.04-.021.079-.029.12-.009.092-.018.186-.027.278-.965 7.48-1.51 15.087-1.636 22.79-.027 1.14-.043 2.27-.043 3.385 0 1.114.016 2.244.043 3.382.427 26.005 5.762 50.868 15.118 73.705.062.189.123.378.199.567.255.606.517 1.208.777 1.811.022.053.045.105.068.157.402.932.81 1.86 1.224 2.786 1.801 4.063 3.729 8.058 5.782 11.979.447.858.9 1.714 1.359 2.567.115.213.228.427.344.64 4.883 9 10.457 17.715 16.899 26.14.211.281.444.538.687.784 9.901 12.857 21.287 24.516 33.898 34.717.37.437.786.841 1.255 1.193 2.599 1.988 5.227 3.918 7.881 5.791 26.827 19.336 58.463 32.361 92.693 36.847.04.008.079.021.119.029.091.009.185.018.277.027 7.481.965 15.088 1.51 22.792 1.636 1.14.027 2.27.043 3.385.043 1.156 0 2.33-.018 3.512-.045 3.042-.052 6.068-.172 9.077-.357 4.558-.222 9.016-.452 13.011-.452 1.131-.226 2.198-.637 3.161-1.191 16.84-2.394 33.036-6.854 48.325-13.117.189-.062.378-.123.567-.199.606-.255 1.208-.517 1.811-.777.053-.022.105-.045.158-.068.93-.401 1.856-.809 2.78-1.221 4.067-1.803 8.066-3.732 11.991-5.788.854-.445 1.705-.896 2.554-1.352.216-.117.434-.232.649-.349 8.999-4.882 17.713-10.456 26.137-16.898.305-.229.59-.484.866-.75 12.825-9.886 24.456-21.251 34.635-33.835.437-.37.841-.786 1.193-1.255 1.988-2.6 3.919-5.228 5.792-7.883 19.335-26.826 32.36-58.462 36.846-92.692.008-.04.021-.079.029-.119.009-.091.018-.185.027-.277.965-7.481 1.51-15.088 1.636-22.792.022-1.137.038-2.267.038-3.382zm-28.749 65.012-51.464-30.879h60.005c-1.973 10.628-4.845 20.949-8.541 30.879zm-24.389 45.279-59.502-35.198c-3.413-1.707-7.68-.853-10.24 1.707-1.707 1.707-3.413 4.267-5.973 5.973-3.413 2.56-3.413 6.827-1.707 10.24l34.515 59.771c-9.306 6.655-19.244 12.475-29.693 17.367l-34.689-60.071c-2.56-4.267-6.827-5.12-10.24-4.267s-6.827 1.707-10.24 2.56c-4.267.853-6.827 4.267-6.827 8.533v69.973c-11.947.853-22.187.853-34.133 0h-.709c-.048-.005-.096-.008-.144-.013v-69.96c0-4.267-2.56-7.68-6.827-8.533-3.413-.853-7.68-2.56-11.093-3.413-4.267-1.707-8.533 0-10.24 3.413l-35.762 60.455c-10.141-4.953-19.773-10.798-28.802-17.425l35.551-60.097c1.707-3.413.853-7.68-1.707-10.24-1.707-1.707-4.267-3.413-5.973-5.973-2.56-3.413-6.827-3.413-10.24-1.707l-60.2 34.764c-6.618-9.331-12.4-19.289-17.251-29.757l60.385-34.02c4.267-2.56 5.12-6.827 4.267-10.24s-1.707-6.827-2.56-10.24c-.853-4.267-4.267-6.827-8.533-6.827h-69.975c-.083-.584-.152-1.167-.22-1.75-.413-5.054-.633-10.161-.633-15.317 0-6.043.301-12.019.866-17.92h69.961c4.267 0 7.68-2.56 8.533-6.827.853-3.413 2.56-7.68 3.413-11.093 1.707-4.267 0-8.533-3.413-10.24l-60.455-35.762c4.953-10.141 10.798-19.773 17.425-28.802l60.097 35.551c3.413 1.707 7.68.853 10.24-1.707 1.707-1.707 3.413-4.267 5.973-5.973 3.413-2.56 3.413-6.827 1.707-10.24l-34.764-60.2c9.332-6.619 19.292-12.401 29.762-17.253l35.722 60.387c2.56 4.267 6.827 5.12 10.24 4.267s6.827-1.707 10.24-2.56c4.267-.853 6.827-4.267 6.827-8.533v-69.974c10.783-.77 20.187-.838 30.698-.218 1.147.094 2.294.193 3.435.308v69.884c0 4.267 2.56 7.68 6.827 8.533 3.413.853 7.68 2.56 11.093 3.413 4.267 1.707 8.533 0 10.24-3.413l35.567-60.127c10.121 4.993 19.735 10.869 28.738 17.531l-35.293 59.662c-1.707 3.413-.853 7.68 1.707 10.24 1.707 1.707 4.267 3.413 5.973 5.973 2.56 3.413 6.827 3.413 10.24 1.707l59.591-34.412c6.597 9.346 12.362 19.315 17.19 29.796l-59.714 34.483c-4.267 2.56-5.12 6.827-4.267 10.24s1.707 6.827 2.56 10.24c.853 4.267 4.267 6.827 8.533 6.827h69.26c.463 5.347.713 10.752.713 16.213 0 6.043-.301 12.019-.866 17.92h-69.106c-4.267 0-7.68 2.56-8.533 6.827-.853 3.413-2.56 7.68-3.413 11.093-1.707 4.267 0 8.533 3.413 10.24l59.797 35.373c-4.93 10.152-10.757 19.795-17.362 28.838zm-89.511 66.791c-9.317 3.295-18.959 5.883-28.872 7.675v-56.757zm-96.284 7.51c-10.627-1.973-20.948-4.845-30.879-8.541l30.879-51.464zm-150.624-151.312h56.757l-49.082 28.872c-3.294-9.317-5.883-18.96-7.675-28.872zm8.706-98.292 51.464 30.879h-60.005c1.973-10.628 4.845-20.949 8.541-30.879zm114.606-112.32c9.365-3.269 19.058-5.819 29.019-7.572v56.904zm98.138-6.766c10.469 2.096 20.628 5.072 30.401 8.843l-30.401 50.669zm107.258 63.945-44.964 26.287 26.548-45.411c6.575 5.935 12.728 12.328 18.416 19.124zm-13.391 87.726 47.213-27.772c3.062 8.976 5.455 18.255 7.13 27.772zm-251.715-110.676 27.288 46.677-46.907-27.423c6.065-6.882 12.624-13.318 19.619-19.254zm-21.948 264.258 46.677-27.288-27.423 46.907c-6.882-6.065-13.318-12.624-19.254-19.619zm264.258 21.948-27.288-46.677 46.907 27.423c-6.065 6.882-12.624 13.318-19.619 19.254z"/></g></g></g><g/><g/><g/><g/><g/><g/><g/><g/><g/><g/><g/><g/><g/><g/><g/></svg>