<svg id="Layer_1" enable-background="new 0 0 512 512" viewBox="0 0 512 512" xmlns="http://www.w3.org/2000/svg"><g transform="translate(1 1)"><g><g><path d="m255-1c-140.8 0-256 115.2-256 256s115.2 256 256 256 256-115.2 256-256-115.2-256-256-256zm0 494.933c-131.413 0-238.933-107.52-238.933-238.933s107.52-238.933 238.933-238.933 238.933 107.52 238.933 238.933-107.52 238.933-238.933 238.933z"/><path d="m255 280.6c-18.773 0-34.133 15.36-34.133 34.133s15.36 34.133 34.133 34.133 34.133-15.36 34.133-34.133-15.36-34.133-34.133-34.133zm0 51.2c-9.387 0-17.067-7.68-17.067-17.067s7.68-17.067 17.067-17.067 17.067 7.68 17.067 17.067-7.68 17.067-17.067 17.067z"/><path d="m314.733 220.867c-18.773 0-34.133 15.36-34.133 34.133s15.36 34.133 34.133 34.133 34.133-15.36 34.133-34.133c.001-18.773-15.359-34.133-34.133-34.133zm0 51.2c-9.387 0-17.067-7.68-17.067-17.067s7.68-17.067 17.067-17.067 17.067 7.68 17.067 17.067-7.68 17.067-17.067 17.067z"/><path d="m255 229.4c18.773 0 34.133-15.36 34.133-34.133s-15.36-34.133-34.133-34.133-34.133 15.36-34.133 34.133 15.36 34.133 34.133 34.133zm0-51.2c9.387 0 17.067 7.68 17.067 17.067s-7.68 17.067-17.067 17.067-17.067-7.68-17.067-17.067 7.68-17.067 17.067-17.067z"/><path d="m195.267 220.867c-18.773 0-34.133 15.36-34.133 34.133s15.36 34.133 34.133 34.133 34.133-15.36 34.133-34.133-15.36-34.133-34.133-34.133zm0 51.2c-9.387 0-17.067-7.68-17.067-17.067s7.68-17.067 17.067-17.067 17.067 7.68 17.067 17.067-7.681 17.067-17.067 17.067z"/><path d="m445.289 330.502c9.354-23.393 14.511-48.874 14.511-75.502 0-55.118-22.076-105.323-57.812-142.235-.427-1.015-1.067-1.977-1.922-2.831-.855-.855-1.816-1.495-2.831-1.922-18.358-17.773-40.003-32.164-63.909-42.141-.22-.111-.443-.218-.673-.31-.7-.42-1.424-.69-2.152-.849-23.392-9.355-48.873-14.512-75.501-14.512-55.118 0-105.323 22.076-142.235 57.812-1.015.427-1.977 1.067-2.831 1.922s-1.495 1.816-1.922 2.831c-17.773 18.358-32.164 40.003-42.141 63.909-.111.22-.218.443-.31.673-.42.7-.69 1.424-.849 2.152-9.355 23.392-14.512 48.873-14.512 75.501 0 55.118 22.076 105.323 57.812 142.235.427 1.015 1.067 1.977 1.922 2.831.93.93 1.865 1.597 2.932 2.02 18.336 17.728 39.946 32.083 63.808 42.043.22.111.443.218.673.31.49.49 1.261.695 1.991.783 23.436 9.396 48.972 14.578 75.662 14.578 27.589 0 53.944-5.541 78.023-15.545.371-.089.724-.222 1.023-.42 23.681-9.991 45.122-24.323 63.326-41.98.967-.423 1.919-1.013 2.694-1.788.855-.855 1.495-1.816 1.922-2.831 17.496-18.072 31.724-39.325 41.682-62.789.34-.534.604-1.13.77-1.792.42-.702.69-1.426.849-2.153zm-51.866 50.974-42.091-42.091c7.467-8.522 13.818-18.045 18.829-28.349l55.187 22.607c-8.174 17.57-18.984 33.688-31.925 47.833zm-58.135 43.101-23.172-54.952c9.889-4.925 19.047-11.088 27.269-18.293l42.091 42.091c-13.702 12.537-29.256 23.076-46.188 31.154zm-206.764-31.154 42.091-42.091c8.522 7.467 18.045 13.818 28.349 18.829l-22.607 55.187c-17.57-8.174-33.688-18.984-47.833-31.925zm-43.101-58.135 54.952-23.172c4.925 9.889 11.088 19.047 18.293 27.269l-42.091 42.091c-12.537-13.702-23.076-29.256-31.154-46.188zm-17.953-71.755h59.818c.754 11.513 3.017 22.605 6.602 33.078l-55.018 23.2c-6.556-17.681-10.51-36.597-11.402-56.278zm10.787-71.64 55.251 22.633c-3.364 10.138-5.493 20.844-6.219 31.94h-59.819c.864-19.049 4.601-37.381 10.787-54.573zm38.32-63.37 42.091 42.091c-7.467 8.522-13.818 18.045-18.829 28.349l-55.187-22.607c8.174-17.569 18.984-33.688 31.925-47.833zm58.135-43.1 23.172 54.952c-9.889 4.925-19.047 11.088-27.269 18.293l-42.091-42.091c13.702-12.537 29.256-23.076 46.188-31.154zm206.765 31.154-42.091 42.091c-8.522-7.467-18.045-13.818-28.349-18.829l22.607-55.187c17.569 8.174 33.687 18.984 47.833 31.925zm43.1 58.135-54.952 23.172c-4.925-9.889-11.088-19.047-18.293-27.269l42.091-42.091c12.537 13.702 23.076 29.256 31.154 46.188zm17.953 71.755h-59.818c-.754-11.513-3.017-22.605-6.602-33.078l55.018-23.2c6.557 17.681 10.51 36.597 11.402 56.278zm-143.933 110.623c-.313.088-.624.188-.93.31-.329.131-.637.289-.935.46-12.873 5.204-26.955 8.074-41.732 8.074-45.947 0-85.208-27.681-102.09-67.336-.088-.313-.188-.625-.31-.931-.132-.329-.29-.637-.46-.935-5.204-12.872-8.074-26.955-8.074-41.732 0-45.604 27.271-84.618 66.452-101.704.491-.118 1.068-.323 1.814-.695.329-.132.637-.29.935-.46 12.872-5.204 26.955-8.074 41.732-8.074 45.947 0 85.209 27.681 102.09 67.336.088.313.188.624.31.93.18.721.48 1.361.864 1.929 4.952 12.601 7.669 26.341 7.669 40.737.001 45.948-27.68 85.21-67.335 102.091zm-3.123-223.582c-10.138-3.364-20.844-5.493-31.94-6.219v-59.819c19.05.863 37.382 4.601 54.573 10.786zm-49.007-6.22c-11.513.754-22.605 3.017-33.078 6.602l-23.2-55.018c17.682-6.557 36.598-10.51 56.279-11.402v59.818zm-31.941 249.204c10.138 3.364 20.844 5.493 31.94 6.219v59.818c-19.05-.863-37.382-4.601-54.573-10.786zm49.007 6.22c11.513-.754 22.605-3.017 33.078-6.602l23.2 55.018c-17.682 6.557-36.598 10.51-56.279 11.402v-59.818zm112.959-87.238c3.364-10.138 5.493-20.844 6.219-31.94h59.818c-.863 19.05-4.601 37.382-10.786 54.573z"/></g></g></g><g/><g/><g/><g/><g/><g/><g/><g/><g/><g/><g/><g/><g/><g/><g/></svg>