<svg id="Layer_1" enable-background="new 0 0 512 512" viewBox="0 0 512 512" xmlns="http://www.w3.org/2000/svg"><g transform="translate(1 1)"><g><path d="m502.467 67.267h-494.934c-5.12 0-8.533 3.413-8.533 8.533v290.133c0 5.12 3.413 8.533 8.533 8.533h195.535c3.204 30.031-5.096 52.116-6.095 54.613-2.56 3.413-2.56 7.68 0 10.24 1.707 2.56 4.267 3.413 6.827 3.413 1.707 0 3.413-.853 5.12-2.56 5.12-3.413 9.387-23.04 11.093-34.987 1.083-8.933 1.473-19.33.392-30.72h85.063c3.204 30.031-5.096 52.116-6.095 54.613-2.56 3.413-2.56 7.68 0 10.24 1.707 2.56 4.267 3.413 6.827 3.413 1.707 0 3.413-.853 5.12-2.56 5.12-3.413 9.387-23.04 11.093-34.987 1.083-8.933 1.473-19.33.392-30.72h85.063c3.204 30.031-5.096 52.116-6.095 54.613-2.56 3.413-2.56 7.68 0 10.24 1.707 2.56 4.267 3.413 6.827 3.413 1.707 0 3.413-.853 5.12-2.56 5.12-3.413 9.387-23.04 11.093-34.987 1.083-8.933 1.473-19.33.392-30.72h77.262c5.12 0 8.533-3.413 8.533-8.533v-290.13c0-5.12-3.413-8.533-8.533-8.533zm-284.73 290.133c-1.216-5.543-2.825-11.249-4.876-17.067h84.132c2.32 5.82 4.118 11.528 5.48 17.067zm-84.764-136.533 19.627-34.133 19.627 34.133zm53.76 17.066c3.413 0 5.973-1.707 6.827-4.267 1.707-2.56 1.707-5.973 0-8.533l-34.133-59.733c-2.56-5.12-11.093-5.12-14.507 0l-34.133 59.733c-1.707 2.56-1.707 5.973 0 8.533s4.267 4.267 7.68 4.267h25.933c1.198 13.209 6.348 39.693 27.826 64.853 5.591 6.844 10.248 13.698 14.123 20.48h-136.149v-204.8h409.6v204.8h-49.37c-5.174-10.376-11.913-20.975-20.604-31.573-16.966-20.476-21.898-42.151-23.323-53.76h25.029c3.413 0 5.973-1.707 6.827-4.267 1.707-2.56 1.707-5.973 0-8.533l-34.132-59.733c-2.56-5.12-11.093-5.12-14.507 0l-34.133 59.733c-1.707 2.56-1.707 5.973 0 8.533s4.267 4.267 7.68 4.267h25.933c1.198 13.209 6.348 39.693 27.826 64.853 5.591 6.844 10.248 13.698 14.123 20.48h-83.119c-5.174-10.376-11.913-20.975-20.604-31.573-16.966-20.476-21.898-42.151-23.323-53.76h25.03c3.413 0 5.973-1.707 6.827-4.267 1.707-2.56 1.707-5.973 0-8.533l-34.133-59.733c-2.56-5.12-11.093-5.12-14.507 0l-34.133 59.733c-1.707 2.56-1.707 5.973 0 8.533s4.267 4.267 7.68 4.267h25.933c1.198 13.209 6.348 39.693 27.826 64.853 5.591 6.844 10.248 13.698 14.123 20.48h-83.119c-5.174-10.376-11.913-20.975-20.604-31.573-16.966-20.476-21.898-42.151-23.323-53.76zm151.04-17.066 19.627-34.133 19.627 34.133zm-102.4 0 19.627-34.134 19.627 34.133h-39.254zm84.764 136.533c-1.216-5.543-2.825-11.249-4.876-17.067h84.132c2.32 5.82 4.118 11.528 5.48 17.067zm173.796 0h-71.396c-1.216-5.543-2.825-11.249-4.876-17.067h50.672c5.12 0 8.533-3.413 8.533-8.533v-221.867c0-5.12-3.413-8.533-8.533-8.533h-426.666c-5.12 0-8.533 3.413-8.533 8.533v221.867c0 5.12 3.413 8.533 8.533 8.533h152.927c2.32 5.82 4.118 11.528 5.48 17.067h-184.007v-273.067h477.867v273.067z"/></g></g><g/><g/><g/><g/><g/><g/><g/><g/><g/><g/><g/><g/><g/><g/><g/></svg>