<svg id="Layer_1" enable-background="new 0 0 512 512" viewBox="0 0 512 512" xmlns="http://www.w3.org/2000/svg"><g transform="translate(1 1)"><g><g><path d="m255-1c-140.8 0-256 115.2-256 256s115.2 256 256 256 256-115.2 256-256-115.2-256-256-256zm0 494.933c-131.413 0-238.933-107.52-238.933-238.933s107.52-238.933 238.933-238.933 238.933 107.52 238.933 238.933-107.52 238.933-238.933 238.933z"/><path d="m255 50.2c-98.598 0-181.503 70.615-200.641 163.769-.294.578-.545 1.177-.746 1.778-2.56 12.8-3.413 26.453-3.413 39.253 0 9.448.469 19.36 2.085 29.051 12.276 85.484 77.845 154.366 161.685 171.59.578.294 1.177.545 1.777.745 12.8 2.56 26.453 3.413 39.253 3.413 8.776 0 17.952-.402 26.705-1.754 100.142-13.189 178.095-99.452 178.095-203.045 0-112.64-92.16-204.8-204.8-204.8zm158.743 304.691-27.33-5.171-18.773-36.693c3.413-5.973 5.973-11.947 7.68-18.773l39.253-12.8 23.427 15.373c-4.797 20.875-13.106 40.447-24.257 58.064zm27.284-75.998-19.627-12.8c-2.56-1.707-5.12-1.707-7.68-.853l-46.933 15.36c-2.56.853-4.267 3.413-5.12 5.973-1.707 7.68-5.12 15.36-9.387 23.04-.853 2.56-.853 5.12 0 7.68l22.187 44.373c.853 1.707 3.413 3.413 5.973 4.267l21.196 5.935c-9.485 11.863-20.373 22.56-32.406 31.838l-4.15-22.412c0-2.56-1.707-5.12-4.267-5.973l-44.373-22.187c-2.56-1.707-5.12-1.707-7.68 0-6.827 3.413-14.507 6.827-23.04 9.387-2.56 0-5.12 2.56-5.973 5.12l-15.36 46.933c-.853 2.56-.853 5.12.853 6.827l12.8 19.627c-15.36 1.707-30.72 1.707-46.08 0l11.947-20.48c1.707-2.56 1.707-5.12.853-7.68l-16.213-46.933c-.853-2.56-3.413-4.267-5.973-5.12-7.68-1.707-16.213-5.12-23.04-9.387-2.56-.853-5.12-.853-7.68 0l-44.373 22.187c-1.707.853-3.413 3.413-4.267 5.973l-4.214 22.749c-11.92-9.417-22.679-20.244-32.026-32.221l22.586-4.183c2.56 0 5.12-1.707 5.973-4.267l21.333-45.227c1.707-2.56 1.707-5.12 0-7.68-3.413-6.827-6.827-14.507-9.387-23.04 0-2.56-2.56-5.12-5.12-5.973l-46.933-15.36c-2.56-.853-5.12-.853-6.827.853l-19.627 12.8c-.853-7.68-1.707-15.36-1.707-23.04 0-.964.022-1.924.037-2.885.1-4.094.378-8.188.583-12.282.204-2.523.461-5.032.765-7.526l19.095 12.453c2.56 1.707 5.12 1.707 9.387 0l46.933-16.213c2.56-.853 4.267-3.413 5.12-5.973 1.707-7.68 5.12-16.213 9.387-23.04.853-2.56.853-5.12 0-7.68l-22.187-44.373c-.853-1.707-3.413-3.413-5.973-4.267l-22.749-4.213c9.417-11.92 20.244-22.679 32.221-32.026l4.183 22.586c0 2.56 1.707 5.12 4.267 5.973l44.373 21.333c2.56 1.707 5.12 1.707 7.68 0 6.827-3.413 14.507-6.827 23.04-9.387 2.56 0 5.12-2.56 5.973-5.12l16.213-46.933c.853-2.56.853-5.12-.853-7.68l-12.453-19.095c7.444-.907 15.015-1.385 22.693-1.385s15.25.478 22.693 1.385l-12.453 19.096c-1.707 2.56-1.707 5.12 0 8.533l15.36 46.933c.853 2.56 3.413 4.267 5.973 5.12 7.68 1.707 15.36 5.12 23.04 9.387 2.56.853 5.12.853 7.68 0l44.373-22.187c1.707-.853 3.413-3.413 4.267-5.973l5.747-21.347c11.693 9.325 22.259 20.008 31.451 31.81l-21.839 4.044c-2.56 0-5.12 1.707-5.973 4.267l-22.187 44.373c-1.707 2.56-1.707 5.12 0 7.68 3.413 6.827 6.827 14.507 9.387 23.04 0 2.56 2.56 5.12 5.12 5.973l46.933 16.213c2.56.853 5.12.853 6.827 0l19.627-12.8c.838 7.541 1.671 15.081 1.701 22.622-.003 1.228-.02 2.452-.047 3.675-.192 6.594-.921 13.189-1.653 19.783zm-145.436 159.378-14.991-22.844 12.8-39.253c6.827-1.707 12.8-4.267 18.773-7.68l36.693 18.773 5.117 27.044c-17.728 11.082-37.412 19.289-58.392 23.96zm-140.193-24.347 4.882-25.804 36.693-18.773c5.973 3.413 11.947 5.973 18.773 7.68l12.8 39.253-14.394 21.934c-21.127-4.735-40.937-13.057-58.754-24.29zm-83.477-117.459 22.653-14.158 39.253 12.8c1.707 6.827 4.267 12.8 7.68 18.773l-18.773 36.693-26.09 4.936c-11.413-17.877-19.884-37.79-24.723-59.044zm24.155-141.067 25.804 4.882 18.773 36.693c-3.413 5.973-5.973 11.947-7.68 18.773l-39.253 12.8-21.934-14.394c4.735-21.127 13.057-40.937 24.29-58.754zm117.459-83.477 14.158 22.653-12.8 39.253c-6.827 1.707-12.8 4.267-18.773 7.68l-36.693-18.773-4.936-26.09c17.877-11.413 37.79-19.884 59.044-24.723zm140.448 23.768-5.117 27.045-36.693 18.773c-5.973-3.413-11.947-5.973-18.773-7.68l-12.8-39.253 14.991-22.844c20.98 4.67 40.664 12.877 58.392 23.959zm84.017 117.484-23.427 15.374-39.253-12.8c-1.707-6.827-4.267-12.8-7.68-18.773l18.773-36.693 27.33-5.171c11.151 17.616 19.46 37.188 24.257 58.063z"/><path d="m255 280.6c-18.773 0-34.133 15.36-34.133 34.133s15.36 34.133 34.133 34.133 34.133-15.36 34.133-34.133-15.36-34.133-34.133-34.133zm0 51.2c-9.387 0-17.067-7.68-17.067-17.067s7.68-17.067 17.067-17.067 17.067 7.68 17.067 17.067-7.68 17.067-17.067 17.067z"/><path d="m314.733 220.867c-18.773 0-34.133 15.36-34.133 34.133s15.36 34.133 34.133 34.133 34.133-15.36 34.133-34.133c.001-18.773-15.359-34.133-34.133-34.133zm0 51.2c-9.387 0-17.067-7.68-17.067-17.067s7.68-17.067 17.067-17.067 17.067 7.68 17.067 17.067-7.68 17.067-17.067 17.067z"/><path d="m255 229.4c18.773 0 34.133-15.36 34.133-34.133s-15.36-34.133-34.133-34.133-34.133 15.36-34.133 34.133 15.36 34.133 34.133 34.133zm0-51.2c9.387 0 17.067 7.68 17.067 17.067s-7.68 17.067-17.067 17.067-17.067-7.68-17.067-17.067 7.68-17.067 17.067-17.067z"/><path d="m195.267 220.867c-18.773 0-34.133 15.36-34.133 34.133s15.36 34.133 34.133 34.133 34.133-15.36 34.133-34.133-15.36-34.133-34.133-34.133zm0 51.2c-9.387 0-17.067-7.68-17.067-17.067s7.68-17.067 17.067-17.067 17.067 7.68 17.067 17.067-7.681 17.067-17.067 17.067z"/></g></g></g><g/><g/><g/><g/><g/><g/><g/><g/><g/><g/><g/><g/><g/><g/><g/></svg>