<svg id="Layer_1" enable-background="new 0 0 511.474 511.474" viewBox="0 0 511.474 511.474" xmlns="http://www.w3.org/2000/svg"><g transform="translate(1 1)"><g><path d="m504.337 103.484-88.747-25.6c-104.107-25.6-215.893-25.6-321.707 0l-88.746 24.746c-4.267.853-6.827 5.12-5.973 9.387l51.2 280.747c.853 2.56 1.707 5.12 4.267 5.973s5.12.853 7.68 0c39.796-13.982 80.694-23.554 121.892-28.725 7.53 36.254-2.999 64.292-4.132 67.125-2.56 3.413-2.56 7.68 0 10.24 1.707 2.56 4.267 3.413 6.827 3.413 1.707 0 3.413-.853 5.12-2.56 5.12-3.413 9.387-23.04 11.093-34.987 1.525-12.579 1.676-28.058-1.729-45.134 28.121-2.689 56.329-3.327 84.371-1.925 9.135 38.094-2.109 68.021-3.282 70.952-2.56 3.413-2.56 7.68 0 10.24 1.707 2.56 4.267 3.413 6.827 3.413 1.707 0 3.413-.853 5.12-2.56 5.12-3.413 9.387-23.04 11.093-34.987 1.547-12.763 1.679-28.512-1.883-45.885 29.411 2.391 58.579 7.041 87.209 13.959 3.562 30.647-4.953 53.289-5.965 55.819-2.56 3.413-2.56 7.68 0 10.24 1.707 2.56 4.267 3.413 6.827 3.413 1.707 0 3.413-.853 5.12-2.56 5.12-3.413 9.387-23.04 11.093-34.987.974-8.038 1.388-17.262.674-27.327 13.576 3.757 27.016 8.029 40.286 12.821.853.853 1.707.853 2.56.853h3.413c2.56-1.707 3.413-3.413 4.267-5.973l51.2-280.747c.852-4.264-1.708-8.531-5.975-9.384zm-59.733 276.48c-12.674-4.343-25.478-8.227-38.385-11.668-4.198-21.197-13.881-44.869-33.295-68.545-16.966-20.476-21.898-42.151-23.323-53.76h25.029c3.413 0 5.973-1.707 6.827-4.267 1.707-2.56 1.707-5.973 0-8.533l-34.133-59.733c-2.56-5.12-11.093-5.12-14.507 0l-34.133 59.733c-1.707 2.56-1.707 5.973 0 8.533s4.267 4.267 7.68 4.267h26.079c1.398 13.209 6.816 39.693 27.681 64.853 14.731 18.033 23.035 36.14 27.39 52.794-29.137-6.738-58.735-11.208-88.517-13.416-5.469-16.198-14.42-33.334-28.473-50.472-16.966-20.476-21.898-42.151-23.323-53.76h25.03c3.413 0 5.973-1.707 6.827-4.267 1.707-2.56 1.707-5.973 0-8.533l-34.133-59.733c-2.56-5.12-11.093-5.12-14.507 0l-34.133 59.733c-1.707 2.56-1.707 5.973 0 8.533s4.267 4.267 7.68 4.267h26.079c1.398 13.209 6.816 39.693 27.681 64.853 10.549 12.914 17.794 25.864 22.662 38.293-27.757-1.176-55.621-.39-83.369 2.353-5.426-16.57-14.473-34.154-28.893-51.74-16.966-20.476-21.898-42.151-23.323-53.76h25.03c3.413 0 5.973-1.707 6.827-4.267 1.707-2.56 1.707-5.973 0-8.533l-34.133-59.733c-2.56-5.12-11.093-5.12-14.507 0l-34.135 59.734c-1.707 2.56-1.707 5.973 0 8.533s4.267 4.267 7.68 4.267h26.079c1.398 13.209 6.816 39.693 27.681 64.853 11.782 14.423 19.447 28.892 24.275 42.629-38.771 4.991-77.22 13.816-114.728 26.491l-47.788-262.826 81.067-23.04c103.253-24.747 211.627-24.747 313.173 0l81.067 23.04zm-123.734-151.04 19.627-34.133 19.627 34.133zm-102.4 0 19.627-34.133 19.627 34.133zm-102.4 0 19.627-34.133 19.627 34.133z"/></g></g><g/><g/><g/><g/><g/><g/><g/><g/><g/><g/><g/><g/><g/><g/><g/></svg>