<svg id="Layer_1" enable-background="new 0 0 512 512" viewBox="0 0 512 512" xmlns="http://www.w3.org/2000/svg"><g transform="translate(1 1)"><g><g><path d="m169.667 195.267h-102.4c-5.12 0-8.533 3.413-8.533 8.533v34.133c0 5.12 3.413 8.533 8.533 8.533h102.4c5.12 0 8.533-3.413 8.533-8.533v-34.133c0-5.12-3.413-8.533-8.533-8.533zm-8.534 34.133h-85.333v-17.067h85.333z"/><path d="m442.733 195.267h-25.6v-25.6c0-5.12-3.413-8.533-8.533-8.533h-34.133c-5.12 0-8.533 3.413-8.533 8.533v25.6h-25.6c-5.12 0-8.533 3.413-8.533 8.533v34.133c0 5.12 3.413 8.533 8.533 8.533h25.6v25.6c0 5.12 3.413 8.533 8.533 8.533h34.133c5.12 0 8.533-3.413 8.533-8.533v-25.6h25.6c5.12 0 8.533-3.413 8.533-8.533v-34.133c.001-5.12-3.413-8.533-8.533-8.533zm-8.533 34.133h-25.6c-5.12 0-8.533 3.413-8.533 8.533v25.6h-17.067v-25.6c0-5.12-3.413-8.533-8.533-8.533h-25.6v-17.067h25.6c5.12 0 8.533-3.413 8.533-8.533v-25.6h17.067v25.6c0 5.12 3.413 8.533 8.533 8.533h25.6z"/><path d="m502.467 425.667h-8.533v-298.667c0-5.12-3.413-8.533-8.533-8.533h-20.48l-14.507-29.013c-1.707-3.413-4.267-5.12-7.68-5.12v-42.667c0-5.12-3.413-8.533-8.533-8.533h-51.201c-5.12 0-8.533 3.413-8.533 8.533v42.667c-3.413 0-5.973 1.707-7.68 4.267l-14.933 29.867h-11.52v-68.268c0-9.387-7.68-17.067-17.067-17.067h-136.534c-9.387 0-17.067 7.68-17.067 17.067v68.267h-11.946l-14.507-29.013c-1.707-3.413-4.267-5.12-7.68-5.12v-42.667c0-5.12-3.413-8.533-8.533-8.533h-51.2c-5.12 0-8.533 3.413-8.533 8.533v42.667c-3.413 0-5.973 1.707-7.68 4.267l-14.933 29.867h-20.054c-5.12 0-8.533 3.413-8.533 8.533v298.667h-8.534c-5.12-.001-8.533 3.412-8.533 8.532v34.133c0 5.12 3.413 8.533 8.533 8.533h494.933c5.12 0 8.533-3.413 8.533-8.533v-34.133c.001-5.12-3.412-8.533-8.532-8.533zm-110.934-375.467h34.133v34.133h-34.133zm-11.946 51.2h3.413 51.2 3.413l8.533 17.067h-75.093zm-192.854-51.2h136.533v68.267h-17.066v-34.134c0-9.387-7.68-17.067-17.067-17.067h-68.267c-9.387 0-17.067 7.68-17.067 17.067v34.133h-17.067v-68.266zm34.134 68.267v-34.134h68.267v34.133h-68.267zm-136.534-68.267h34.133v34.133h-34.133zm-11.946 51.2h3.413 51.2 3.413l8.533 17.067h-75.093zm-39.254 34.133h17.067 102.4 25.6 34.133 85.333 34.134 25.6 102.4 17.067v290.133h-443.734zm460.8 324.267h-477.866v-17.067h8.533 460.8 8.533z"/></g></g></g><g/><g/><g/><g/><g/><g/><g/><g/><g/><g/><g/><g/><g/><g/><g/></svg>